%TF.GenerationSoftware,KiCad,Pcbnew,10.0.5*%
%TF.CreationDate,2026-09-04T17:47:14+02:00*%
%TF.ProjectId,rpi2040-lcd-gauge,556e7469-746c-4656-942e-6b696361645f,rev?*%
%TF.SameCoordinates,Original*%
%TF.FileFunction,Soldermask,Top*%
%TF.FilePolarity,Negative*%
%FSLAX46Y46*%
G04 Gerber Fmt 4.6, Leading zero omitted, Abs format (unit mm)*
G04 Created by KiCad (PCBNEW 10.0.5) date 2026-09-04 17:47:14*
%MOMM*%
%LPD*%
G01*
G04 APERTURE LIST*
G04 Aperture macros list*
%AMRoundRect*
0 Rectangle with rounded corners*
0 $1 Rounding radius*
0 $2 $3 $4 $5 $6 $7 $8 $9 X,Y pos of 4 corners*
0 Add a 4 corners polygon primitive as box body*
4,1,4,$2,$3,$4,$5,$6,$7,$8,$9,$2,$3,0*
0 Add four circle primitives for the rounded corners*
1,1,$1+$1,$2,$3*
1,1,$1+$1,$4,$5*
1,1,$1+$1,$6,$7*
1,1,$1+$1,$8,$9*
0 Add four rect primitives between the rounded corners*
20,1,$1+$1,$2,$3,$4,$5,0*
20,1,$1+$1,$4,$5,$6,$7,0*
20,1,$1+$1,$6,$7,$8,$9,0*
20,1,$1+$1,$8,$9,$2,$3,0*%
G04 Aperture macros list end*
%ADD10RoundRect,0.150000X-0.150000X0.587500X-0.150000X-0.587500X0.150000X-0.587500X0.150000X0.587500X0*%
%ADD11RoundRect,0.250000X-0.900000X1.000000X-0.900000X-1.000000X0.900000X-1.000000X0.900000X1.000000X0*%
%ADD12RoundRect,0.250000X1.000000X0.650000X-1.000000X0.650000X-1.000000X-0.650000X1.000000X-0.650000X0*%
%ADD13RoundRect,0.250000X0.350000X0.450000X-0.350000X0.450000X-0.350000X-0.450000X0.350000X-0.450000X0*%
%ADD14RoundRect,0.250000X0.650000X-0.412500X0.650000X0.412500X-0.650000X0.412500X-0.650000X-0.412500X0*%
%ADD15RoundRect,0.250000X0.750000X-0.600000X0.750000X0.600000X-0.750000X0.600000X-0.750000X-0.600000X0*%
%ADD16O,2.000000X1.700000*%
%ADD17R,2.350000X5.100000*%
%ADD18RoundRect,0.250000X0.725000X-0.600000X0.725000X0.600000X-0.725000X0.600000X-0.725000X-0.600000X0*%
%ADD19O,1.950000X1.700000*%
%ADD20R,1.000000X1.000000*%
%ADD21C,1.000000*%
%ADD22RoundRect,0.250000X-0.350000X-0.450000X0.350000X-0.450000X0.350000X0.450000X-0.350000X0.450000X0*%
%ADD23RoundRect,0.375000X0.375000X-0.625000X0.375000X0.625000X-0.375000X0.625000X-0.375000X-0.625000X0*%
%ADD24RoundRect,0.500000X1.400000X-0.500000X1.400000X0.500000X-1.400000X0.500000X-1.400000X-0.500000X0*%
%ADD25RoundRect,0.250000X-0.650000X0.412500X-0.650000X-0.412500X0.650000X-0.412500X0.650000X0.412500X0*%
%ADD26RoundRect,0.250000X-0.700000X0.362500X-0.700000X-0.362500X0.700000X-0.362500X0.700000X0.362500X0*%
%ADD27RoundRect,0.250000X-0.412500X-0.650000X0.412500X-0.650000X0.412500X0.650000X-0.412500X0.650000X0*%
%ADD28RoundRect,0.150000X-0.512500X-0.150000X0.512500X-0.150000X0.512500X0.150000X-0.512500X0.150000X0*%
G04 APERTURE END LIST*
D10*
%TO.C,D1*%
X31600000Y-44950000D03*
X30650000Y-43075000D03*
X32550000Y-43075000D03*
%TD*%
D11*
%TO.C,D2*%
X31930000Y-47670000D03*
X31930000Y-51970000D03*
%TD*%
D12*
%TO.C,D4*%
X39750000Y-52450000D03*
X35750000Y-52450000D03*
%TD*%
D13*
%TO.C,C6*%
X37550000Y-42950000D03*
X35550000Y-42950000D03*
%TD*%
D14*
%TO.C,C9*%
X47450000Y-47462500D03*
X47450000Y-44337500D03*
%TD*%
D15*
%TO.C,J3*%
X32600000Y-29350000D03*
D16*
X32600000Y-26850000D03*
%TD*%
D17*
%TO.C,L1*%
X44975000Y-39700000D03*
X49125000Y-39700000D03*
%TD*%
D18*
%TO.C,J7*%
X46425000Y-29350000D03*
D19*
X46425000Y-26850000D03*
X46425000Y-24350000D03*
%TD*%
D20*
%TO.C,J2*%
X54070000Y-45690000D03*
D21*
X52800000Y-45690000D03*
X54070000Y-44420000D03*
X52800000Y-44420000D03*
X54070000Y-43150000D03*
X52800000Y-43150000D03*
X54070000Y-41880000D03*
X52800000Y-41880000D03*
X54070000Y-40610000D03*
X52800000Y-40610000D03*
X54070000Y-39340000D03*
X52800000Y-39340000D03*
X54070000Y-38070000D03*
X52800000Y-38070000D03*
X54070000Y-36800000D03*
X52800000Y-36800000D03*
X54070000Y-35530000D03*
X52800000Y-35530000D03*
X54070000Y-34260000D03*
X52800000Y-34260000D03*
%TD*%
D20*
%TO.C,J1*%
X25930000Y-34240000D03*
D21*
X27200000Y-34240000D03*
X25930000Y-35510000D03*
X27200000Y-35510000D03*
X25930000Y-36780000D03*
X27200000Y-36780000D03*
X25930000Y-38050000D03*
X27200000Y-38050000D03*
X25930000Y-39320000D03*
X27200000Y-39320000D03*
X25930000Y-40590000D03*
X27200000Y-40590000D03*
X25930000Y-41860000D03*
X27200000Y-41860000D03*
X25930000Y-43130000D03*
X27200000Y-43130000D03*
X25930000Y-44400000D03*
X27200000Y-44400000D03*
X25930000Y-45670000D03*
X27200000Y-45670000D03*
%TD*%
D15*
%TO.C,J4*%
X25695000Y-29360000D03*
D16*
X25695000Y-26860000D03*
%TD*%
D18*
%TO.C,J8*%
X39570000Y-29340000D03*
D19*
X39570000Y-26840000D03*
X39570000Y-24340000D03*
%TD*%
D22*
%TO.C,C7*%
X35550000Y-44900000D03*
X37550000Y-44900000D03*
%TD*%
D23*
%TO.C,Q1*%
X30350000Y-40650000D03*
X32650000Y-40650000D03*
D24*
X32650000Y-34350000D03*
D23*
X34950000Y-40650000D03*
%TD*%
D25*
%TO.C,C8*%
X49850000Y-44325000D03*
X49850000Y-47450000D03*
%TD*%
D26*
%TO.C,FB1*%
X28420000Y-47745000D03*
X28420000Y-51070000D03*
%TD*%
D27*
%TO.C,C1*%
X39975000Y-47100000D03*
X43100000Y-47100000D03*
%TD*%
D18*
%TO.C,J5*%
X53290000Y-29770000D03*
D19*
X53290000Y-27270000D03*
X53290000Y-24770000D03*
X53290000Y-22270000D03*
%TD*%
D28*
%TO.C,U1*%
X35300000Y-46700000D03*
X35300000Y-47650000D03*
X35300000Y-48600000D03*
X37575000Y-48600000D03*
X37575000Y-47650000D03*
X37575000Y-46700000D03*
%TD*%
M02*
