%TF.GenerationSoftware,KiCad,Pcbnew,10.0.5*%
%TF.CreationDate,2026-09-04T17:47:13+02:00*%
%TF.ProjectId,Untitled,556e7469-746c-4656-942e-6b696361645f,rev?*%
%TF.SameCoordinates,Original*%
%TF.FileFunction,Copper,L1,Top*%
%TF.FilePolarity,Positive*%
%FSLAX46Y46*%
G04 Gerber Fmt 4.6, Leading zero omitted, Abs format (unit mm)*
G04 Created by KiCad (PCBNEW 10.0.5) date 2026-09-04 17:47:13*
%MOMM*%
%LPD*%
G01*
G04 APERTURE LIST*
G04 Aperture macros list*
%AMRoundRect*
0 Rectangle with rounded corners*
0 $1 Rounding radius*
0 $2 $3 $4 $5 $6 $7 $8 $9 X,Y pos of 4 corners*
0 Add a 4 corners polygon primitive as box body*
4,1,4,$2,$3,$4,$5,$6,$7,$8,$9,$2,$3,0*
0 Add four circle primitives for the rounded corners*
1,1,$1+$1,$2,$3*
1,1,$1+$1,$4,$5*
1,1,$1+$1,$6,$7*
1,1,$1+$1,$8,$9*
0 Add four rect primitives between the rounded corners*
20,1,$1+$1,$2,$3,$4,$5,0*
20,1,$1+$1,$4,$5,$6,$7,0*
20,1,$1+$1,$6,$7,$8,$9,0*
20,1,$1+$1,$8,$9,$2,$3,0*%
G04 Aperture macros list end*
%TA.AperFunction,SMDPad,CuDef*%
%ADD10RoundRect,0.150000X-0.150000X0.587500X-0.150000X-0.587500X0.150000X-0.587500X0.150000X0.587500X0*%
%TD*%
%TA.AperFunction,SMDPad,CuDef*%
%ADD11RoundRect,0.250000X-0.900000X1.000000X-0.900000X-1.000000X0.900000X-1.000000X0.900000X1.000000X0*%
%TD*%
%TA.AperFunction,SMDPad,CuDef*%
%ADD12RoundRect,0.250000X1.000000X0.650000X-1.000000X0.650000X-1.000000X-0.650000X1.000000X-0.650000X0*%
%TD*%
%TA.AperFunction,SMDPad,CuDef*%
%ADD13RoundRect,0.250000X0.350000X0.450000X-0.350000X0.450000X-0.350000X-0.450000X0.350000X-0.450000X0*%
%TD*%
%TA.AperFunction,SMDPad,CuDef*%
%ADD14RoundRect,0.250000X0.650000X-0.412500X0.650000X0.412500X-0.650000X0.412500X-0.650000X-0.412500X0*%
%TD*%
%TA.AperFunction,ComponentPad*%
%ADD15RoundRect,0.250000X0.750000X-0.600000X0.750000X0.600000X-0.750000X0.600000X-0.750000X-0.600000X0*%
%TD*%
%TA.AperFunction,ComponentPad*%
%ADD16O,2.000000X1.700000*%
%TD*%
%TA.AperFunction,SMDPad,CuDef*%
%ADD17R,2.350000X5.100000*%
%TD*%
%TA.AperFunction,ComponentPad*%
%ADD18RoundRect,0.250000X0.725000X-0.600000X0.725000X0.600000X-0.725000X0.600000X-0.725000X-0.600000X0*%
%TD*%
%TA.AperFunction,ComponentPad*%
%ADD19O,1.950000X1.700000*%
%TD*%
%TA.AperFunction,ComponentPad*%
%ADD20R,1.000000X1.000000*%
%TD*%
%TA.AperFunction,ComponentPad*%
%ADD21C,1.000000*%
%TD*%
%TA.AperFunction,SMDPad,CuDef*%
%ADD22RoundRect,0.250000X-0.350000X-0.450000X0.350000X-0.450000X0.350000X0.450000X-0.350000X0.450000X0*%
%TD*%
%TA.AperFunction,SMDPad,CuDef*%
%ADD23RoundRect,0.375000X0.375000X-0.625000X0.375000X0.625000X-0.375000X0.625000X-0.375000X-0.625000X0*%
%TD*%
%TA.AperFunction,SMDPad,CuDef*%
%ADD24RoundRect,0.500000X1.400000X-0.500000X1.400000X0.500000X-1.400000X0.500000X-1.400000X-0.500000X0*%
%TD*%
%TA.AperFunction,SMDPad,CuDef*%
%ADD25RoundRect,0.250000X-0.650000X0.412500X-0.650000X-0.412500X0.650000X-0.412500X0.650000X0.412500X0*%
%TD*%
%TA.AperFunction,SMDPad,CuDef*%
%ADD26RoundRect,0.250000X-0.700000X0.362500X-0.700000X-0.362500X0.700000X-0.362500X0.700000X0.362500X0*%
%TD*%
%TA.AperFunction,SMDPad,CuDef*%
%ADD27RoundRect,0.250000X-0.412500X-0.650000X0.412500X-0.650000X0.412500X0.650000X-0.412500X0.650000X0*%
%TD*%
%TA.AperFunction,SMDPad,CuDef*%
%ADD28RoundRect,0.150000X-0.512500X-0.150000X0.512500X-0.150000X0.512500X0.150000X-0.512500X0.150000X0*%
%TD*%
%TA.AperFunction,ViaPad*%
%ADD29C,0.600000*%
%TD*%
%TA.AperFunction,Conductor*%
%ADD30C,0.500000*%
%TD*%
%TA.AperFunction,Conductor*%
%ADD31C,0.200000*%
%TD*%
%TA.AperFunction,Conductor*%
%ADD32C,0.800000*%
%TD*%
%TA.AperFunction,Conductor*%
%ADD33C,1.250000*%
%TD*%
%TA.AperFunction,Conductor*%
%ADD34C,1.700000*%
%TD*%
G04 APERTURE END LIST*
D10*
%TO.P,D1,3*%
%TO.N,N/C*%
X31600000Y-44950000D03*
%TO.P,D1,2,A_2*%
%TO.N,Net-(D1-A)*%
X30650000Y-43075000D03*
%TO.P,D1,1,K_1*%
%TO.N,+12V*%
X32550000Y-43075000D03*
%TD*%
D11*
%TO.P,D2,1,A1_1*%
%TO.N,+12V*%
X31930000Y-47670000D03*
%TO.P,D2,2,A2_2*%
%TO.N,GND*%
X31930000Y-51970000D03*
%TD*%
D12*
%TO.P,D4,1,K_1*%
%TO.N,Net-(D7-K)*%
X39750000Y-52450000D03*
%TO.P,D4,2,A_2*%
%TO.N,GND*%
X35750000Y-52450000D03*
%TD*%
D13*
%TO.P,C6,1*%
%TO.N,Net-(U1-VIN)*%
X37550000Y-42950000D03*
%TO.P,C6,2*%
%TO.N,GND*%
X35550000Y-42950000D03*
%TD*%
D14*
%TO.P,C9,1*%
%TO.N,+5V*%
X47450000Y-47462500D03*
%TO.P,C9,2*%
%TO.N,GND*%
X47450000Y-44337500D03*
%TD*%
D15*
%TO.P,J3,1,Pin_1_1*%
%TO.N,+12V*%
X32600000Y-29350000D03*
D16*
%TO.P,J3,2,Pin_2_2*%
%TO.N,Net-(J3-Pin_2)*%
X32600000Y-26850000D03*
%TD*%
D17*
%TO.P,L1,1,1_1*%
%TO.N,Net-(D7-K)*%
X44975000Y-39700000D03*
%TO.P,L1,2,2_2*%
%TO.N,+5V*%
X49125000Y-39700000D03*
%TD*%
D18*
%TO.P,J7,1,Pin_1_1*%
%TO.N,/ain_1/SENSOR1_RAW*%
X46425000Y-29350000D03*
D19*
%TO.P,J7,2,Pin_2_2*%
%TO.N,GND*%
X46425000Y-26850000D03*
%TO.P,J7,3,Pin_3_3*%
%TO.N,+5V*%
X46425000Y-24350000D03*
%TD*%
D20*
%TO.P,J2,1,Pin_1_1*%
%TO.N,unconnected-(J2-Pin_1-Pad1)*%
X54070000Y-45690000D03*
D21*
%TO.P,J2,2,Pin_2_2*%
%TO.N,GP16*%
X52800000Y-45690000D03*
%TO.P,J2,3,Pin_3_3*%
%TO.N,unconnected-(J2-Pin_3-Pad3)*%
X54070000Y-44420000D03*
%TO.P,J2,4,Pin_4_4*%
%TO.N,GP17*%
X52800000Y-44420000D03*
%TO.P,J2,5,Pin_5_5*%
%TO.N,GP26*%
X54070000Y-43150000D03*
%TO.P,J2,6,Pin_6_6*%
%TO.N,GP18*%
X52800000Y-43150000D03*
%TO.P,J2,7,Pin_7_7*%
%TO.N,GP27*%
X54070000Y-41880000D03*
%TO.P,J2,8,Pin_8_8*%
%TO.N,GP19*%
X52800000Y-41880000D03*
%TO.P,J2,9,Pin_9_9*%
%TO.N,GP28*%
X54070000Y-40610000D03*
%TO.P,J2,10,Pin_10_10*%
%TO.N,GP20*%
X52800000Y-40610000D03*
%TO.P,J2,11,Pin_11_11*%
%TO.N,unconnected-(J2-Pin_11-Pad11)*%
X54070000Y-39340000D03*
%TO.P,J2,12,Pin_12_12*%
%TO.N,GP21*%
X52800000Y-39340000D03*
%TO.P,J2,13,Pin_13_13*%
%TO.N,unconnected-(J2-Pin_13-Pad13)*%
X54070000Y-38070000D03*
%TO.P,J2,14,Pin_14_14*%
%TO.N,GP22*%
X52800000Y-38070000D03*
%TO.P,J2,15,Pin_15_15*%
%TO.N,unconnected-(J2-Pin_15-Pad15)*%
X54070000Y-36800000D03*
%TO.P,J2,16,Pin_16_16*%
%TO.N,unconnected-(J2-Pin_16-Pad16)*%
X52800000Y-36800000D03*
%TO.P,J2,17,Pin_17_17*%
%TO.N,+3.3VADC*%
X54070000Y-35530000D03*
%TO.P,J2,18,Pin_18_18*%
%TO.N,+5V*%
X52800000Y-35530000D03*
%TO.P,J2,19,Pin_19_19*%
%TO.N,GND*%
X54070000Y-34260000D03*
%TO.P,J2,20,Pin_20_20*%
X52800000Y-34260000D03*
%TD*%
D20*
%TO.P,J1,1,Pin_1_1*%
%TO.N,unconnected-(J1-Pin_1-Pad1)*%
X25930000Y-34240000D03*
D21*
%TO.P,J1,2,Pin_2_2*%
%TO.N,unconnected-(J1-Pin_2-Pad2)*%
X27200000Y-34240000D03*
%TO.P,J1,3,Pin_3_3*%
%TO.N,unconnected-(J1-Pin_3-Pad3)*%
X25930000Y-35510000D03*
%TO.P,J1,4,Pin_4_4*%
%TO.N,unconnected-(J1-Pin_4-Pad4)*%
X27200000Y-35510000D03*
%TO.P,J1,5,Pin_5_5*%
%TO.N,unconnected-(J1-Pin_5-Pad5)*%
X25930000Y-36780000D03*
%TO.P,J1,6,Pin_6_6*%
%TO.N,unconnected-(J1-Pin_6-Pad6)*%
X27200000Y-36780000D03*
%TO.P,J1,7,Pin_7_7*%
%TO.N,unconnected-(J1-Pin_7-Pad7)*%
X25930000Y-38050000D03*
%TO.P,J1,8,Pin_8_8*%
%TO.N,unconnected-(J1-Pin_8-Pad8)*%
X27200000Y-38050000D03*
%TO.P,J1,9,Pin_9_9*%
%TO.N,unconnected-(J1-Pin_9-Pad9)*%
X25930000Y-39320000D03*
%TO.P,J1,10,Pin_10_10*%
%TO.N,unconnected-(J1-Pin_10-Pad10)*%
X27200000Y-39320000D03*
%TO.P,J1,11,Pin_11_11*%
%TO.N,unconnected-(J1-Pin_11-Pad11)*%
X25930000Y-40590000D03*
%TO.P,J1,12,Pin_12_12*%
%TO.N,unconnected-(J1-Pin_12-Pad12)*%
X27200000Y-40590000D03*
%TO.P,J1,13,Pin_13_13*%
%TO.N,unconnected-(J1-Pin_13-Pad13)*%
X25930000Y-41860000D03*
%TO.P,J1,14,Pin_14_14*%
%TO.N,unconnected-(J1-Pin_14-Pad14)*%
X27200000Y-41860000D03*
%TO.P,J1,15,Pin_15_15*%
%TO.N,unconnected-(J1-Pin_15-Pad15)*%
X25930000Y-43130000D03*
%TO.P,J1,16,Pin_16_16*%
%TO.N,unconnected-(J1-Pin_16-Pad16)*%
X27200000Y-43130000D03*
%TO.P,J1,17,Pin_17_17*%
%TO.N,unconnected-(J1-Pin_17-Pad17)*%
X25930000Y-44400000D03*
%TO.P,J1,18,Pin_18_18*%
%TO.N,unconnected-(J1-Pin_18-Pad18)*%
X27200000Y-44400000D03*
%TO.P,J1,19,Pin_19_19*%
%TO.N,unconnected-(J1-Pin_19-Pad19)*%
X25930000Y-45670000D03*
%TO.P,J1,20,Pin_20_20*%
%TO.N,unconnected-(J1-Pin_20-Pad20)*%
X27200000Y-45670000D03*
%TD*%
D15*
%TO.P,J4,1,Pin_1_1*%
%TO.N,+12V*%
X25695000Y-29360000D03*
D16*
%TO.P,J4,2,Pin_2_2*%
%TO.N,Net-(J4-Pin_2)*%
X25695000Y-26860000D03*
%TD*%
D18*
%TO.P,J8,1,Pin_1_1*%
%TO.N,/ain_2/SENSOR2_RAW*%
X39570000Y-29340000D03*
D19*
%TO.P,J8,2,Pin_2_2*%
%TO.N,GND*%
X39570000Y-26840000D03*
%TO.P,J8,3,Pin_3_3*%
%TO.N,+5V*%
X39570000Y-24340000D03*
%TD*%
D22*
%TO.P,C7,1*%
%TO.N,Net-(U1-CB)*%
X35550000Y-44900000D03*
%TO.P,C7,2*%
%TO.N,Net-(D7-K)*%
X37550000Y-44900000D03*
%TD*%
D23*
%TO.P,Q1,1,G_1*%
%TO.N,Net-(D1-A)*%
X30350000Y-40650000D03*
%TO.P,Q1,2,S_2*%
%TO.N,+12V*%
X32650000Y-40650000D03*
D24*
X32650000Y-34350000D03*
D23*
%TO.P,Q1,3,D_3*%
%TO.N,Net-(Q1-D)*%
X34950000Y-40650000D03*
%TD*%
D25*
%TO.P,C8,1*%
%TO.N,+5V*%
X49850000Y-44325000D03*
%TO.P,C8,2*%
%TO.N,GND*%
X49850000Y-47450000D03*
%TD*%
D26*
%TO.P,FB1,1*%
%TO.N,+12V*%
X28420000Y-47745000D03*
%TO.P,FB1,2*%
%TO.N,Net-(U1-VIN)*%
X28420000Y-51070000D03*
%TD*%
D27*
%TO.P,C1,1*%
%TO.N,Net-(U1-VIN)*%
X39975000Y-47100000D03*
%TO.P,C1,2*%
%TO.N,GND*%
X43100000Y-47100000D03*
%TD*%
D18*
%TO.P,J5,1,Pin_1_1*%
%TO.N,GND*%
X53290000Y-29770000D03*
D19*
%TO.P,J5,2,Pin_2_2*%
%TO.N,/din_1/DIGITAL_IN1*%
X53290000Y-27270000D03*
%TO.P,J5,3,Pin_3_3*%
%TO.N,/din_2/DIGITAL_IN2*%
X53290000Y-24770000D03*
%TO.P,J5,4,Pin_4_4*%
%TO.N,VCC*%
X53290000Y-22270000D03*
%TD*%
D28*
%TO.P,U1,1,CB_1*%
%TO.N,Net-(U1-CB)*%
X35300000Y-46700000D03*
%TO.P,U1,2,GND_2*%
%TO.N,GND*%
X35300000Y-47650000D03*
%TO.P,U1,3,FB_3*%
%TO.N,Net-(U1-FB)*%
X35300000Y-48600000D03*
%TO.P,U1,4,~{SHDN}_4*%
%TO.N,unconnected-(U1-~{SHDN}-Pad4)*%
X37575000Y-48600000D03*
%TO.P,U1,5,VIN_5*%
%TO.N,Net-(U1-VIN)*%
X37575000Y-47650000D03*
%TO.P,U1,6,SW_6*%
%TO.N,Net-(D7-K)*%
X37575000Y-46700000D03*
%TD*%
D29*
%TO.N,GND*%
X37100000Y-34000000D03*
X38400000Y-33000000D03*
X39800000Y-32950000D03*
X47600000Y-54500000D03*
X44900000Y-55900000D03*
X34300000Y-55500000D03*
X37700000Y-56000000D03*
X35950000Y-52500000D03*
X31930000Y-51970000D03*
X33250000Y-50650000D03*
X30800000Y-50000000D03*
X28350000Y-49200000D03*
X25850000Y-48650000D03*
X24150000Y-40650000D03*
X24150000Y-37200000D03*
X24250000Y-32250000D03*
X29000000Y-35200000D03*
X30622703Y-37927297D03*
X29000000Y-36950000D03*
X56300000Y-42350000D03*
X56200000Y-43400000D03*
X47325000Y-27175000D03*
X48050000Y-27900000D03*
X48500000Y-29300000D03*
X51000000Y-31300000D03*
X52900000Y-32250000D03*
X47300000Y-45350000D03*
X47050000Y-43050000D03*
X47375000Y-42350000D03*
X37900000Y-52450000D03*
X33850000Y-52400000D03*
X39375000Y-39925000D03*
X34050000Y-47900000D03*
X37400000Y-51950000D03*
X37350000Y-50750000D03*
X41350000Y-55600000D03*
X40550000Y-56550000D03*
X44750000Y-48950000D03*
X35550000Y-42950000D03*
X42125000Y-33525000D03*
X41750000Y-33000000D03*
X42650000Y-34050000D03*
X36257220Y-24487220D03*
X48500000Y-21100000D03*
X55671661Y-28671661D03*
X55742157Y-28100000D03*
X55742157Y-27400000D03*
X55742157Y-26800000D03*
X55742157Y-26250000D03*
X41750000Y-29200000D03*
X43350000Y-26850000D03*
%TO.N,Net-(U1-FB)*%
X35350000Y-48850000D03*
%TO.N,+3V3*%
X41200000Y-46700000D03*
X38800000Y-42800000D03*
%TO.N,+5V*%
X47700000Y-48000000D03*
X48200000Y-48400000D03*
%TO.N,GP17*%
X47400000Y-36950000D03*
X51000000Y-39000000D03*
%TO.N,/din_1/DIGITAL_IN1*%
X44700000Y-25450000D03*
X50800000Y-32450000D03*
%TO.N,GP19*%
X44100000Y-43000000D03*
X50750000Y-35200000D03*
X51750000Y-37300000D03*
%TO.N,GP28*%
X51050000Y-30200000D03*
X48550000Y-31450000D03*
%TO.N,Net-(D6-K)*%
X45450000Y-36100000D03*
X47650000Y-35150000D03*
%TO.N,GP27*%
X34250000Y-31350000D03*
%TO.N,Net-(J4-Pin_2)*%
X45450000Y-42900000D03*
X36000000Y-32850000D03*
X33750000Y-32150000D03*
%TO.N,Net-(Q1-D)*%
X50000000Y-24850000D03*
%TO.N,/din_2/DIGITAL_IN2*%
X51200000Y-28600000D03*
%TO.N,GP26*%
X55100000Y-23050000D03*
X56300000Y-30200000D03*
%TO.N,Net-(D1-A)*%
X30350000Y-40650000D03*
%TO.N,Net-(D7-K)*%
X43050000Y-41850000D03*
X38100000Y-44800000D03*
%TO.N,+3.3VADC*%
X53900000Y-31700000D03*
%TO.N,GP17*%
X42050000Y-37950000D03*
%TO.N,GP28*%
X53349002Y-31120000D03*
%TD*%
%TO.N,GND*%
D30*
X33250000Y-50650000D02*
X31930000Y-51970000D01*
%TO.N,+5V*%
X46425000Y-24350000D02*
X50450000Y-28375000D01*
X50889339Y-29350000D02*
X51425000Y-29350000D01*
X50450000Y-28375000D02*
X50450000Y-28910661D01*
X50450000Y-28910661D02*
X50889339Y-29350000D01*
X51425000Y-29350000D02*
X51850000Y-29775000D01*
X51850000Y-29775000D02*
X51850000Y-35287106D01*
X51850000Y-35287106D02*
X52092894Y-35530000D01*
X52092894Y-35530000D02*
X52800000Y-35530000D01*
%TO.N,GP28*%
D31*
X53349002Y-31120000D02*
X53369002Y-31100000D01*
X53369002Y-31100000D02*
X55184314Y-31100000D01*
X55184314Y-31100000D02*
X55500000Y-31415686D01*
X55300000Y-31215685D02*
X55500000Y-31415686D01*
X55500000Y-31415686D02*
X55500000Y-32931370D01*
X55500000Y-32931370D02*
X56050000Y-33481371D01*
X56050000Y-33481371D02*
X56050000Y-39950000D01*
X56050000Y-39950000D02*
X55390000Y-40610000D01*
X55390000Y-40610000D02*
X54070000Y-40610000D01*
%TO.N,GND*%
D32*
X56200000Y-43400000D02*
X56200000Y-42450000D01*
X56200000Y-42450000D02*
X56300000Y-42350000D01*
X56200000Y-43400000D02*
X55170000Y-44430000D01*
X55170000Y-44430000D02*
X55170000Y-46790000D01*
X55170000Y-46790000D02*
X54510000Y-47450000D01*
X54510000Y-47450000D02*
X49850000Y-47450000D01*
X47325000Y-27175000D02*
X47000000Y-26850000D01*
X48050000Y-27900000D02*
X47325000Y-27175000D01*
X48450000Y-30150000D02*
X48450000Y-28300000D01*
X48450000Y-28300000D02*
X48050000Y-27900000D01*
X46900000Y-31700000D02*
X48450000Y-30150000D01*
X51000000Y-31300000D02*
X49972793Y-31300000D01*
X47950000Y-32750000D02*
X46900000Y-31700000D01*
X49972793Y-31300000D02*
X48522793Y-32750000D01*
X48522793Y-32750000D02*
X47950000Y-32750000D01*
X47000000Y-26850000D02*
X46425000Y-26850000D01*
%TO.N,/din_1/DIGITAL_IN1*%
D30*
X50800000Y-32450000D02*
X49400000Y-33850000D01*
X49400000Y-33850000D02*
X47250000Y-33850000D01*
X47250000Y-33850000D02*
X44700000Y-31300000D01*
X44700000Y-31300000D02*
X44700000Y-25450000D01*
%TO.N,GND*%
D32*
X52800000Y-32350000D02*
X52900000Y-32250000D01*
X52800000Y-34260000D02*
X52800000Y-32350000D01*
D33*
X47450000Y-44337500D02*
X47450000Y-44876598D01*
X47450000Y-44876598D02*
X47138299Y-45188299D01*
D32*
X43100000Y-47100000D02*
X47350000Y-42850000D01*
X47350000Y-42850000D02*
X47350000Y-42350000D01*
D33*
X44050000Y-47100000D02*
X46812500Y-44337500D01*
X46812500Y-44337500D02*
X47450000Y-44337500D01*
X49850000Y-47450000D02*
X49850000Y-48340991D01*
X49850000Y-48340991D02*
X48665991Y-49525000D01*
X48665991Y-49525000D02*
X45325000Y-49525000D01*
X45325000Y-49525000D02*
X44750000Y-48950000D01*
X39375000Y-39925000D02*
X39375000Y-36275000D01*
X39375000Y-36275000D02*
X42125000Y-33525000D01*
D30*
X34050000Y-47900000D02*
X34050000Y-44450000D01*
X34050000Y-44450000D02*
X35550000Y-42950000D01*
%TO.N,+12V*%
D33*
X32550000Y-43075000D02*
X32800000Y-43325000D01*
X32800000Y-43325000D02*
X32800000Y-46800000D01*
X32800000Y-46800000D02*
X31930000Y-47670000D01*
%TO.N,GND*%
D30*
X34050000Y-47900000D02*
X33900000Y-48050000D01*
D33*
X37000000Y-52450000D02*
X37600000Y-51850000D01*
X35750000Y-52450000D02*
X37000000Y-52450000D01*
X37600000Y-51850000D02*
X37350000Y-51600000D01*
X37350000Y-51600000D02*
X37350000Y-50750000D01*
X35750000Y-52450000D02*
X32410000Y-52450000D01*
X32410000Y-52450000D02*
X31930000Y-51970000D01*
D30*
X35300000Y-47650000D02*
X34300000Y-47650000D01*
X33900000Y-50000000D02*
X33250000Y-50650000D01*
X34300000Y-47650000D02*
X34050000Y-47900000D01*
X33900000Y-48050000D02*
X33900000Y-50000000D01*
D33*
X44750000Y-52350000D02*
X40550000Y-56550000D01*
X44750000Y-48950000D02*
X44750000Y-52350000D01*
X44050000Y-47100000D02*
X44750000Y-47800000D01*
X44750000Y-47800000D02*
X44750000Y-48950000D01*
X43100000Y-47100000D02*
X44050000Y-47100000D01*
D34*
X42125000Y-33525000D02*
X42650000Y-34050000D01*
X41750000Y-33150000D02*
X42125000Y-33525000D01*
X41750000Y-33000000D02*
X41750000Y-33150000D01*
X41750000Y-29200000D02*
X41750000Y-33000000D01*
D32*
X48500000Y-21100000D02*
X38612579Y-21100000D01*
X38612579Y-21100000D02*
X36257220Y-23455359D01*
X36257220Y-23455359D02*
X36257220Y-24487220D01*
X55671661Y-28671661D02*
X55742157Y-28601166D01*
X55742157Y-28100000D02*
X55742157Y-27400000D01*
X55742157Y-27400000D02*
X55742157Y-26800000D01*
X55742157Y-26800000D02*
X55742157Y-26250000D01*
X55742157Y-28601166D02*
X55742157Y-28100000D01*
X55517157Y-28826166D02*
X55671661Y-28671661D01*
D33*
X54573323Y-29770000D02*
X55517157Y-28826166D01*
X53290000Y-29770000D02*
X54573323Y-29770000D01*
D34*
X43350000Y-27600000D02*
X41750000Y-29200000D01*
X43350000Y-26850000D02*
X43350000Y-27600000D01*
X43350000Y-26850000D02*
X39580000Y-26850000D01*
X39580000Y-26850000D02*
X39570000Y-26840000D01*
%TO.N,+12V*%
D33*
X28420000Y-47745000D02*
X31855000Y-47745000D01*
X31855000Y-47745000D02*
X31930000Y-47670000D01*
X32650000Y-40650000D02*
X32650000Y-42975000D01*
X32650000Y-42975000D02*
X32550000Y-43075000D01*
X32650000Y-34350000D02*
X32650000Y-40650000D01*
X25695000Y-29360000D02*
X30685000Y-34350000D01*
X30685000Y-34350000D02*
X32650000Y-34350000D01*
X25695000Y-29360000D02*
X25676192Y-29360000D01*
X25676192Y-29360000D02*
X23870000Y-27553808D01*
X23870000Y-27553808D02*
X23870000Y-26166192D01*
X23870000Y-26166192D02*
X24851192Y-25185000D01*
X24851192Y-25185000D02*
X27435000Y-25185000D01*
X27435000Y-25185000D02*
X31600000Y-29350000D01*
X31600000Y-29350000D02*
X32600000Y-29350000D01*
%TO.N,+3V3*%
D30*
X41200000Y-46700000D02*
X41200000Y-45200000D01*
X41200000Y-45200000D02*
X38800000Y-42800000D01*
%TO.N,+5V*%
X48200000Y-48400000D02*
X48200000Y-48212500D01*
X48200000Y-48212500D02*
X47450000Y-47462500D01*
D33*
X49850000Y-44325000D02*
X49850000Y-40425000D01*
X49850000Y-40425000D02*
X49125000Y-39700000D01*
%TO.N,GP17*%
D31*
X47400000Y-36950000D02*
X46550000Y-36950000D01*
X46550000Y-36950000D02*
X46450000Y-36850000D01*
X51050000Y-38950000D02*
X51000000Y-39000000D01*
X51350000Y-38950000D02*
X51050000Y-38950000D01*
X51350000Y-41250000D02*
X51350000Y-38950000D01*
X51780000Y-41680000D02*
X51350000Y-41250000D01*
X51780000Y-43400000D02*
X51780000Y-41680000D01*
X52800000Y-44420000D02*
X51780000Y-43400000D01*
%TO.N,+5V*%
D33*
X49850000Y-44325000D02*
X49850000Y-44527208D01*
X49850000Y-44527208D02*
X47450000Y-46927208D01*
X47450000Y-46927208D02*
X47450000Y-47462500D01*
%TO.N,GP19*%
D31*
X44100000Y-42900000D02*
X44100000Y-43000000D01*
X42550000Y-42650000D02*
X43850000Y-42650000D01*
X41300000Y-41400000D02*
X42550000Y-42650000D01*
X44650000Y-34400000D02*
X41300000Y-37750000D01*
X41300000Y-37750000D02*
X41300000Y-41400000D01*
X49950000Y-34400000D02*
X44650000Y-34400000D01*
X43850000Y-42650000D02*
X44100000Y-42900000D01*
X50750000Y-35200000D02*
X49950000Y-34400000D01*
X51750000Y-40830000D02*
X51750000Y-37300000D01*
X52800000Y-41880000D02*
X51750000Y-40830000D01*
%TO.N,GP17*%
X42050000Y-37950000D02*
X43150000Y-36850000D01*
X43150000Y-36850000D02*
X46450000Y-36850000D01*
%TO.N,GP28*%
X49800000Y-30200000D02*
X48550000Y-31450000D01*
X51050000Y-30200000D02*
X49800000Y-30200000D01*
%TO.N,+3.3VADC*%
D30*
X55020000Y-34653503D02*
X55020000Y-33866497D01*
X53900000Y-33310000D02*
X53900000Y-31700000D01*
X54800000Y-34873503D02*
X55020000Y-34653503D01*
X54800000Y-35507106D02*
X54800000Y-34873503D01*
X54777106Y-35530000D02*
X54800000Y-35507106D01*
X54463503Y-33310000D02*
X53900000Y-33310000D01*
X55020000Y-33866497D02*
X54463503Y-33310000D01*
X54070000Y-35530000D02*
X54777106Y-35530000D01*
%TO.N,Net-(D6-K)*%
X46700000Y-36100000D02*
X45450000Y-36100000D01*
X47650000Y-35150000D02*
X46700000Y-36100000D01*
%TO.N,GP27*%
D31*
X34250000Y-26550000D02*
X35100000Y-25700000D01*
X55700000Y-29951471D02*
X56159314Y-29492157D01*
X54720000Y-41880000D02*
X55150000Y-41450000D01*
X55700000Y-31050000D02*
X55700000Y-29951471D01*
X36100000Y-19850000D02*
X35100000Y-20850000D01*
X54070000Y-41880000D02*
X54720000Y-41880000D01*
X54565000Y-21793654D02*
X53721346Y-20950000D01*
X56450000Y-40204314D02*
X56450000Y-33315686D01*
X52050000Y-20350000D02*
X47350000Y-20350000D01*
X54455673Y-23254202D02*
X54455673Y-22855673D01*
X56450000Y-33315686D02*
X55900000Y-32765685D01*
X55900000Y-32765685D02*
X55900000Y-31250000D01*
X55900000Y-31250000D02*
X55700000Y-31050000D01*
X46850000Y-19850000D02*
X36100000Y-19850000D01*
X35100000Y-20850000D02*
X35100000Y-25700000D01*
X56442157Y-29492157D02*
X56442157Y-23507843D01*
X56159314Y-29492157D02*
X56442157Y-29492157D01*
X54565000Y-22746346D02*
X54565000Y-21793654D01*
X56442157Y-23507843D02*
X56300000Y-23650000D01*
X53721346Y-20950000D02*
X52650000Y-20950000D01*
X54455673Y-22855673D02*
X54565000Y-22746346D01*
X56300000Y-23650000D02*
X54851471Y-23650000D01*
X54851471Y-23650000D02*
X54455673Y-23254202D01*
X55150000Y-41450000D02*
X55204314Y-41450000D01*
X47350000Y-20350000D02*
X46850000Y-19850000D01*
X55204314Y-41450000D02*
X56450000Y-40204314D01*
X52650000Y-20950000D02*
X52050000Y-20350000D01*
%TO.N,GP26*%
X56300000Y-30200000D02*
X56300000Y-32600000D01*
X56300000Y-32600000D02*
X56850000Y-33150000D01*
X56850000Y-33150000D02*
X56850000Y-40370000D01*
X56850000Y-40370000D02*
X54070000Y-43150000D01*
%TO.N,Net-(J4-Pin_2)*%
D30*
X45400000Y-42900000D02*
X45450000Y-42900000D01*
X42350000Y-43750000D02*
X44500000Y-43750000D01*
X41600000Y-43000000D02*
X42350000Y-43750000D01*
X36000000Y-32850000D02*
X36000000Y-38600000D01*
X36000000Y-38600000D02*
X40400000Y-43000000D01*
X44500000Y-43750000D02*
X45150000Y-43100000D01*
X45200000Y-43100000D02*
X45400000Y-42900000D01*
X40400000Y-43000000D02*
X41600000Y-43000000D01*
X45150000Y-43100000D02*
X45200000Y-43100000D01*
X30985000Y-32150000D02*
X33750000Y-32150000D01*
X25695000Y-26860000D02*
X30985000Y-32150000D01*
%TO.N,Net-(Q1-D)*%
X35000000Y-26946522D02*
X35000000Y-40600000D01*
X35000000Y-40600000D02*
X34950000Y-40650000D01*
X50000000Y-24850000D02*
X48190000Y-23040000D01*
X48190000Y-23040000D02*
X38906522Y-23040000D01*
X38906522Y-23040000D02*
X35000000Y-26946522D01*
%TO.N,/din_2/DIGITAL_IN2*%
X51200000Y-28600000D02*
X51200000Y-26860000D01*
X51200000Y-26860000D02*
X53290000Y-24770000D01*
%TO.N,GP26*%
D31*
X56750000Y-23050000D02*
X56900000Y-23200000D01*
X56900000Y-29600000D02*
X56300000Y-30200000D01*
X56900000Y-23200000D02*
X56900000Y-29600000D01*
X55100000Y-23050000D02*
X56750000Y-23050000D01*
%TO.N,Net-(D1-A)*%
D30*
X30650000Y-43075000D02*
X30650000Y-40950000D01*
X30650000Y-40950000D02*
X30350000Y-40650000D01*
%TO.N,Net-(D7-K)*%
X44975000Y-39925000D02*
X43050000Y-41850000D01*
X44975000Y-39700000D02*
X44975000Y-39925000D01*
X37550000Y-44900000D02*
X38000000Y-44900000D01*
X38100000Y-44800000D02*
X38000000Y-44900000D01*
%TO.N,Net-(U1-VIN)*%
X28420000Y-51070000D02*
X28420000Y-51682500D01*
X28420000Y-51682500D02*
X30637500Y-53900000D01*
X40950000Y-53900000D02*
X41700000Y-53150000D01*
X30637500Y-53900000D02*
X40950000Y-53900000D01*
X41700000Y-53150000D02*
X41700000Y-48825000D01*
X41700000Y-48825000D02*
X39975000Y-47100000D01*
X37550000Y-42950000D02*
X39975000Y-45375000D01*
X39975000Y-45375000D02*
X39975000Y-47100000D01*
%TO.N,Net-(U1-CB)*%
X35550000Y-44900000D02*
X35550000Y-46450000D01*
X35550000Y-46450000D02*
X35300000Y-46700000D01*
%TO.N,Net-(D7-K)*%
X36462500Y-49002684D02*
X36959816Y-49500000D01*
X36462500Y-47247316D02*
X36462500Y-49002684D01*
X37009816Y-46700000D02*
X36462500Y-47247316D01*
X36959816Y-49500000D02*
X38550000Y-49500000D01*
X37575000Y-46700000D02*
X37009816Y-46700000D01*
X38550000Y-49500000D02*
X38550000Y-51250000D01*
X38550000Y-51250000D02*
X39750000Y-52450000D01*
X37575000Y-46700000D02*
X37575000Y-44925000D01*
X37575000Y-44925000D02*
X37550000Y-44900000D01*
%TO.N,Net-(U1-VIN)*%
X37575000Y-47650000D02*
X39425000Y-47650000D01*
X39425000Y-47650000D02*
X39975000Y-47100000D01*
%TO.N,+5V*%
X49125000Y-39700000D02*
X49125000Y-38325000D01*
X49125000Y-38325000D02*
X51920000Y-35530000D01*
X51920000Y-35530000D02*
X52800000Y-35530000D01*
X39570000Y-24340000D02*
X46415000Y-24340000D01*
X46415000Y-24340000D02*
X46425000Y-24350000D01*
%TO.N,GND*%
X52599002Y-30460998D02*
X53290000Y-29770000D01*
X52599002Y-31949002D02*
X52599002Y-30460998D01*
X52900000Y-32250000D02*
X52599002Y-31949002D01*
%TO.N,GP27*%
D31*
X34250000Y-31350000D02*
X34250000Y-26550000D01*
%TD*%
%TA.AperFunction,Conductor*%
%TO.N,GND*%
G36*
X46887273Y-37570185D02*
G01*
X46889125Y-37571398D01*
X47020814Y-37659390D01*
X47020827Y-37659397D01*
X47107243Y-37695191D01*
X47166503Y-37719737D01*
X47321153Y-37750499D01*
X47321156Y-37750500D01*
X47321158Y-37750500D01*
X47325500Y-37750500D01*
X47392539Y-37770185D01*
X47438294Y-37822989D01*
X47449500Y-37874500D01*
X47449500Y-42297870D01*
X47449501Y-42297876D01*
X47455908Y-42357483D01*
X47506202Y-42492328D01*
X47506206Y-42492335D01*
X47592452Y-42607544D01*
X47592455Y-42607547D01*
X47707664Y-42693793D01*
X47707671Y-42693797D01*
X47842517Y-42744091D01*
X47842516Y-42744091D01*
X47849444Y-42744835D01*
X47902127Y-42750500D01*
X48600500Y-42750499D01*
X48667539Y-42770183D01*
X48713294Y-42822987D01*
X48724500Y-42874499D01*
X48724500Y-43275270D01*
X48704815Y-43342309D01*
X48688181Y-43362951D01*
X48607289Y-43443842D01*
X48515187Y-43593163D01*
X48515185Y-43593168D01*
X48502389Y-43631785D01*
X48460001Y-43759703D01*
X48460001Y-43759704D01*
X48460000Y-43759704D01*
X48449500Y-43862483D01*
X48449500Y-44284647D01*
X48429815Y-44351686D01*
X48413181Y-44372328D01*
X46716786Y-46068725D01*
X46591519Y-46193991D01*
X46591514Y-46193997D01*
X46487384Y-46337320D01*
X46485543Y-46340934D01*
X46440159Y-46390169D01*
X46331347Y-46457285D01*
X46331343Y-46457288D01*
X46207289Y-46581342D01*
X46115187Y-46730663D01*
X46115185Y-46730668D01*
X46099222Y-46778842D01*
X46060001Y-46897203D01*
X46060001Y-46897204D01*
X46060000Y-46897204D01*
X46049500Y-46999983D01*
X46049500Y-47925001D01*
X46049501Y-47925019D01*
X46060000Y-48027796D01*
X46060001Y-48027799D01*
X46080933Y-48090966D01*
X46115186Y-48194334D01*
X46207288Y-48343656D01*
X46331344Y-48467712D01*
X46480666Y-48559814D01*
X46647203Y-48614999D01*
X46749991Y-48625500D01*
X47157648Y-48625499D01*
X47224687Y-48645183D01*
X47226539Y-48646397D01*
X47320814Y-48709390D01*
X47320826Y-48709397D01*
X47419248Y-48750163D01*
X47456352Y-48765532D01*
X47510756Y-48809372D01*
X47512002Y-48811202D01*
X47578210Y-48910288D01*
X47578213Y-48910292D01*
X47689707Y-49021786D01*
X47689711Y-49021789D01*
X47820814Y-49109390D01*
X47820827Y-49109397D01*
X47945098Y-49160871D01*
X47966503Y-49169737D01*
X48054441Y-49187229D01*
X48121153Y-49200499D01*
X48121156Y-49200500D01*
X48121158Y-49200500D01*
X48278844Y-49200500D01*
X48278845Y-49200499D01*
X48433497Y-49169737D01*
X48579179Y-49109394D01*
X48710289Y-49021789D01*
X48821789Y-48910289D01*
X48909394Y-48779179D01*
X48969737Y-48633497D01*
X49000500Y-48478842D01*
X49000500Y-48321158D01*
X49000500Y-48321155D01*
X49000499Y-48321153D01*
X48975272Y-48194331D01*
X48969737Y-48166503D01*
X48966008Y-48157501D01*
X48948084Y-48114227D01*
X48941028Y-48090966D01*
X48928463Y-48027797D01*
X48921658Y-47993587D01*
X48896116Y-47931923D01*
X48862753Y-47851376D01*
X48863613Y-47851019D01*
X48850499Y-47798657D01*
X48850499Y-47169768D01*
X48870184Y-47102729D01*
X48886818Y-47082087D01*
X50444587Y-45524318D01*
X50505910Y-45490833D01*
X50532268Y-45487999D01*
X50550002Y-45487999D01*
X50550008Y-45487999D01*
X50652797Y-45477499D01*
X50819334Y-45422314D01*
X50968656Y-45330212D01*
X51092712Y-45206156D01*
X51184814Y-45056834D01*
X51239999Y-44890297D01*
X51250500Y-44787509D01*
X51250499Y-44019095D01*
X51270183Y-43952057D01*
X51322987Y-43906302D01*
X51392146Y-43896358D01*
X51455702Y-43925383D01*
X51462180Y-43931415D01*
X51763181Y-44232416D01*
X51796666Y-44293739D01*
X51799500Y-44320097D01*
X51799500Y-44321459D01*
X51799500Y-44518541D01*
X51799500Y-44518543D01*
X51799499Y-44518543D01*
X51837947Y-44711829D01*
X51837950Y-44711839D01*
X51913366Y-44893910D01*
X51913368Y-44893914D01*
X51949285Y-44947668D01*
X51974971Y-44986110D01*
X51995848Y-45052787D01*
X51977363Y-45120167D01*
X51974971Y-45123890D01*
X51913366Y-45216089D01*
X51837950Y-45398160D01*
X51837947Y-45398170D01*
X51799500Y-45591456D01*
X51799500Y-45591459D01*
X51799500Y-45788541D01*
X51799500Y-45788543D01*
X51799499Y-45788543D01*
X51837947Y-45981829D01*
X51837950Y-45981839D01*
X51913364Y-46163907D01*
X51913371Y-46163920D01*
X52022860Y-46327781D01*
X52022863Y-46327785D01*
X52162214Y-46467136D01*
X52162218Y-46467139D01*
X52326079Y-46576628D01*
X52326092Y-46576635D01*
X52485109Y-46642501D01*
X52508165Y-46652051D01*
X52508169Y-46652051D01*
X52508170Y-46652052D01*
X52701456Y-46690500D01*
X52701459Y-46690500D01*
X52898543Y-46690500D01*
X53028582Y-46664632D01*
X53091835Y-46652051D01*
X53194126Y-46609680D01*
X53263590Y-46602212D01*
X53315886Y-46624975D01*
X53325339Y-46632052D01*
X53327668Y-46633795D01*
X53327671Y-46633797D01*
X53462517Y-46684091D01*
X53462516Y-46684091D01*
X53469444Y-46684835D01*
X53522127Y-46690500D01*
X54617872Y-46690499D01*
X54677483Y-46684091D01*
X54812331Y-46633796D01*
X54927546Y-46547546D01*
X55013796Y-46432331D01*
X55064091Y-46297483D01*
X55070500Y-46237873D01*
X55070499Y-45142128D01*
X55064091Y-45082517D01*
X55064090Y-45082515D01*
X55013797Y-44947671D01*
X55013795Y-44947668D01*
X55004976Y-44935887D01*
X54980558Y-44870423D01*
X54989679Y-44814128D01*
X55032051Y-44711835D01*
X55070500Y-44518541D01*
X55070500Y-44321459D01*
X55070500Y-44321456D01*
X55032052Y-44128170D01*
X55032051Y-44128169D01*
X55032051Y-44128165D01*
X55009708Y-44074223D01*
X54956635Y-43946092D01*
X54956633Y-43946088D01*
X54956632Y-43946086D01*
X54895029Y-43853891D01*
X54874151Y-43787214D01*
X54892635Y-43719834D01*
X54895029Y-43716109D01*
X54919673Y-43679227D01*
X54956632Y-43623914D01*
X55032051Y-43441835D01*
X55052595Y-43338556D01*
X55070500Y-43248543D01*
X55070500Y-43050096D01*
X55090185Y-42983057D01*
X55106819Y-42962415D01*
X56110693Y-41958541D01*
X56931106Y-41138127D01*
X56992428Y-41104644D01*
X57062120Y-41109628D01*
X57118053Y-41151500D01*
X57142470Y-41216964D01*
X57142505Y-41234148D01*
X57120408Y-41562022D01*
X57119870Y-41567916D01*
X57026378Y-42377128D01*
X57025558Y-42382988D01*
X56893574Y-43186764D01*
X56892476Y-43192580D01*
X56722287Y-43989164D01*
X56720913Y-43994920D01*
X56512911Y-44782475D01*
X56511264Y-44788159D01*
X56265919Y-45564906D01*
X56264002Y-45570505D01*
X55981886Y-46334634D01*
X55979705Y-46340135D01*
X55661439Y-47089965D01*
X55658997Y-47095356D01*
X55305328Y-47829126D01*
X55302632Y-47834394D01*
X54914359Y-48550450D01*
X54911415Y-48555584D01*
X54489405Y-49252321D01*
X54486219Y-49257308D01*
X54031464Y-49933092D01*
X54028044Y-49937922D01*
X53541547Y-50591260D01*
X53537900Y-50595921D01*
X53020790Y-51225299D01*
X53016925Y-51229780D01*
X52470387Y-51833754D01*
X52466313Y-51838046D01*
X51891565Y-52415272D01*
X51887290Y-52419365D01*
X51285664Y-52968504D01*
X51281212Y-52972377D01*
X50654063Y-53492192D01*
X50649418Y-53495858D01*
X49998183Y-53985157D01*
X49993368Y-53988598D01*
X49319535Y-54446264D01*
X49314562Y-54449471D01*
X48619669Y-54874461D01*
X48614548Y-54877428D01*
X47900136Y-55268796D01*
X47894879Y-55271514D01*
X47162653Y-55628330D01*
X47157273Y-55630795D01*
X46408823Y-55952282D01*
X46403331Y-55954487D01*
X45640417Y-56239889D01*
X45634826Y-56241830D01*
X44859159Y-56490508D01*
X44853482Y-56492180D01*
X44066813Y-56703572D01*
X44061063Y-56704971D01*
X43265225Y-56878584D01*
X43259415Y-56879707D01*
X42456179Y-57015154D01*
X42450321Y-57015998D01*
X41641563Y-57112965D01*
X41635672Y-57113529D01*
X40823212Y-57171797D01*
X40817301Y-57172080D01*
X40002959Y-57191518D01*
X39997041Y-57191518D01*
X39182698Y-57172080D01*
X39176787Y-57171797D01*
X38364327Y-57113529D01*
X38358436Y-57112965D01*
X37549678Y-57015998D01*
X37543820Y-57015154D01*
X36740584Y-56879707D01*
X36734774Y-56878584D01*
X35938936Y-56704971D01*
X35933186Y-56703572D01*
X35146517Y-56492180D01*
X35140840Y-56490508D01*
X34365173Y-56241830D01*
X34359582Y-56239889D01*
X33596668Y-55954487D01*
X33591176Y-55952282D01*
X32842726Y-55630795D01*
X32837346Y-55628330D01*
X32105120Y-55271514D01*
X32099863Y-55268796D01*
X31396081Y-54883251D01*
X31346744Y-54833778D01*
X31331985Y-54765485D01*
X31356492Y-54700054D01*
X31412482Y-54658259D01*
X31455657Y-54650500D01*
X41023920Y-54650500D01*
X41121462Y-54631096D01*
X41168913Y-54621658D01*
X41305495Y-54565084D01*
X41354729Y-54532186D01*
X41428416Y-54482952D01*
X42282951Y-53628416D01*
X42365084Y-53505495D01*
X42421658Y-53368913D01*
X42450500Y-53223918D01*
X42450500Y-53076083D01*
X42450500Y-48751082D01*
X42450500Y-48751079D01*
X42421659Y-48606092D01*
X42421658Y-48606091D01*
X42421658Y-48606087D01*
X42402491Y-48559814D01*
X42365087Y-48469511D01*
X42365080Y-48469498D01*
X42282952Y-48346585D01*
X42257520Y-48321153D01*
X42178416Y-48242049D01*
X41545290Y-47608922D01*
X41511806Y-47547601D01*
X41516790Y-47477909D01*
X41558662Y-47421976D01*
X41574525Y-47411881D01*
X41579172Y-47409396D01*
X41579179Y-47409394D01*
X41710289Y-47321789D01*
X41821789Y-47210289D01*
X41909394Y-47079179D01*
X41969737Y-46933497D01*
X42000500Y-46778842D01*
X42000500Y-46621158D01*
X42000500Y-46621155D01*
X42000499Y-46621153D01*
X41969739Y-46466511D01*
X41969738Y-46466508D01*
X41969737Y-46466503D01*
X41959937Y-46442844D01*
X41950500Y-46395396D01*
X41950500Y-45126081D01*
X41941834Y-45082518D01*
X41941834Y-45082517D01*
X41921659Y-44981088D01*
X41877267Y-44873918D01*
X41865084Y-44844505D01*
X41799402Y-44746204D01*
X41782952Y-44721585D01*
X41782950Y-44721582D01*
X41782949Y-44721581D01*
X41023548Y-43962181D01*
X40990063Y-43900858D01*
X40995047Y-43831167D01*
X41036919Y-43775233D01*
X41102383Y-43750816D01*
X41111229Y-43750500D01*
X41237770Y-43750500D01*
X41304809Y-43770185D01*
X41325451Y-43786819D01*
X41871580Y-44332948D01*
X41871584Y-44332951D01*
X41994498Y-44415080D01*
X41994511Y-44415087D01*
X42131082Y-44471656D01*
X42131087Y-44471658D01*
X42131091Y-44471658D01*
X42131092Y-44471659D01*
X42276079Y-44500500D01*
X42276082Y-44500500D01*
X44573920Y-44500500D01*
X44671462Y-44481096D01*
X44718913Y-44471658D01*
X44855495Y-44415084D01*
X44904729Y-44382186D01*
X44978416Y-44332952D01*
X45522701Y-43788665D01*
X45551936Y-43766985D01*
X45555479Y-43765090D01*
X45555495Y-43765084D01*
X45610705Y-43728194D01*
X45678416Y-43682952D01*
X45679939Y-43681428D01*
X45681730Y-43680231D01*
X45683120Y-43679091D01*
X45683232Y-43679227D01*
X45720167Y-43654547D01*
X45829179Y-43609394D01*
X45960289Y-43521789D01*
X46071789Y-43410289D01*
X46159394Y-43279179D01*
X46219737Y-43133497D01*
X46250500Y-42978842D01*
X46250500Y-42832790D01*
X46270185Y-42765751D01*
X46322989Y-42719996D01*
X46331146Y-42716616D01*
X46392331Y-42693796D01*
X46507546Y-42607546D01*
X46593796Y-42492331D01*
X46644091Y-42357483D01*
X46650500Y-42297873D01*
X46650499Y-37674499D01*
X46670184Y-37607461D01*
X46722988Y-37561706D01*
X46774499Y-37550500D01*
X46820234Y-37550500D01*
X46887273Y-37570185D01*
G37*
%TD.AperFunction*%
%TA.AperFunction,Conductor*%
G36*
X23205703Y-28481654D02*
G01*
X23212181Y-28487686D01*
X24158181Y-29433686D01*
X24191666Y-29495009D01*
X24194500Y-29521367D01*
X24194500Y-30010001D01*
X24194501Y-30010019D01*
X24205000Y-30112796D01*
X24205001Y-30112799D01*
X24260185Y-30279331D01*
X24260187Y-30279336D01*
X24280713Y-30312614D01*
X24352288Y-30428656D01*
X24476344Y-30552712D01*
X24625666Y-30644814D01*
X24792203Y-30699999D01*
X24894991Y-30710500D01*
X25402440Y-30710499D01*
X25469479Y-30730183D01*
X25490121Y-30746818D01*
X29951787Y-35208485D01*
X29951789Y-35208487D01*
X30007187Y-35248735D01*
X30077060Y-35299500D01*
X30086085Y-35306057D01*
X30095108Y-35312613D01*
X30252957Y-35393042D01*
X30252960Y-35393043D01*
X30420798Y-35447576D01*
X30478473Y-35487013D01*
X30478582Y-35487146D01*
X30538891Y-35561109D01*
X30696593Y-35689698D01*
X30876951Y-35783909D01*
X31072582Y-35839886D01*
X31191963Y-35850500D01*
X31400500Y-35850499D01*
X31467539Y-35870183D01*
X31513294Y-35922987D01*
X31524500Y-35974499D01*
X31524500Y-39285608D01*
X31504815Y-39352647D01*
X31452011Y-39398402D01*
X31382853Y-39408346D01*
X31322813Y-39382256D01*
X31285978Y-39352647D01*
X31199296Y-39282970D01*
X31199293Y-39282968D01*
X31199290Y-39282966D01*
X31028697Y-39198360D01*
X30843892Y-39152400D01*
X30822506Y-39150950D01*
X30801123Y-39149500D01*
X30801120Y-39149500D01*
X29898877Y-39149500D01*
X29898874Y-39149501D01*
X29856113Y-39152399D01*
X29856112Y-39152399D01*
X29671303Y-39198360D01*
X29500707Y-39282967D01*
X29500704Y-39282969D01*
X29352278Y-39402277D01*
X29352277Y-39402278D01*
X29232969Y-39550704D01*
X29232967Y-39550707D01*
X29148360Y-39721302D01*
X29102400Y-39906107D01*
X29099500Y-39948879D01*
X29099500Y-41351122D01*
X29099501Y-41351125D01*
X29102399Y-41393886D01*
X29102399Y-41393887D01*
X29148360Y-41578696D01*
X29232967Y-41749292D01*
X29232969Y-41749295D01*
X29352277Y-41897721D01*
X29352278Y-41897722D01*
X29500704Y-42017030D01*
X29500707Y-42017032D01*
X29542621Y-42037819D01*
X29671307Y-42101641D01*
X29791835Y-42131615D01*
X29852142Y-42166898D01*
X29883801Y-42229183D01*
X29880986Y-42286545D01*
X29852401Y-42384934D01*
X29849500Y-42421798D01*
X29849500Y-43728194D01*
X29852401Y-43765067D01*
X29852402Y-43765073D01*
X29898254Y-43922893D01*
X29898255Y-43922896D01*
X29898256Y-43922898D01*
X29900143Y-43926089D01*
X29981917Y-44064362D01*
X29981923Y-44064370D01*
X30098129Y-44180576D01*
X30098133Y-44180579D01*
X30098135Y-44180581D01*
X30239602Y-44264244D01*
X30281224Y-44276336D01*
X30397426Y-44310097D01*
X30397429Y-44310097D01*
X30397431Y-44310098D01*
X30434306Y-44313000D01*
X30675500Y-44313000D01*
X30742539Y-44332685D01*
X30788294Y-44385489D01*
X30799500Y-44437000D01*
X30799500Y-45603201D01*
X30802401Y-45640067D01*
X30802402Y-45640073D01*
X30850432Y-45805390D01*
X30849100Y-45805776D01*
X30856637Y-45866824D01*
X30826350Y-45929788D01*
X30773280Y-45964437D01*
X30745806Y-45973541D01*
X30710668Y-45985185D01*
X30710663Y-45985187D01*
X30561342Y-46077289D01*
X30437289Y-46201342D01*
X30345187Y-46350663D01*
X30345185Y-46350668D01*
X30290000Y-46517204D01*
X30289088Y-46521467D01*
X30255801Y-46582898D01*
X30194586Y-46616581D01*
X30167837Y-46619500D01*
X28331417Y-46619500D01*
X28262137Y-46630473D01*
X28242739Y-46632000D01*
X27952283Y-46632000D01*
X27885244Y-46612315D01*
X27839489Y-46559511D01*
X27829545Y-46490353D01*
X27858570Y-46426797D01*
X27864588Y-46420332D01*
X27977139Y-46307782D01*
X28086632Y-46143914D01*
X28092120Y-46130666D01*
X28152378Y-45985187D01*
X28162051Y-45961835D01*
X28189394Y-45824374D01*
X28200500Y-45768543D01*
X28200500Y-45571456D01*
X28162052Y-45378170D01*
X28162051Y-45378169D01*
X28162051Y-45378165D01*
X28143925Y-45334404D01*
X28086635Y-45196092D01*
X28086633Y-45196088D01*
X28086632Y-45196086D01*
X28050575Y-45142123D01*
X28025029Y-45103891D01*
X28004151Y-45037214D01*
X28022635Y-44969834D01*
X28025029Y-44966109D01*
X28086630Y-44873918D01*
X28086635Y-44873907D01*
X28111399Y-44814121D01*
X28162051Y-44691835D01*
X28174632Y-44628582D01*
X28200500Y-44498543D01*
X28200500Y-44301456D01*
X28162052Y-44108170D01*
X28162051Y-44108169D01*
X28162051Y-44108165D01*
X28143909Y-44064365D01*
X28086635Y-43926092D01*
X28086633Y-43926088D01*
X28086632Y-43926086D01*
X28084502Y-43922898D01*
X28025029Y-43833891D01*
X28004151Y-43767214D01*
X28022635Y-43699834D01*
X28025029Y-43696109D01*
X28045889Y-43664890D01*
X28086632Y-43603914D01*
X28162051Y-43421835D01*
X28190426Y-43279185D01*
X28200500Y-43228543D01*
X28200500Y-43031456D01*
X28162052Y-42838170D01*
X28162051Y-42838169D01*
X28162051Y-42838165D01*
X28133892Y-42770183D01*
X28086635Y-42656092D01*
X28086633Y-42656088D01*
X28086632Y-42656086D01*
X28025029Y-42563891D01*
X28004151Y-42497214D01*
X28022635Y-42429834D01*
X28025029Y-42426109D01*
X28052543Y-42384931D01*
X28086632Y-42333914D01*
X28162051Y-42151835D01*
X28174632Y-42088582D01*
X28200500Y-41958543D01*
X28200500Y-41761456D01*
X28162052Y-41568170D01*
X28162051Y-41568169D01*
X28162051Y-41568165D01*
X28157038Y-41556062D01*
X28086635Y-41386092D01*
X28086633Y-41386088D01*
X28086632Y-41386086D01*
X28025029Y-41293891D01*
X28004151Y-41227214D01*
X28022635Y-41159834D01*
X28025029Y-41156109D01*
X28037872Y-41136887D01*
X28086632Y-41063914D01*
X28162051Y-40881835D01*
X28188410Y-40749322D01*
X28200500Y-40688543D01*
X28200500Y-40491456D01*
X28162052Y-40298170D01*
X28162051Y-40298169D01*
X28162051Y-40298165D01*
X28151971Y-40273830D01*
X28086635Y-40116092D01*
X28086633Y-40116088D01*
X28086632Y-40116086D01*
X28025029Y-40023891D01*
X28004151Y-39957214D01*
X28022635Y-39889834D01*
X28025029Y-39886109D01*
X28037872Y-39866887D01*
X28086632Y-39793914D01*
X28162051Y-39611835D01*
X28174632Y-39548582D01*
X28200500Y-39418543D01*
X28200500Y-39221456D01*
X28162052Y-39028170D01*
X28162051Y-39028169D01*
X28162051Y-39028165D01*
X28162049Y-39028160D01*
X28086635Y-38846092D01*
X28086633Y-38846088D01*
X28086632Y-38846086D01*
X28060823Y-38807461D01*
X28025029Y-38753891D01*
X28004151Y-38687214D01*
X28022635Y-38619834D01*
X28025029Y-38616109D01*
X28037872Y-38596887D01*
X28086632Y-38523914D01*
X28162051Y-38341835D01*
X28193547Y-38183497D01*
X28200500Y-38148543D01*
X28200500Y-37951456D01*
X28162052Y-37758170D01*
X28162051Y-37758169D01*
X28162051Y-37758165D01*
X28121839Y-37661084D01*
X28086635Y-37576092D01*
X28086633Y-37576088D01*
X28086632Y-37576086D01*
X28047962Y-37518213D01*
X28025029Y-37483891D01*
X28004151Y-37417214D01*
X28022635Y-37349834D01*
X28025029Y-37346109D01*
X28076232Y-37269478D01*
X28086632Y-37253914D01*
X28162051Y-37071835D01*
X28174632Y-37008582D01*
X28200500Y-36878543D01*
X28200500Y-36681456D01*
X28162052Y-36488170D01*
X28162051Y-36488169D01*
X28162051Y-36488165D01*
X28141979Y-36439707D01*
X28086635Y-36306092D01*
X28086633Y-36306088D01*
X28086632Y-36306086D01*
X28035144Y-36229029D01*
X28025029Y-36213891D01*
X28004151Y-36147214D01*
X28022635Y-36079834D01*
X28025029Y-36076109D01*
X28046285Y-36044297D01*
X28086632Y-35983914D01*
X28162051Y-35801835D01*
X28200500Y-35608541D01*
X28200500Y-35411459D01*
X28200500Y-35411456D01*
X28162052Y-35218170D01*
X28162051Y-35218169D01*
X28162051Y-35218165D01*
X28158042Y-35208487D01*
X28086635Y-35036092D01*
X28086633Y-35036088D01*
X28086632Y-35036086D01*
X28058586Y-34994113D01*
X28025029Y-34943891D01*
X28004151Y-34877214D01*
X28022635Y-34809834D01*
X28025029Y-34806109D01*
X28061850Y-34751002D01*
X28086632Y-34713914D01*
X28089346Y-34707363D01*
X28162049Y-34531839D01*
X28162051Y-34531835D01*
X28187181Y-34405500D01*
X28200500Y-34338543D01*
X28200500Y-34141456D01*
X28162052Y-33948170D01*
X28162051Y-33948169D01*
X28162051Y-33948165D01*
X28150170Y-33919481D01*
X28086635Y-33766092D01*
X28086628Y-33766079D01*
X27977139Y-33602218D01*
X27977136Y-33602214D01*
X27837785Y-33462863D01*
X27837781Y-33462860D01*
X27673920Y-33353371D01*
X27673907Y-33353364D01*
X27491839Y-33277950D01*
X27491829Y-33277947D01*
X27298543Y-33239500D01*
X27298541Y-33239500D01*
X27101459Y-33239500D01*
X27101457Y-33239500D01*
X26908171Y-33277947D01*
X26908168Y-33277948D01*
X26908166Y-33277948D01*
X26908165Y-33277949D01*
X26908163Y-33277950D01*
X26805874Y-33320318D01*
X26736404Y-33327785D01*
X26684113Y-33305023D01*
X26672335Y-33296206D01*
X26672328Y-33296202D01*
X26537482Y-33245908D01*
X26537483Y-33245908D01*
X26477883Y-33239501D01*
X26477881Y-33239500D01*
X26477873Y-33239500D01*
X26477864Y-33239500D01*
X25382129Y-33239500D01*
X25382123Y-33239501D01*
X25322516Y-33245908D01*
X25187671Y-33296202D01*
X25187664Y-33296206D01*
X25072455Y-33382452D01*
X25072452Y-33382455D01*
X24986206Y-33497664D01*
X24986202Y-33497671D01*
X24935908Y-33632517D01*
X24929501Y-33692116D01*
X24929500Y-33692135D01*
X24929500Y-34787870D01*
X24929501Y-34787876D01*
X24935908Y-34847483D01*
X24986202Y-34982328D01*
X24986206Y-34982335D01*
X24995023Y-34994113D01*
X25019440Y-35059578D01*
X25010318Y-35115874D01*
X24971959Y-35208485D01*
X24967948Y-35218168D01*
X24967947Y-35218171D01*
X24929500Y-35411456D01*
X24929500Y-35411459D01*
X24929500Y-35608541D01*
X24929500Y-35608543D01*
X24929499Y-35608543D01*
X24967947Y-35801829D01*
X24967950Y-35801839D01*
X25039027Y-35973435D01*
X25043368Y-35983914D01*
X25068254Y-36021158D01*
X25104971Y-36076110D01*
X25125848Y-36142787D01*
X25107363Y-36210167D01*
X25104971Y-36213890D01*
X25043366Y-36306089D01*
X24967950Y-36488160D01*
X24967947Y-36488170D01*
X24929500Y-36681456D01*
X24929500Y-36681459D01*
X24929500Y-36878541D01*
X24929500Y-36878543D01*
X24929499Y-36878543D01*
X24967947Y-37071829D01*
X24967950Y-37071839D01*
X25043365Y-37253907D01*
X25043368Y-37253914D01*
X25053768Y-37269478D01*
X25104971Y-37346110D01*
X25125848Y-37412787D01*
X25107363Y-37480167D01*
X25104971Y-37483890D01*
X25043366Y-37576089D01*
X24967950Y-37758160D01*
X24967947Y-37758170D01*
X24929500Y-37951456D01*
X24929500Y-37951459D01*
X24929500Y-38148541D01*
X24929500Y-38148543D01*
X24929499Y-38148543D01*
X24967947Y-38341829D01*
X24967950Y-38341839D01*
X25017015Y-38460292D01*
X25043368Y-38523914D01*
X25056727Y-38543907D01*
X25104971Y-38616110D01*
X25125848Y-38682787D01*
X25107363Y-38750167D01*
X25104971Y-38753890D01*
X25043366Y-38846089D01*
X24967950Y-39028160D01*
X24967947Y-39028170D01*
X24929500Y-39221456D01*
X24929500Y-39221459D01*
X24929500Y-39418541D01*
X24929500Y-39418543D01*
X24929499Y-39418543D01*
X24967947Y-39611829D01*
X24967950Y-39611839D01*
X25043365Y-39793907D01*
X25043368Y-39793914D01*
X25076408Y-39843362D01*
X25104971Y-39886110D01*
X25125848Y-39952787D01*
X25107363Y-40020167D01*
X25104971Y-40023890D01*
X25043366Y-40116089D01*
X24967950Y-40298160D01*
X24967947Y-40298170D01*
X24929500Y-40491456D01*
X24929500Y-40491459D01*
X24929500Y-40688541D01*
X24929500Y-40688543D01*
X24929499Y-40688543D01*
X24967947Y-40881829D01*
X24967950Y-40881839D01*
X25043365Y-41063907D01*
X25043368Y-41063914D01*
X25067415Y-41099903D01*
X25104971Y-41156110D01*
X25125848Y-41222787D01*
X25107363Y-41290167D01*
X25104971Y-41293890D01*
X25043366Y-41386089D01*
X24967950Y-41568160D01*
X24967947Y-41568170D01*
X24929500Y-41761456D01*
X24929500Y-41761459D01*
X24929500Y-41958541D01*
X24929500Y-41958543D01*
X24929499Y-41958543D01*
X24967947Y-42151829D01*
X24967950Y-42151839D01*
X25043365Y-42333907D01*
X25043368Y-42333914D01*
X25087352Y-42399740D01*
X25104971Y-42426110D01*
X25125848Y-42492787D01*
X25107363Y-42560167D01*
X25104971Y-42563890D01*
X25043366Y-42656089D01*
X24967950Y-42838160D01*
X24967947Y-42838170D01*
X24929500Y-43031456D01*
X24929500Y-43031459D01*
X24929500Y-43228541D01*
X24929500Y-43228543D01*
X24929499Y-43228543D01*
X24967947Y-43421829D01*
X24967950Y-43421839D01*
X25038916Y-43593166D01*
X25043368Y-43603914D01*
X25061991Y-43631785D01*
X25104971Y-43696110D01*
X25125848Y-43762787D01*
X25107363Y-43830167D01*
X25104971Y-43833890D01*
X25043366Y-43926089D01*
X24967950Y-44108160D01*
X24967947Y-44108170D01*
X24929500Y-44301456D01*
X24929500Y-44301459D01*
X24929500Y-44498541D01*
X24929500Y-44498543D01*
X24929499Y-44498543D01*
X24967947Y-44691829D01*
X24967950Y-44691839D01*
X25041922Y-44870423D01*
X25043368Y-44873914D01*
X25054315Y-44890297D01*
X25104971Y-44966110D01*
X25125848Y-45032787D01*
X25107363Y-45100167D01*
X25104971Y-45103890D01*
X25043366Y-45196089D01*
X24967950Y-45378160D01*
X24967947Y-45378170D01*
X24929500Y-45571456D01*
X24929500Y-45571459D01*
X24929500Y-45768541D01*
X24929500Y-45768543D01*
X24929499Y-45768543D01*
X24967947Y-45961829D01*
X24967950Y-45961839D01*
X25043364Y-46143907D01*
X25043371Y-46143920D01*
X25152860Y-46307781D01*
X25152863Y-46307785D01*
X25292214Y-46447136D01*
X25292218Y-46447139D01*
X25456079Y-46556628D01*
X25456092Y-46556635D01*
X25621084Y-46624976D01*
X25638165Y-46632051D01*
X25638169Y-46632051D01*
X25638170Y-46632052D01*
X25831456Y-46670500D01*
X25831459Y-46670500D01*
X26028543Y-46670500D01*
X26213077Y-46633793D01*
X26221835Y-46632051D01*
X26362655Y-46573721D01*
X26403907Y-46556635D01*
X26403907Y-46556634D01*
X26403914Y-46556632D01*
X26496109Y-46495029D01*
X26562786Y-46474151D01*
X26630166Y-46492635D01*
X26633891Y-46495029D01*
X26726086Y-46556632D01*
X26726088Y-46556633D01*
X26726092Y-46556635D01*
X26891084Y-46624976D01*
X26908165Y-46632051D01*
X27098443Y-46669900D01*
X27160354Y-46702285D01*
X27194928Y-46763000D01*
X27191189Y-46832770D01*
X27161934Y-46879197D01*
X27127289Y-46913842D01*
X27035187Y-47063163D01*
X27035185Y-47063168D01*
X27024519Y-47095356D01*
X26980001Y-47229703D01*
X26980001Y-47229704D01*
X26980000Y-47229704D01*
X26969500Y-47332483D01*
X26969500Y-48157501D01*
X26969501Y-48157519D01*
X26980000Y-48260296D01*
X26980001Y-48260299D01*
X27035185Y-48426831D01*
X27035187Y-48426836D01*
X27061509Y-48469511D01*
X27127288Y-48576156D01*
X27251344Y-48700212D01*
X27400666Y-48792314D01*
X27567203Y-48847499D01*
X27669991Y-48858000D01*
X28242739Y-48857999D01*
X28262138Y-48859526D01*
X28331421Y-48870500D01*
X30216267Y-48870500D01*
X30283306Y-48890185D01*
X30329061Y-48942989D01*
X30333972Y-48955494D01*
X30345186Y-48989334D01*
X30437288Y-49138656D01*
X30561344Y-49262712D01*
X30710666Y-49354814D01*
X30877203Y-49409999D01*
X30979991Y-49420500D01*
X32880008Y-49420499D01*
X32982797Y-49409999D01*
X33149334Y-49354814D01*
X33298656Y-49262712D01*
X33422712Y-49138656D01*
X33514814Y-48989334D01*
X33569999Y-48822797D01*
X33580500Y-48720009D01*
X33580499Y-47662560D01*
X33600183Y-47595522D01*
X33616819Y-47574879D01*
X33658481Y-47533217D01*
X33658481Y-47533216D01*
X33658484Y-47533214D01*
X33762614Y-47389890D01*
X33843042Y-47232042D01*
X33897786Y-47063556D01*
X33907805Y-47000296D01*
X33937732Y-46937167D01*
X33997043Y-46900236D01*
X34066906Y-46901232D01*
X34125139Y-46939842D01*
X34149353Y-46985103D01*
X34185754Y-47110395D01*
X34185755Y-47110396D01*
X34269417Y-47251862D01*
X34269423Y-47251870D01*
X34385629Y-47368076D01*
X34385633Y-47368079D01*
X34385635Y-47368081D01*
X34527102Y-47451744D01*
X34568724Y-47463836D01*
X34684926Y-47497597D01*
X34684929Y-47497597D01*
X34684931Y-47497598D01*
X34721806Y-47500500D01*
X35588000Y-47500500D01*
X35655039Y-47520185D01*
X35700794Y-47572989D01*
X35712000Y-47624500D01*
X35712000Y-47675500D01*
X35692315Y-47742539D01*
X35639511Y-47788294D01*
X35588000Y-47799500D01*
X34721798Y-47799500D01*
X34684932Y-47802401D01*
X34684926Y-47802402D01*
X34527106Y-47848254D01*
X34527103Y-47848255D01*
X34385637Y-47931917D01*
X34385629Y-47931923D01*
X34269423Y-48048129D01*
X34269417Y-48048137D01*
X34185755Y-48189603D01*
X34185754Y-48189606D01*
X34139902Y-48347426D01*
X34139901Y-48347432D01*
X34137000Y-48384298D01*
X34137000Y-48815701D01*
X34139901Y-48852567D01*
X34139902Y-48852573D01*
X34185754Y-49010393D01*
X34185755Y-49010396D01*
X34185756Y-49010398D01*
X34192491Y-49021786D01*
X34269417Y-49151862D01*
X34269423Y-49151870D01*
X34385629Y-49268076D01*
X34385633Y-49268079D01*
X34385635Y-49268081D01*
X34527102Y-49351744D01*
X34537662Y-49354812D01*
X34684926Y-49397597D01*
X34684929Y-49397597D01*
X34684931Y-49397598D01*
X34721806Y-49400500D01*
X34721815Y-49400500D01*
X34724233Y-49400691D01*
X34724184Y-49401301D01*
X34788021Y-49422783D01*
X34804647Y-49436725D01*
X34839707Y-49471786D01*
X34839711Y-49471789D01*
X34970814Y-49559390D01*
X34970827Y-49559397D01*
X35116498Y-49619735D01*
X35116503Y-49619737D01*
X35271153Y-49650499D01*
X35271156Y-49650500D01*
X35271158Y-49650500D01*
X35428844Y-49650500D01*
X35428845Y-49650499D01*
X35583497Y-49619737D01*
X35729179Y-49559394D01*
X35781638Y-49524341D01*
X35848315Y-49503464D01*
X35915695Y-49521948D01*
X35938210Y-49539763D01*
X36481400Y-50082952D01*
X36481402Y-50082954D01*
X36510874Y-50102645D01*
X36555086Y-50132186D01*
X36604321Y-50165084D01*
X36604322Y-50165084D01*
X36604323Y-50165085D01*
X36604325Y-50165086D01*
X36740898Y-50221656D01*
X36740903Y-50221658D01*
X36740907Y-50221658D01*
X36740908Y-50221659D01*
X36885895Y-50250500D01*
X36885898Y-50250500D01*
X36885899Y-50250500D01*
X37033733Y-50250500D01*
X37675500Y-50250500D01*
X37742539Y-50270185D01*
X37788294Y-50322989D01*
X37799500Y-50374500D01*
X37799500Y-51323918D01*
X37799500Y-51323920D01*
X37799499Y-51323920D01*
X37828340Y-51468907D01*
X37828343Y-51468917D01*
X37884914Y-51605491D01*
X37884916Y-51605495D01*
X37912784Y-51647203D01*
X37967050Y-51728419D01*
X37970913Y-51733126D01*
X37968807Y-51734854D01*
X37996666Y-51785873D01*
X37999500Y-51812231D01*
X37999500Y-52419365D01*
X37999501Y-53025500D01*
X37979816Y-53092539D01*
X37927013Y-53138294D01*
X37875501Y-53149500D01*
X30999729Y-53149500D01*
X30932690Y-53129815D01*
X30912048Y-53113181D01*
X29777200Y-51978333D01*
X29743715Y-51917010D01*
X29748699Y-51847318D01*
X29759338Y-51825561D01*
X29804814Y-51751834D01*
X29859999Y-51585297D01*
X29870500Y-51482509D01*
X29870499Y-50657492D01*
X29864209Y-50595921D01*
X29859999Y-50554703D01*
X29859998Y-50554700D01*
X29804814Y-50388166D01*
X29712712Y-50238844D01*
X29588656Y-50114788D01*
X29439334Y-50022686D01*
X29272797Y-49967501D01*
X29272795Y-49967500D01*
X29170010Y-49957000D01*
X27669998Y-49957000D01*
X27669981Y-49957001D01*
X27567203Y-49967500D01*
X27567200Y-49967501D01*
X27400668Y-50022685D01*
X27400663Y-50022687D01*
X27251342Y-50114789D01*
X27127289Y-50238842D01*
X27035187Y-50388163D01*
X27035186Y-50388166D01*
X26980001Y-50554703D01*
X26980001Y-50554704D01*
X26980000Y-50554704D01*
X26969500Y-50657483D01*
X26969500Y-50867232D01*
X26949815Y-50934271D01*
X26897011Y-50980026D01*
X26827853Y-50989970D01*
X26764297Y-50960945D01*
X26749691Y-50945951D01*
X26462099Y-50595921D01*
X26458452Y-50591260D01*
X26204711Y-50250500D01*
X25971944Y-49937907D01*
X25968546Y-49933108D01*
X25513772Y-49257296D01*
X25510594Y-49252321D01*
X25479206Y-49200500D01*
X25088580Y-48555578D01*
X25085640Y-48550450D01*
X25046814Y-48478846D01*
X24697359Y-47834379D01*
X24694671Y-47829126D01*
X24681790Y-47802402D01*
X24341002Y-47095356D01*
X24338560Y-47089965D01*
X24206505Y-46778846D01*
X24020288Y-46340121D01*
X24018113Y-46334634D01*
X23735990Y-45570487D01*
X23734086Y-45564926D01*
X23488726Y-44788129D01*
X23487096Y-44782505D01*
X23279078Y-43994887D01*
X23277720Y-43989197D01*
X23107517Y-43192553D01*
X23106430Y-43186792D01*
X22974439Y-42382976D01*
X22973621Y-42377128D01*
X22880125Y-41567882D01*
X22879594Y-41562056D01*
X22824818Y-40749318D01*
X22824562Y-40743410D01*
X22823488Y-40688541D01*
X22808628Y-39929009D01*
X22808653Y-39923094D01*
X22831595Y-39108810D01*
X22831900Y-39102965D01*
X22893667Y-38290691D01*
X22894249Y-38284880D01*
X22991082Y-37505606D01*
X22994361Y-37488806D01*
X22995678Y-37483891D01*
X23000500Y-37465897D01*
X23000500Y-37446141D01*
X23001846Y-37427918D01*
X23004750Y-37408374D01*
X23001309Y-37378402D01*
X23000500Y-37364259D01*
X23000500Y-28575367D01*
X23020185Y-28508328D01*
X23072989Y-28462573D01*
X23142147Y-28452629D01*
X23205703Y-28481654D01*
G37*
%TD.AperFunction*%
%TA.AperFunction,Conductor*%
G36*
X36405702Y-40067515D02*
G01*
X36412180Y-40073547D01*
X37876451Y-41537819D01*
X37909936Y-41599142D01*
X37904952Y-41668834D01*
X37863080Y-41724767D01*
X37797616Y-41749184D01*
X37788770Y-41749500D01*
X37149998Y-41749500D01*
X37149980Y-41749501D01*
X37047203Y-41760000D01*
X37047200Y-41760001D01*
X36880668Y-41815185D01*
X36880663Y-41815187D01*
X36731342Y-41907289D01*
X36607289Y-42031342D01*
X36515187Y-42180663D01*
X36515185Y-42180668D01*
X36492481Y-42249184D01*
X36460001Y-42347203D01*
X36460001Y-42347204D01*
X36460000Y-42347204D01*
X36449500Y-42449983D01*
X36449500Y-43450001D01*
X36449501Y-43450019D01*
X36460000Y-43552796D01*
X36460001Y-43552799D01*
X36503123Y-43682932D01*
X36505525Y-43752761D01*
X36469793Y-43812802D01*
X36407272Y-43843995D01*
X36337813Y-43836434D01*
X36320326Y-43827478D01*
X36219334Y-43765186D01*
X36052797Y-43710001D01*
X36052795Y-43710000D01*
X35950010Y-43699500D01*
X35149998Y-43699500D01*
X35149980Y-43699501D01*
X35047203Y-43710000D01*
X35047200Y-43710001D01*
X34880668Y-43765185D01*
X34880663Y-43765187D01*
X34731342Y-43857289D01*
X34607289Y-43981342D01*
X34515187Y-44130663D01*
X34515186Y-44130666D01*
X34460001Y-44297203D01*
X34460001Y-44297204D01*
X34460000Y-44297204D01*
X34449500Y-44399983D01*
X34449500Y-45400001D01*
X34449501Y-45400019D01*
X34460000Y-45502796D01*
X34460001Y-45502799D01*
X34515185Y-45669331D01*
X34515189Y-45669340D01*
X34578253Y-45771583D01*
X34596693Y-45838975D01*
X34575770Y-45905639D01*
X34532378Y-45941852D01*
X34533817Y-45944285D01*
X34385637Y-46031917D01*
X34385629Y-46031923D01*
X34269423Y-46148129D01*
X34269417Y-46148137D01*
X34185755Y-46289603D01*
X34185753Y-46289606D01*
X34168576Y-46348733D01*
X34130970Y-46407619D01*
X34067497Y-46436825D01*
X33998311Y-46427079D01*
X33945376Y-46381475D01*
X33925501Y-46314492D01*
X33925500Y-46314138D01*
X33925500Y-43236421D01*
X33900576Y-43079056D01*
X33897787Y-43061453D01*
X33897786Y-43061444D01*
X33843042Y-42892957D01*
X33789014Y-42786924D01*
X33775500Y-42730630D01*
X33775500Y-42014391D01*
X33795185Y-41947352D01*
X33847989Y-41901597D01*
X33917147Y-41891653D01*
X33977185Y-41917743D01*
X34027943Y-41958543D01*
X34100704Y-42017030D01*
X34100707Y-42017032D01*
X34271302Y-42101639D01*
X34271303Y-42101639D01*
X34271307Y-42101641D01*
X34456111Y-42147600D01*
X34498877Y-42150500D01*
X35401122Y-42150499D01*
X35443889Y-42147600D01*
X35628693Y-42101641D01*
X35799296Y-42017030D01*
X35947722Y-41897722D01*
X36067030Y-41749296D01*
X36151641Y-41578693D01*
X36197600Y-41393889D01*
X36200500Y-41351123D01*
X36200499Y-40161227D01*
X36220184Y-40094189D01*
X36272987Y-40048434D01*
X36342146Y-40038490D01*
X36405702Y-40067515D01*
G37*
%TD.AperFunction*%
%TA.AperFunction,Conductor*%
G36*
X38188934Y-24921467D02*
G01*
X38244867Y-24963339D01*
X38256085Y-24981354D01*
X38289951Y-25047820D01*
X38414890Y-25219786D01*
X38565213Y-25370109D01*
X38737179Y-25495048D01*
X38737181Y-25495049D01*
X38737184Y-25495051D01*
X38926588Y-25591557D01*
X39128757Y-25657246D01*
X39338713Y-25690500D01*
X39338714Y-25690500D01*
X39801286Y-25690500D01*
X39801287Y-25690500D01*
X40011243Y-25657246D01*
X40213412Y-25591557D01*
X40402816Y-25495051D01*
X40467383Y-25448141D01*
X40574786Y-25370109D01*
X40574788Y-25370106D01*
X40574792Y-25370104D01*
X40725104Y-25219792D01*
X40750633Y-25184654D01*
X40781903Y-25141615D01*
X40837233Y-25098949D01*
X40882221Y-25090500D01*
X43804232Y-25090500D01*
X43871271Y-25110185D01*
X43917026Y-25162989D01*
X43926970Y-25232147D01*
X43925849Y-25238692D01*
X43899500Y-25371155D01*
X43899500Y-25528846D01*
X43923699Y-25650499D01*
X43930263Y-25683497D01*
X43934029Y-25692590D01*
X43940061Y-25707151D01*
X43949500Y-25754604D01*
X43949500Y-31373918D01*
X43949500Y-31373920D01*
X43949499Y-31373920D01*
X43978340Y-31518907D01*
X43978343Y-31518917D01*
X44034914Y-31655491D01*
X44034916Y-31655495D01*
X44051424Y-31680201D01*
X44062290Y-31696464D01*
X44117049Y-31778418D01*
X44117052Y-31778421D01*
X45926452Y-33587819D01*
X45959937Y-33649142D01*
X45954953Y-33718833D01*
X45913081Y-33774767D01*
X45847617Y-33799184D01*
X45838771Y-33799500D01*
X44570940Y-33799500D01*
X44530019Y-33810464D01*
X44530019Y-33810465D01*
X44492751Y-33820451D01*
X44418214Y-33840423D01*
X44418209Y-33840426D01*
X44281290Y-33919475D01*
X44281282Y-33919481D01*
X40819481Y-37381282D01*
X40819480Y-37381284D01*
X40776761Y-37455276D01*
X40740423Y-37518215D01*
X40699499Y-37670943D01*
X40699499Y-37670945D01*
X40699499Y-37839046D01*
X40699500Y-37839059D01*
X40699500Y-41313330D01*
X40699499Y-41313348D01*
X40699499Y-41479054D01*
X40699498Y-41479054D01*
X40740423Y-41631785D01*
X40749909Y-41648215D01*
X40819477Y-41768712D01*
X40819481Y-41768717D01*
X40938349Y-41887585D01*
X40938355Y-41887590D01*
X41088584Y-42037819D01*
X41122069Y-42099142D01*
X41117085Y-42168834D01*
X41075213Y-42224767D01*
X41009749Y-42249184D01*
X41000903Y-42249500D01*
X40762229Y-42249500D01*
X40695190Y-42229815D01*
X40674548Y-42213181D01*
X36786819Y-38325451D01*
X36753334Y-38264128D01*
X36750500Y-38237770D01*
X36750500Y-33154604D01*
X36759939Y-33107151D01*
X36764282Y-33096666D01*
X36769737Y-33083497D01*
X36800500Y-32928842D01*
X36800500Y-32771158D01*
X36800500Y-32771155D01*
X36800499Y-32771153D01*
X36781932Y-32677813D01*
X36769737Y-32616503D01*
X36765169Y-32605475D01*
X36709397Y-32470827D01*
X36709390Y-32470814D01*
X36621789Y-32339711D01*
X36621786Y-32339707D01*
X36510292Y-32228213D01*
X36510288Y-32228210D01*
X36379185Y-32140609D01*
X36379172Y-32140602D01*
X36233501Y-32080264D01*
X36233489Y-32080261D01*
X36078845Y-32049500D01*
X36078842Y-32049500D01*
X35921158Y-32049500D01*
X35898690Y-32053969D01*
X35829099Y-32047740D01*
X35773922Y-32004877D01*
X35750678Y-31938987D01*
X35750500Y-31932351D01*
X35750500Y-28689983D01*
X38094500Y-28689983D01*
X38094500Y-29990001D01*
X38094501Y-29990018D01*
X38105000Y-30092796D01*
X38105001Y-30092799D01*
X38160185Y-30259331D01*
X38160186Y-30259334D01*
X38252288Y-30408656D01*
X38376344Y-30532712D01*
X38525666Y-30624814D01*
X38692203Y-30679999D01*
X38794991Y-30690500D01*
X40345008Y-30690499D01*
X40447797Y-30679999D01*
X40614334Y-30624814D01*
X40763656Y-30532712D01*
X40887712Y-30408656D01*
X40979814Y-30259334D01*
X41034999Y-30092797D01*
X41045500Y-29990009D01*
X41045499Y-28689992D01*
X41034999Y-28587203D01*
X40979814Y-28420666D01*
X40887712Y-28271344D01*
X40763656Y-28147288D01*
X40670888Y-28090069D01*
X40614336Y-28055187D01*
X40614331Y-28055185D01*
X40574677Y-28042045D01*
X40447797Y-28000001D01*
X40447795Y-28000000D01*
X40345010Y-27989500D01*
X38794998Y-27989500D01*
X38794981Y-27989501D01*
X38692203Y-28000000D01*
X38692200Y-28000001D01*
X38525668Y-28055185D01*
X38525663Y-28055187D01*
X38376342Y-28147289D01*
X38252289Y-28271342D01*
X38160187Y-28420663D01*
X38160185Y-28420668D01*
X38137978Y-28487686D01*
X38105001Y-28587203D01*
X38105001Y-28587204D01*
X38105000Y-28587204D01*
X38094500Y-28689983D01*
X35750500Y-28689983D01*
X35750500Y-27308750D01*
X35770185Y-27241711D01*
X35786814Y-27221074D01*
X38057921Y-24949966D01*
X38119242Y-24916483D01*
X38188934Y-24921467D01*
G37*
%TD.AperFunction*%
%TA.AperFunction,Conductor*%
G36*
X52805703Y-31709226D02*
G01*
X52812181Y-31715258D01*
X52838709Y-31741786D01*
X52838713Y-31741789D01*
X52969816Y-31829390D01*
X52969820Y-31829392D01*
X52969823Y-31829394D01*
X53063989Y-31868398D01*
X53118389Y-31912237D01*
X53131095Y-31935506D01*
X53140061Y-31957152D01*
X53149500Y-32004604D01*
X53149500Y-33236082D01*
X53149500Y-33383918D01*
X53149500Y-33383920D01*
X53149499Y-33383920D01*
X53178340Y-33528907D01*
X53178343Y-33528917D01*
X53234912Y-33665488D01*
X53234919Y-33665501D01*
X53317048Y-33788415D01*
X53317051Y-33788419D01*
X53421580Y-33892948D01*
X53421584Y-33892951D01*
X53544498Y-33975080D01*
X53544511Y-33975087D01*
X53680184Y-34031284D01*
X53681087Y-34031658D01*
X53681091Y-34031658D01*
X53681092Y-34031659D01*
X53826079Y-34060500D01*
X53826082Y-34060500D01*
X54101272Y-34060500D01*
X54120566Y-34066165D01*
X54140659Y-34066922D01*
X54156464Y-34076706D01*
X54168311Y-34080185D01*
X54175516Y-34088500D01*
X54188952Y-34096818D01*
X54233180Y-34141045D01*
X54266666Y-34202368D01*
X54269500Y-34228727D01*
X54269500Y-34291272D01*
X54249815Y-34358311D01*
X54233181Y-34378953D01*
X54217050Y-34395083D01*
X54217044Y-34395091D01*
X54167813Y-34468771D01*
X54167814Y-34468772D01*
X54164061Y-34474389D01*
X54156168Y-34480985D01*
X54151548Y-34490171D01*
X54129819Y-34503006D01*
X54110449Y-34519195D01*
X54098040Y-34521778D01*
X54091390Y-34525707D01*
X54081044Y-34525317D01*
X54060957Y-34529500D01*
X53971457Y-34529500D01*
X53778170Y-34567947D01*
X53778160Y-34567950D01*
X53596089Y-34643366D01*
X53503890Y-34704971D01*
X53437213Y-34725848D01*
X53369833Y-34707363D01*
X53366110Y-34704971D01*
X53339740Y-34687352D01*
X53273914Y-34643368D01*
X53273911Y-34643366D01*
X53273910Y-34643366D01*
X53091839Y-34567950D01*
X53091829Y-34567947D01*
X52898543Y-34529500D01*
X52898541Y-34529500D01*
X52724500Y-34529500D01*
X52657461Y-34509815D01*
X52611706Y-34457011D01*
X52600500Y-34405500D01*
X52600500Y-31802939D01*
X52620185Y-31735900D01*
X52672989Y-31690145D01*
X52742147Y-31680201D01*
X52805703Y-31709226D01*
G37*
%TD.AperFunction*%
%TA.AperFunction,Conductor*%
G36*
X45644145Y-25532739D02*
G01*
X45659185Y-25539190D01*
X45781588Y-25601557D01*
X45983757Y-25667246D01*
X46193713Y-25700500D01*
X46193714Y-25700500D01*
X46661160Y-25700500D01*
X46661160Y-25702502D01*
X46721265Y-25715109D01*
X46750334Y-25736701D01*
X49663181Y-28649548D01*
X49696666Y-28710871D01*
X49699500Y-28737229D01*
X49699500Y-28984579D01*
X49699500Y-28984581D01*
X49699499Y-28984581D01*
X49728340Y-29129568D01*
X49728343Y-29129578D01*
X49784913Y-29266151D01*
X49784914Y-29266153D01*
X49813807Y-29309394D01*
X49813808Y-29309396D01*
X49867043Y-29389071D01*
X49870908Y-29393780D01*
X49869621Y-29394836D01*
X49899274Y-29449141D01*
X49894290Y-29518833D01*
X49852418Y-29574766D01*
X49786954Y-29599183D01*
X49778108Y-29599499D01*
X49720943Y-29599499D01*
X49613587Y-29628265D01*
X49568210Y-29640424D01*
X49568209Y-29640425D01*
X49532297Y-29661160D01*
X49532295Y-29661161D01*
X49431290Y-29719475D01*
X49431282Y-29719481D01*
X48535339Y-30615425D01*
X48474016Y-30648910D01*
X48471850Y-30649361D01*
X48316508Y-30680261D01*
X48316498Y-30680264D01*
X48170827Y-30740602D01*
X48170814Y-30740609D01*
X48039711Y-30828210D01*
X48039707Y-30828213D01*
X47928213Y-30939707D01*
X47928210Y-30939711D01*
X47840609Y-31070814D01*
X47840602Y-31070827D01*
X47780264Y-31216498D01*
X47780261Y-31216510D01*
X47749500Y-31371153D01*
X47749500Y-31528846D01*
X47780261Y-31683489D01*
X47780264Y-31683501D01*
X47840602Y-31829172D01*
X47840609Y-31829185D01*
X47928210Y-31960288D01*
X47928213Y-31960292D01*
X48039707Y-32071786D01*
X48039711Y-32071789D01*
X48170814Y-32159390D01*
X48170827Y-32159397D01*
X48316498Y-32219735D01*
X48316503Y-32219737D01*
X48471153Y-32250499D01*
X48471156Y-32250500D01*
X48471158Y-32250500D01*
X48628844Y-32250500D01*
X48628845Y-32250499D01*
X48783497Y-32219737D01*
X48929179Y-32159394D01*
X49060289Y-32071789D01*
X49171789Y-31960289D01*
X49259394Y-31829179D01*
X49319737Y-31683497D01*
X49347824Y-31542297D01*
X49350638Y-31528150D01*
X49383023Y-31466239D01*
X49384518Y-31464716D01*
X50012416Y-30836819D01*
X50073739Y-30803334D01*
X50100097Y-30800500D01*
X50470234Y-30800500D01*
X50537273Y-30820185D01*
X50539125Y-30821398D01*
X50670814Y-30909390D01*
X50670827Y-30909397D01*
X50816498Y-30969735D01*
X50816503Y-30969737D01*
X50914008Y-30989132D01*
X50971153Y-31000499D01*
X50971156Y-31000500D01*
X50971158Y-31000500D01*
X50975500Y-31000500D01*
X51042539Y-31020185D01*
X51088294Y-31072989D01*
X51099500Y-31124500D01*
X51099500Y-31542297D01*
X51079815Y-31609336D01*
X51027011Y-31655091D01*
X50957853Y-31665035D01*
X50951309Y-31663914D01*
X50878845Y-31649500D01*
X50878842Y-31649500D01*
X50721158Y-31649500D01*
X50721155Y-31649500D01*
X50566510Y-31680261D01*
X50566498Y-31680264D01*
X50420827Y-31740602D01*
X50420814Y-31740609D01*
X50289711Y-31828210D01*
X50289707Y-31828213D01*
X50178213Y-31939707D01*
X50178207Y-31939715D01*
X50090607Y-32070818D01*
X50090606Y-32070819D01*
X50080805Y-32094480D01*
X50053927Y-32134703D01*
X49125451Y-33063181D01*
X49064128Y-33096666D01*
X49037770Y-33099500D01*
X47612229Y-33099500D01*
X47545190Y-33079815D01*
X47524548Y-33063181D01*
X45486819Y-31025451D01*
X45453334Y-30964128D01*
X45450500Y-30937770D01*
X45450500Y-30817433D01*
X45470185Y-30750394D01*
X45522989Y-30704639D01*
X45587102Y-30694075D01*
X45649991Y-30700500D01*
X47200008Y-30700499D01*
X47302797Y-30689999D01*
X47469334Y-30634814D01*
X47618656Y-30542712D01*
X47742712Y-30418656D01*
X47834814Y-30269334D01*
X47889999Y-30102797D01*
X47900500Y-30000009D01*
X47900499Y-28699992D01*
X47899477Y-28689992D01*
X47889999Y-28597203D01*
X47889998Y-28597200D01*
X47864932Y-28521557D01*
X47834814Y-28430666D01*
X47742712Y-28281344D01*
X47618656Y-28157288D01*
X47469334Y-28065186D01*
X47302797Y-28010001D01*
X47302795Y-28010000D01*
X47200010Y-27999500D01*
X45649998Y-27999500D01*
X45649980Y-27999501D01*
X45587101Y-28005925D01*
X45518408Y-27993155D01*
X45467524Y-27945274D01*
X45450500Y-27882567D01*
X45450500Y-25754604D01*
X45459939Y-25707151D01*
X45462694Y-25700500D01*
X45469737Y-25683497D01*
X45481276Y-25625482D01*
X45513660Y-25563575D01*
X45574375Y-25529000D01*
X45644145Y-25532739D01*
G37*
%TD.AperFunction*%
%TA.AperFunction,Conductor*%
G36*
X55784696Y-24270185D02*
G01*
X55830451Y-24322989D01*
X55841657Y-24374500D01*
X55841657Y-28911308D01*
X55821972Y-28978347D01*
X55793146Y-29009682D01*
X55790596Y-29011638D01*
X55219481Y-29582753D01*
X55219480Y-29582755D01*
X55179597Y-29651835D01*
X55140423Y-29719686D01*
X55099499Y-29872414D01*
X55099499Y-29872416D01*
X55099499Y-30040517D01*
X55099500Y-30040530D01*
X55099500Y-30375500D01*
X55079815Y-30442539D01*
X55027011Y-30488294D01*
X54975500Y-30499500D01*
X53898836Y-30499500D01*
X53831797Y-30479815D01*
X53829945Y-30478602D01*
X53728187Y-30410609D01*
X53728174Y-30410602D01*
X53582503Y-30350264D01*
X53582491Y-30350261D01*
X53427847Y-30319500D01*
X53427844Y-30319500D01*
X53270160Y-30319500D01*
X53270157Y-30319500D01*
X53115512Y-30350261D01*
X53115500Y-30350264D01*
X52969829Y-30410602D01*
X52969816Y-30410609D01*
X52838713Y-30498210D01*
X52838709Y-30498213D01*
X52812181Y-30524742D01*
X52750858Y-30558227D01*
X52681166Y-30553243D01*
X52625233Y-30511371D01*
X52600816Y-30445907D01*
X52600500Y-30437061D01*
X52600500Y-29701079D01*
X52571659Y-29556092D01*
X52571658Y-29556091D01*
X52571658Y-29556087D01*
X52520958Y-29433686D01*
X52515087Y-29419511D01*
X52515085Y-29419507D01*
X52515084Y-29419505D01*
X52469291Y-29350971D01*
X52469289Y-29350968D01*
X52432954Y-29296586D01*
X52016624Y-28880256D01*
X51983139Y-28818933D01*
X51982688Y-28768387D01*
X52000500Y-28678842D01*
X52000500Y-28521158D01*
X52000500Y-28521155D01*
X52000499Y-28521153D01*
X51969739Y-28366511D01*
X51969738Y-28366508D01*
X51969737Y-28366503D01*
X51959937Y-28342844D01*
X51950500Y-28295396D01*
X51950500Y-28264758D01*
X51970185Y-28197719D01*
X52022989Y-28151964D01*
X52092147Y-28142020D01*
X52155703Y-28171045D01*
X52162181Y-28177077D01*
X52285213Y-28300109D01*
X52457179Y-28425048D01*
X52457181Y-28425049D01*
X52457184Y-28425051D01*
X52646588Y-28521557D01*
X52848757Y-28587246D01*
X53058713Y-28620500D01*
X53058714Y-28620500D01*
X53521286Y-28620500D01*
X53521287Y-28620500D01*
X53731243Y-28587246D01*
X53933412Y-28521557D01*
X54122816Y-28425051D01*
X54267325Y-28320060D01*
X54294786Y-28300109D01*
X54294788Y-28300106D01*
X54294792Y-28300104D01*
X54445104Y-28149792D01*
X54445106Y-28149788D01*
X54445109Y-28149786D01*
X54570048Y-27977820D01*
X54570047Y-27977820D01*
X54570051Y-27977816D01*
X54666557Y-27788412D01*
X54732246Y-27586243D01*
X54765500Y-27376287D01*
X54765500Y-27163713D01*
X54732246Y-26953757D01*
X54666557Y-26751588D01*
X54570051Y-26562184D01*
X54570049Y-26562181D01*
X54570048Y-26562179D01*
X54445109Y-26390213D01*
X54294792Y-26239896D01*
X54130204Y-26120316D01*
X54087540Y-26064989D01*
X54081561Y-25995376D01*
X54114166Y-25933580D01*
X54130199Y-25919686D01*
X54294792Y-25800104D01*
X54445104Y-25649792D01*
X54445106Y-25649788D01*
X54445109Y-25649786D01*
X54570048Y-25477820D01*
X54570047Y-25477820D01*
X54570051Y-25477816D01*
X54666557Y-25288412D01*
X54732246Y-25086243D01*
X54765500Y-24876287D01*
X54765500Y-24663713D01*
X54732246Y-24453757D01*
X54718943Y-24412817D01*
X54716949Y-24342978D01*
X54753029Y-24283145D01*
X54815730Y-24252317D01*
X54836875Y-24250501D01*
X54938124Y-24250501D01*
X54938140Y-24250500D01*
X55717657Y-24250500D01*
X55784696Y-24270185D01*
G37*
%TD.AperFunction*%
%TA.AperFunction,Conductor*%
G36*
X46616942Y-20470185D02*
G01*
X46637583Y-20486818D01*
X46981284Y-20830520D01*
X46981286Y-20830521D01*
X46981290Y-20830524D01*
X47118209Y-20909573D01*
X47118216Y-20909577D01*
X47270943Y-20950501D01*
X47270945Y-20950501D01*
X47436654Y-20950501D01*
X47436670Y-20950500D01*
X51749903Y-20950500D01*
X51816942Y-20970185D01*
X51837584Y-20986819D01*
X52104646Y-21253881D01*
X52138131Y-21315204D01*
X52133147Y-21384896D01*
X52117284Y-21414446D01*
X52009950Y-21562181D01*
X51913444Y-21751585D01*
X51847753Y-21953760D01*
X51814500Y-22163713D01*
X51814500Y-22376286D01*
X51847753Y-22586239D01*
X51913444Y-22788414D01*
X52009951Y-22977820D01*
X52134890Y-23149786D01*
X52285209Y-23300105D01*
X52285214Y-23300109D01*
X52449793Y-23419682D01*
X52492459Y-23475011D01*
X52498438Y-23544625D01*
X52465833Y-23606420D01*
X52449793Y-23620318D01*
X52285214Y-23739890D01*
X52285209Y-23739894D01*
X52134890Y-23890213D01*
X52009951Y-24062179D01*
X51913444Y-24251585D01*
X51847753Y-24453760D01*
X51814500Y-24663713D01*
X51814500Y-24876286D01*
X51846707Y-25079637D01*
X51837752Y-25148931D01*
X51811915Y-25186716D01*
X50617045Y-26381586D01*
X50585831Y-26428305D01*
X50585829Y-26428308D01*
X50534914Y-26504507D01*
X50478343Y-26641082D01*
X50478340Y-26641092D01*
X50449500Y-26786079D01*
X50449500Y-27013770D01*
X50429815Y-27080809D01*
X50377011Y-27126564D01*
X50307853Y-27136508D01*
X50244297Y-27107483D01*
X50237819Y-27101451D01*
X47903084Y-24766717D01*
X47869599Y-24705394D01*
X47868292Y-24659638D01*
X47900500Y-24456286D01*
X47900500Y-24243715D01*
X47898045Y-24228213D01*
X47878930Y-24107528D01*
X47887884Y-24038238D01*
X47932880Y-23984786D01*
X47999632Y-23964146D01*
X48066946Y-23982871D01*
X48089084Y-24000452D01*
X49253926Y-25165293D01*
X49280805Y-25205519D01*
X49290603Y-25229172D01*
X49290606Y-25229178D01*
X49290609Y-25229185D01*
X49378210Y-25360288D01*
X49378213Y-25360292D01*
X49489707Y-25471786D01*
X49489711Y-25471789D01*
X49620814Y-25559390D01*
X49620827Y-25559397D01*
X49722607Y-25601555D01*
X49766503Y-25619737D01*
X49917569Y-25649786D01*
X49921153Y-25650499D01*
X49921156Y-25650500D01*
X49921158Y-25650500D01*
X50078844Y-25650500D01*
X50078845Y-25650499D01*
X50233497Y-25619737D01*
X50379179Y-25559394D01*
X50510289Y-25471789D01*
X50621789Y-25360289D01*
X50709394Y-25229179D01*
X50769737Y-25083497D01*
X50800500Y-24928842D01*
X50800500Y-24771158D01*
X50800500Y-24771155D01*
X50800499Y-24771153D01*
X50789335Y-24715027D01*
X50769737Y-24616503D01*
X50769735Y-24616498D01*
X50709397Y-24470827D01*
X50709390Y-24470814D01*
X50621789Y-24339711D01*
X50621786Y-24339707D01*
X50510292Y-24228213D01*
X50510288Y-24228210D01*
X50379185Y-24140609D01*
X50379180Y-24140607D01*
X50379179Y-24140606D01*
X50355519Y-24130805D01*
X50315293Y-24103926D01*
X48668421Y-22457052D01*
X48668414Y-22457046D01*
X48594729Y-22407812D01*
X48594729Y-22407813D01*
X48545491Y-22374913D01*
X48408917Y-22318343D01*
X48408907Y-22318340D01*
X48263920Y-22289500D01*
X48263918Y-22289500D01*
X38980439Y-22289500D01*
X38832604Y-22289500D01*
X38832602Y-22289500D01*
X38687614Y-22318340D01*
X38687604Y-22318343D01*
X38551033Y-22374912D01*
X38551020Y-22374919D01*
X38428106Y-22457048D01*
X38428102Y-22457051D01*
X35912181Y-24972973D01*
X35850858Y-25006458D01*
X35781166Y-25001474D01*
X35725233Y-24959602D01*
X35700816Y-24894138D01*
X35700500Y-24885292D01*
X35700500Y-21150097D01*
X35720185Y-21083058D01*
X35736819Y-21062416D01*
X36312417Y-20486819D01*
X36373740Y-20453334D01*
X36400098Y-20450500D01*
X46549903Y-20450500D01*
X46616942Y-20470185D01*
G37*
%TD.AperFunction*%
%TD*%
M02*
