%TF.GenerationSoftware,KiCad,Pcbnew,10.0.5*%
%TF.CreationDate,2026-09-04T17:47:14+02:00*%
%TF.ProjectId,Untitled,556e7469-746c-4656-942e-6b696361645f,rev?*%
%TF.SameCoordinates,Original*%
%TF.FileFunction,Soldermask,Bot*%
%TF.FilePolarity,Negative*%
%FSLAX46Y46*%
G04 Gerber Fmt 4.6, Leading zero omitted, Abs format (unit mm)*
G04 Created by KiCad (PCBNEW 10.0.5) date 2026-09-04 17:47:14*
%MOMM*%
%LPD*%
G01*
G04 APERTURE LIST*
G04 Aperture macros list*
%AMRoundRect*
0 Rectangle with rounded corners*
0 $1 Rounding radius*
0 $2 $3 $4 $5 $6 $7 $8 $9 X,Y pos of 4 corners*
0 Add a 4 corners polygon primitive as box body*
4,1,4,$2,$3,$4,$5,$6,$7,$8,$9,$2,$3,0*
0 Add four circle primitives for the rounded corners*
1,1,$1+$1,$2,$3*
1,1,$1+$1,$4,$5*
1,1,$1+$1,$6,$7*
1,1,$1+$1,$8,$9*
0 Add four rect primitives between the rounded corners*
20,1,$1+$1,$2,$3,$4,$5,0*
20,1,$1+$1,$4,$5,$6,$7,0*
20,1,$1+$1,$6,$7,$8,$9,0*
20,1,$1+$1,$8,$9,$2,$3,0*%
G04 Aperture macros list end*
%ADD10RoundRect,0.250000X-0.650000X1.000000X-0.650000X-1.000000X0.650000X-1.000000X0.650000X1.000000X0*%
%ADD11RoundRect,0.250000X0.750000X-0.600000X0.750000X0.600000X-0.750000X0.600000X-0.750000X-0.600000X0*%
%ADD12O,2.000000X1.700000*%
%ADD13RoundRect,0.250000X0.725000X-0.600000X0.725000X0.600000X-0.725000X0.600000X-0.725000X-0.600000X0*%
%ADD14O,1.950000X1.700000*%
%ADD15R,1.000000X1.000000*%
%ADD16C,1.000000*%
%ADD17RoundRect,0.150000X0.150000X-0.587500X0.150000X0.587500X-0.150000X0.587500X-0.150000X-0.587500X0*%
%ADD18RoundRect,0.250000X0.450000X-0.350000X0.450000X0.350000X-0.450000X0.350000X-0.450000X-0.350000X0*%
%ADD19RoundRect,0.250000X0.350000X0.450000X-0.350000X0.450000X-0.350000X-0.450000X0.350000X-0.450000X0*%
%ADD20RoundRect,0.250000X-0.450000X0.350000X-0.450000X-0.350000X0.450000X-0.350000X0.450000X0.350000X0*%
%ADD21R,0.800000X0.800000*%
%ADD22RoundRect,0.250000X-0.350000X-0.450000X0.350000X-0.450000X0.350000X0.450000X-0.350000X0.450000X0*%
%ADD23RoundRect,0.150000X-0.587500X-0.150000X0.587500X-0.150000X0.587500X0.150000X-0.587500X0.150000X0*%
%ADD24R,1.800000X1.100000*%
%ADD25RoundRect,0.150000X0.587500X0.150000X-0.587500X0.150000X-0.587500X-0.150000X0.587500X-0.150000X0*%
%ADD26RoundRect,0.250000X-0.625000X0.375000X-0.625000X-0.375000X0.625000X-0.375000X0.625000X0.375000X0*%
G04 APERTURE END LIST*
D10*
%TO.C,D3*%
X36610000Y-24840000D03*
X36610000Y-20840000D03*
%TD*%
D11*
%TO.C,J3*%
X32600000Y-29350000D03*
D12*
X32600000Y-26850000D03*
%TD*%
D13*
%TO.C,J7*%
X46425000Y-29350000D03*
D14*
X46425000Y-26850000D03*
X46425000Y-24350000D03*
%TD*%
D15*
%TO.C,J2*%
X54070000Y-45690000D03*
D16*
X52800000Y-45690000D03*
X54070000Y-44420000D03*
X52800000Y-44420000D03*
X54070000Y-43150000D03*
X52800000Y-43150000D03*
X54070000Y-41880000D03*
X52800000Y-41880000D03*
X54070000Y-40610000D03*
X52800000Y-40610000D03*
X54070000Y-39340000D03*
X52800000Y-39340000D03*
X54070000Y-38070000D03*
X52800000Y-38070000D03*
X54070000Y-36800000D03*
X52800000Y-36800000D03*
X54070000Y-35530000D03*
X52800000Y-35530000D03*
X54070000Y-34260000D03*
X52800000Y-34260000D03*
%TD*%
D15*
%TO.C,J1*%
X25930000Y-34240000D03*
D16*
X27200000Y-34240000D03*
X25930000Y-35510000D03*
X27200000Y-35510000D03*
X25930000Y-36780000D03*
X27200000Y-36780000D03*
X25930000Y-38050000D03*
X27200000Y-38050000D03*
X25930000Y-39320000D03*
X27200000Y-39320000D03*
X25930000Y-40590000D03*
X27200000Y-40590000D03*
X25930000Y-41860000D03*
X27200000Y-41860000D03*
X25930000Y-43130000D03*
X27200000Y-43130000D03*
X25930000Y-44400000D03*
X27200000Y-44400000D03*
X25930000Y-45670000D03*
X27200000Y-45670000D03*
%TD*%
D11*
%TO.C,J4*%
X25695000Y-29360000D03*
D12*
X25695000Y-26860000D03*
%TD*%
D13*
%TO.C,J8*%
X39570000Y-29340000D03*
D14*
X39570000Y-26840000D03*
X39570000Y-24340000D03*
%TD*%
D13*
%TO.C,J5*%
X53290000Y-29770000D03*
D14*
X53290000Y-27270000D03*
X53290000Y-24770000D03*
X53290000Y-22270000D03*
%TD*%
D17*
%TO.C,Q3*%
X43050000Y-39925000D03*
X41150000Y-39925000D03*
X42100000Y-38050000D03*
%TD*%
D18*
%TO.C,R16*%
X48500000Y-31300000D03*
X48500000Y-29300000D03*
%TD*%
D19*
%TO.C,R12*%
X50450000Y-37700000D03*
X48450000Y-37700000D03*
%TD*%
D10*
%TO.C,D5*%
X42500000Y-20750000D03*
X42500000Y-24750000D03*
%TD*%
D20*
%TO.C,R15*%
X44030000Y-29020000D03*
X44030000Y-31020000D03*
%TD*%
D19*
%TO.C,R4*%
X51500000Y-51350000D03*
X49500000Y-51350000D03*
%TD*%
D20*
%TO.C,C3*%
X39350000Y-37950000D03*
X39350000Y-39950000D03*
%TD*%
D21*
%TO.C,U3*%
X55070000Y-19950000D03*
X56370000Y-19950000D03*
X56370000Y-23050000D03*
X55070000Y-23050000D03*
%TD*%
D18*
%TO.C,R5*%
X44700000Y-50850000D03*
X44700000Y-48850000D03*
%TD*%
D20*
%TO.C,C5*%
X56300000Y-32000000D03*
X56300000Y-34000000D03*
%TD*%
D19*
%TO.C,R6*%
X51300000Y-46400000D03*
X49300000Y-46400000D03*
%TD*%
D18*
%TO.C,R13*%
X43700000Y-37100000D03*
X43700000Y-35100000D03*
%TD*%
%TO.C,R18*%
X41760000Y-31020000D03*
X41760000Y-29020000D03*
%TD*%
D19*
%TO.C,R8*%
X51300000Y-40400000D03*
X49300000Y-40400000D03*
%TD*%
%TO.C,R10*%
X42300000Y-49400000D03*
X40300000Y-49400000D03*
%TD*%
D22*
%TO.C,R7*%
X49300000Y-44400000D03*
X51300000Y-44400000D03*
%TD*%
D18*
%TO.C,R1*%
X30300000Y-40250000D03*
X30300000Y-38250000D03*
%TD*%
%TO.C,R11*%
X56300000Y-30200000D03*
X56300000Y-28200000D03*
%TD*%
D22*
%TO.C,R3*%
X35350000Y-50750000D03*
X37350000Y-50750000D03*
%TD*%
%TO.C,R9*%
X49300000Y-42400000D03*
X51300000Y-42400000D03*
%TD*%
D23*
%TO.C,D4*%
X46700000Y-50750000D03*
X46700000Y-48850000D03*
X48575000Y-49800000D03*
%TD*%
D22*
%TO.C,R2*%
X35350000Y-48850000D03*
X37350000Y-48850000D03*
%TD*%
D24*
%TO.C,SW*%
X30200000Y-20360000D03*
X24000000Y-20360000D03*
X30200000Y-24060000D03*
X24000000Y-24060000D03*
%TD*%
D25*
%TO.C,Q4*%
X47300000Y-44100000D03*
X47300000Y-46000000D03*
X45425000Y-45050000D03*
%TD*%
D20*
%TO.C,C2*%
X40350000Y-51750000D03*
X40350000Y-53750000D03*
%TD*%
D26*
%TO.C,F1*%
X50050000Y-22200000D03*
X50050000Y-25000000D03*
%TD*%
D23*
%TO.C,D6*%
X45725000Y-37100000D03*
X45725000Y-35200000D03*
X47600000Y-36150000D03*
%TD*%
D20*
%TO.C,R17*%
X37150000Y-29300000D03*
X37150000Y-31300000D03*
%TD*%
D25*
%TO.C,Q5*%
X47375000Y-40450000D03*
X47375000Y-42350000D03*
X45500000Y-41400000D03*
%TD*%
D17*
%TO.C,Q2*%
X44050000Y-53625000D03*
X42150000Y-53625000D03*
X43100000Y-51750000D03*
%TD*%
D20*
%TO.C,C4*%
X56300000Y-24400000D03*
X56300000Y-26400000D03*
%TD*%
D19*
%TO.C,R14*%
X41250000Y-36100000D03*
X39250000Y-36100000D03*
%TD*%
M02*
