%TF.GenerationSoftware,KiCad,Pcbnew,10.0.5*%
%TF.CreationDate,2026-09-04T17:47:14+02:00*%
%TF.ProjectId,Untitled,556e7469-746c-4656-942e-6b696361645f,rev?*%
%TF.SameCoordinates,Original*%
%TF.FileFunction,Legend,Top*%
%TF.FilePolarity,Positive*%
%FSLAX46Y46*%
G04 Gerber Fmt 4.6, Leading zero omitted, Abs format (unit mm)*
G04 Created by KiCad (PCBNEW 10.0.5) date 2026-09-04 17:47:14*
%MOMM*%
%LPD*%
G01*
G04 APERTURE LIST*
%ADD10C,0.100000*%
%ADD11C,0.150000*%
%ADD12C,0.120000*%
G04 APERTURE END LIST*
D10*
X34164895Y-44490475D02*
X33364895Y-44490475D01*
X33364895Y-44490475D02*
X33364895Y-44299999D01*
X33364895Y-44299999D02*
X33402990Y-44185713D01*
X33402990Y-44185713D02*
X33479180Y-44109523D01*
X33479180Y-44109523D02*
X33555371Y-44071428D01*
X33555371Y-44071428D02*
X33707752Y-44033332D01*
X33707752Y-44033332D02*
X33822038Y-44033332D01*
X33822038Y-44033332D02*
X33974419Y-44071428D01*
X33974419Y-44071428D02*
X34050609Y-44109523D01*
X34050609Y-44109523D02*
X34126800Y-44185713D01*
X34126800Y-44185713D02*
X34164895Y-44299999D01*
X34164895Y-44299999D02*
X34164895Y-44490475D01*
X34164895Y-43271428D02*
X34164895Y-43728571D01*
X34164895Y-43499999D02*
X33364895Y-43499999D01*
X33364895Y-43499999D02*
X33479180Y-43576190D01*
X33479180Y-43576190D02*
X33555371Y-43652380D01*
X33555371Y-43652380D02*
X33593466Y-43728571D01*
X32459524Y-54414895D02*
X32459524Y-53614895D01*
X32459524Y-53614895D02*
X32650000Y-53614895D01*
X32650000Y-53614895D02*
X32764286Y-53652990D01*
X32764286Y-53652990D02*
X32840476Y-53729180D01*
X32840476Y-53729180D02*
X32878571Y-53805371D01*
X32878571Y-53805371D02*
X32916667Y-53957752D01*
X32916667Y-53957752D02*
X32916667Y-54072038D01*
X32916667Y-54072038D02*
X32878571Y-54224419D01*
X32878571Y-54224419D02*
X32840476Y-54300609D01*
X32840476Y-54300609D02*
X32764286Y-54376800D01*
X32764286Y-54376800D02*
X32650000Y-54414895D01*
X32650000Y-54414895D02*
X32459524Y-54414895D01*
X33221428Y-53691085D02*
X33259524Y-53652990D01*
X33259524Y-53652990D02*
X33335714Y-53614895D01*
X33335714Y-53614895D02*
X33526190Y-53614895D01*
X33526190Y-53614895D02*
X33602381Y-53652990D01*
X33602381Y-53652990D02*
X33640476Y-53691085D01*
X33640476Y-53691085D02*
X33678571Y-53767276D01*
X33678571Y-53767276D02*
X33678571Y-53843466D01*
X33678571Y-53843466D02*
X33640476Y-53957752D01*
X33640476Y-53957752D02*
X33183333Y-54414895D01*
X33183333Y-54414895D02*
X33678571Y-54414895D01*
X35859524Y-55164895D02*
X35859524Y-54364895D01*
X35859524Y-54364895D02*
X36050000Y-54364895D01*
X36050000Y-54364895D02*
X36164286Y-54402990D01*
X36164286Y-54402990D02*
X36240476Y-54479180D01*
X36240476Y-54479180D02*
X36278571Y-54555371D01*
X36278571Y-54555371D02*
X36316667Y-54707752D01*
X36316667Y-54707752D02*
X36316667Y-54822038D01*
X36316667Y-54822038D02*
X36278571Y-54974419D01*
X36278571Y-54974419D02*
X36240476Y-55050609D01*
X36240476Y-55050609D02*
X36164286Y-55126800D01*
X36164286Y-55126800D02*
X36050000Y-55164895D01*
X36050000Y-55164895D02*
X35859524Y-55164895D01*
X37002381Y-54631561D02*
X37002381Y-55164895D01*
X36811905Y-54326800D02*
X36621428Y-54898228D01*
X36621428Y-54898228D02*
X37116667Y-54898228D01*
X39116667Y-43338704D02*
X39078571Y-43376800D01*
X39078571Y-43376800D02*
X38964286Y-43414895D01*
X38964286Y-43414895D02*
X38888095Y-43414895D01*
X38888095Y-43414895D02*
X38773809Y-43376800D01*
X38773809Y-43376800D02*
X38697619Y-43300609D01*
X38697619Y-43300609D02*
X38659524Y-43224419D01*
X38659524Y-43224419D02*
X38621428Y-43072038D01*
X38621428Y-43072038D02*
X38621428Y-42957752D01*
X38621428Y-42957752D02*
X38659524Y-42805371D01*
X38659524Y-42805371D02*
X38697619Y-42729180D01*
X38697619Y-42729180D02*
X38773809Y-42652990D01*
X38773809Y-42652990D02*
X38888095Y-42614895D01*
X38888095Y-42614895D02*
X38964286Y-42614895D01*
X38964286Y-42614895D02*
X39078571Y-42652990D01*
X39078571Y-42652990D02*
X39116667Y-42691085D01*
X39802381Y-42614895D02*
X39650000Y-42614895D01*
X39650000Y-42614895D02*
X39573809Y-42652990D01*
X39573809Y-42652990D02*
X39535714Y-42691085D01*
X39535714Y-42691085D02*
X39459524Y-42805371D01*
X39459524Y-42805371D02*
X39421428Y-42957752D01*
X39421428Y-42957752D02*
X39421428Y-43262514D01*
X39421428Y-43262514D02*
X39459524Y-43338704D01*
X39459524Y-43338704D02*
X39497619Y-43376800D01*
X39497619Y-43376800D02*
X39573809Y-43414895D01*
X39573809Y-43414895D02*
X39726190Y-43414895D01*
X39726190Y-43414895D02*
X39802381Y-43376800D01*
X39802381Y-43376800D02*
X39840476Y-43338704D01*
X39840476Y-43338704D02*
X39878571Y-43262514D01*
X39878571Y-43262514D02*
X39878571Y-43072038D01*
X39878571Y-43072038D02*
X39840476Y-42995847D01*
X39840476Y-42995847D02*
X39802381Y-42957752D01*
X39802381Y-42957752D02*
X39726190Y-42919657D01*
X39726190Y-42919657D02*
X39573809Y-42919657D01*
X39573809Y-42919657D02*
X39497619Y-42957752D01*
X39497619Y-42957752D02*
X39459524Y-42995847D01*
X39459524Y-42995847D02*
X39421428Y-43072038D01*
D11*
X47909580Y-49516666D02*
X47957200Y-49564285D01*
X47957200Y-49564285D02*
X48004819Y-49707142D01*
X48004819Y-49707142D02*
X48004819Y-49802380D01*
X48004819Y-49802380D02*
X47957200Y-49945237D01*
X47957200Y-49945237D02*
X47861961Y-50040475D01*
X47861961Y-50040475D02*
X47766723Y-50088094D01*
X47766723Y-50088094D02*
X47576247Y-50135713D01*
X47576247Y-50135713D02*
X47433390Y-50135713D01*
X47433390Y-50135713D02*
X47242914Y-50088094D01*
X47242914Y-50088094D02*
X47147676Y-50040475D01*
X47147676Y-50040475D02*
X47052438Y-49945237D01*
X47052438Y-49945237D02*
X47004819Y-49802380D01*
X47004819Y-49802380D02*
X47004819Y-49707142D01*
X47004819Y-49707142D02*
X47052438Y-49564285D01*
X47052438Y-49564285D02*
X47100057Y-49516666D01*
X48004819Y-49040475D02*
X48004819Y-48849999D01*
X48004819Y-48849999D02*
X47957200Y-48754761D01*
X47957200Y-48754761D02*
X47909580Y-48707142D01*
X47909580Y-48707142D02*
X47766723Y-48611904D01*
X47766723Y-48611904D02*
X47576247Y-48564285D01*
X47576247Y-48564285D02*
X47195295Y-48564285D01*
X47195295Y-48564285D02*
X47100057Y-48611904D01*
X47100057Y-48611904D02*
X47052438Y-48659523D01*
X47052438Y-48659523D02*
X47004819Y-48754761D01*
X47004819Y-48754761D02*
X47004819Y-48945237D01*
X47004819Y-48945237D02*
X47052438Y-49040475D01*
X47052438Y-49040475D02*
X47100057Y-49088094D01*
X47100057Y-49088094D02*
X47195295Y-49135713D01*
X47195295Y-49135713D02*
X47433390Y-49135713D01*
X47433390Y-49135713D02*
X47528628Y-49088094D01*
X47528628Y-49088094D02*
X47576247Y-49040475D01*
X47576247Y-49040475D02*
X47623866Y-48945237D01*
X47623866Y-48945237D02*
X47623866Y-48754761D01*
X47623866Y-48754761D02*
X47576247Y-48659523D01*
X47576247Y-48659523D02*
X47528628Y-48611904D01*
X47528628Y-48611904D02*
X47433390Y-48564285D01*
D10*
X29873333Y-23654895D02*
X29873333Y-23121561D01*
X29873333Y-23273942D02*
X29911428Y-23197752D01*
X29911428Y-23197752D02*
X29949523Y-23159657D01*
X29949523Y-23159657D02*
X30025714Y-23121561D01*
X30025714Y-23121561D02*
X30101904Y-23121561D01*
X30673333Y-23616800D02*
X30597142Y-23654895D01*
X30597142Y-23654895D02*
X30444761Y-23654895D01*
X30444761Y-23654895D02*
X30368571Y-23616800D01*
X30368571Y-23616800D02*
X30330475Y-23540609D01*
X30330475Y-23540609D02*
X30330475Y-23235847D01*
X30330475Y-23235847D02*
X30368571Y-23159657D01*
X30368571Y-23159657D02*
X30444761Y-23121561D01*
X30444761Y-23121561D02*
X30597142Y-23121561D01*
X30597142Y-23121561D02*
X30673333Y-23159657D01*
X30673333Y-23159657D02*
X30711428Y-23235847D01*
X30711428Y-23235847D02*
X30711428Y-23312038D01*
X30711428Y-23312038D02*
X30330475Y-23388228D01*
X31168570Y-23654895D02*
X31092380Y-23616800D01*
X31092380Y-23616800D02*
X31054285Y-23540609D01*
X31054285Y-23540609D02*
X31054285Y-22854895D01*
X31816190Y-23654895D02*
X31816190Y-23235847D01*
X31816190Y-23235847D02*
X31778095Y-23159657D01*
X31778095Y-23159657D02*
X31701904Y-23121561D01*
X31701904Y-23121561D02*
X31549523Y-23121561D01*
X31549523Y-23121561D02*
X31473333Y-23159657D01*
X31816190Y-23616800D02*
X31739999Y-23654895D01*
X31739999Y-23654895D02*
X31549523Y-23654895D01*
X31549523Y-23654895D02*
X31473333Y-23616800D01*
X31473333Y-23616800D02*
X31435237Y-23540609D01*
X31435237Y-23540609D02*
X31435237Y-23464419D01*
X31435237Y-23464419D02*
X31473333Y-23388228D01*
X31473333Y-23388228D02*
X31549523Y-23350133D01*
X31549523Y-23350133D02*
X31739999Y-23350133D01*
X31739999Y-23350133D02*
X31816190Y-23312038D01*
X32120952Y-23121561D02*
X32311428Y-23654895D01*
X32501905Y-23121561D02*
X32311428Y-23654895D01*
X32311428Y-23654895D02*
X32235238Y-23845371D01*
X32235238Y-23845371D02*
X32197143Y-23883466D01*
X32197143Y-23883466D02*
X32120952Y-23921561D01*
X33225714Y-23654895D02*
X32768571Y-23654895D01*
X32997143Y-23654895D02*
X32997143Y-22854895D01*
X32997143Y-22854895D02*
X32920952Y-22969180D01*
X32920952Y-22969180D02*
X32844762Y-23045371D01*
X32844762Y-23045371D02*
X32768571Y-23083466D01*
X33378096Y-23731085D02*
X33987619Y-23731085D01*
X34520953Y-23616800D02*
X34444762Y-23654895D01*
X34444762Y-23654895D02*
X34292381Y-23654895D01*
X34292381Y-23654895D02*
X34216191Y-23616800D01*
X34216191Y-23616800D02*
X34178096Y-23578704D01*
X34178096Y-23578704D02*
X34140000Y-23502514D01*
X34140000Y-23502514D02*
X34140000Y-23273942D01*
X34140000Y-23273942D02*
X34178096Y-23197752D01*
X34178096Y-23197752D02*
X34216191Y-23159657D01*
X34216191Y-23159657D02*
X34292381Y-23121561D01*
X34292381Y-23121561D02*
X34444762Y-23121561D01*
X34444762Y-23121561D02*
X34520953Y-23159657D01*
X34978095Y-23654895D02*
X34901905Y-23616800D01*
X34901905Y-23616800D02*
X34863810Y-23578704D01*
X34863810Y-23578704D02*
X34825714Y-23502514D01*
X34825714Y-23502514D02*
X34825714Y-23273942D01*
X34825714Y-23273942D02*
X34863810Y-23197752D01*
X34863810Y-23197752D02*
X34901905Y-23159657D01*
X34901905Y-23159657D02*
X34978095Y-23121561D01*
X34978095Y-23121561D02*
X35092381Y-23121561D01*
X35092381Y-23121561D02*
X35168572Y-23159657D01*
X35168572Y-23159657D02*
X35206667Y-23197752D01*
X35206667Y-23197752D02*
X35244762Y-23273942D01*
X35244762Y-23273942D02*
X35244762Y-23502514D01*
X35244762Y-23502514D02*
X35206667Y-23578704D01*
X35206667Y-23578704D02*
X35168572Y-23616800D01*
X35168572Y-23616800D02*
X35092381Y-23654895D01*
X35092381Y-23654895D02*
X34978095Y-23654895D01*
X35587620Y-23654895D02*
X35587620Y-23121561D01*
X35587620Y-22854895D02*
X35549524Y-22892990D01*
X35549524Y-22892990D02*
X35587620Y-22931085D01*
X35587620Y-22931085D02*
X35625715Y-22892990D01*
X35625715Y-22892990D02*
X35587620Y-22854895D01*
X35587620Y-22854895D02*
X35587620Y-22931085D01*
X36082857Y-23654895D02*
X36006667Y-23616800D01*
X36006667Y-23616800D02*
X35968572Y-23540609D01*
X35968572Y-23540609D02*
X35968572Y-22854895D01*
D11*
X46883333Y-35554819D02*
X46407143Y-35554819D01*
X46407143Y-35554819D02*
X46407143Y-34554819D01*
X47740476Y-35554819D02*
X47169048Y-35554819D01*
X47454762Y-35554819D02*
X47454762Y-34554819D01*
X47454762Y-34554819D02*
X47359524Y-34697676D01*
X47359524Y-34697676D02*
X47264286Y-34792914D01*
X47264286Y-34792914D02*
X47169048Y-34840533D01*
D10*
X44504761Y-20826800D02*
X44580952Y-20864895D01*
X44580952Y-20864895D02*
X44733333Y-20864895D01*
X44733333Y-20864895D02*
X44809523Y-20826800D01*
X44809523Y-20826800D02*
X44847619Y-20750609D01*
X44847619Y-20750609D02*
X44847619Y-20712514D01*
X44847619Y-20712514D02*
X44809523Y-20636323D01*
X44809523Y-20636323D02*
X44733333Y-20598228D01*
X44733333Y-20598228D02*
X44619047Y-20598228D01*
X44619047Y-20598228D02*
X44542857Y-20560133D01*
X44542857Y-20560133D02*
X44504761Y-20483942D01*
X44504761Y-20483942D02*
X44504761Y-20445847D01*
X44504761Y-20445847D02*
X44542857Y-20369657D01*
X44542857Y-20369657D02*
X44619047Y-20331561D01*
X44619047Y-20331561D02*
X44733333Y-20331561D01*
X44733333Y-20331561D02*
X44809523Y-20369657D01*
X45495238Y-20826800D02*
X45419047Y-20864895D01*
X45419047Y-20864895D02*
X45266666Y-20864895D01*
X45266666Y-20864895D02*
X45190476Y-20826800D01*
X45190476Y-20826800D02*
X45152380Y-20750609D01*
X45152380Y-20750609D02*
X45152380Y-20445847D01*
X45152380Y-20445847D02*
X45190476Y-20369657D01*
X45190476Y-20369657D02*
X45266666Y-20331561D01*
X45266666Y-20331561D02*
X45419047Y-20331561D01*
X45419047Y-20331561D02*
X45495238Y-20369657D01*
X45495238Y-20369657D02*
X45533333Y-20445847D01*
X45533333Y-20445847D02*
X45533333Y-20522038D01*
X45533333Y-20522038D02*
X45152380Y-20598228D01*
X45876190Y-20331561D02*
X45876190Y-20864895D01*
X45876190Y-20407752D02*
X45914285Y-20369657D01*
X45914285Y-20369657D02*
X45990475Y-20331561D01*
X45990475Y-20331561D02*
X46104761Y-20331561D01*
X46104761Y-20331561D02*
X46180952Y-20369657D01*
X46180952Y-20369657D02*
X46219047Y-20445847D01*
X46219047Y-20445847D02*
X46219047Y-20864895D01*
X46561904Y-20826800D02*
X46638095Y-20864895D01*
X46638095Y-20864895D02*
X46790476Y-20864895D01*
X46790476Y-20864895D02*
X46866666Y-20826800D01*
X46866666Y-20826800D02*
X46904762Y-20750609D01*
X46904762Y-20750609D02*
X46904762Y-20712514D01*
X46904762Y-20712514D02*
X46866666Y-20636323D01*
X46866666Y-20636323D02*
X46790476Y-20598228D01*
X46790476Y-20598228D02*
X46676190Y-20598228D01*
X46676190Y-20598228D02*
X46600000Y-20560133D01*
X46600000Y-20560133D02*
X46561904Y-20483942D01*
X46561904Y-20483942D02*
X46561904Y-20445847D01*
X46561904Y-20445847D02*
X46600000Y-20369657D01*
X46600000Y-20369657D02*
X46676190Y-20331561D01*
X46676190Y-20331561D02*
X46790476Y-20331561D01*
X46790476Y-20331561D02*
X46866666Y-20369657D01*
X47361904Y-20864895D02*
X47285714Y-20826800D01*
X47285714Y-20826800D02*
X47247619Y-20788704D01*
X47247619Y-20788704D02*
X47209523Y-20712514D01*
X47209523Y-20712514D02*
X47209523Y-20483942D01*
X47209523Y-20483942D02*
X47247619Y-20407752D01*
X47247619Y-20407752D02*
X47285714Y-20369657D01*
X47285714Y-20369657D02*
X47361904Y-20331561D01*
X47361904Y-20331561D02*
X47476190Y-20331561D01*
X47476190Y-20331561D02*
X47552381Y-20369657D01*
X47552381Y-20369657D02*
X47590476Y-20407752D01*
X47590476Y-20407752D02*
X47628571Y-20483942D01*
X47628571Y-20483942D02*
X47628571Y-20712514D01*
X47628571Y-20712514D02*
X47590476Y-20788704D01*
X47590476Y-20788704D02*
X47552381Y-20826800D01*
X47552381Y-20826800D02*
X47476190Y-20864895D01*
X47476190Y-20864895D02*
X47361904Y-20864895D01*
X47971429Y-20864895D02*
X47971429Y-20331561D01*
X47971429Y-20483942D02*
X48009524Y-20407752D01*
X48009524Y-20407752D02*
X48047619Y-20369657D01*
X48047619Y-20369657D02*
X48123810Y-20331561D01*
X48123810Y-20331561D02*
X48200000Y-20331561D01*
X49495238Y-20864895D02*
X49038095Y-20864895D01*
X49266667Y-20864895D02*
X49266667Y-20064895D01*
X49266667Y-20064895D02*
X49190476Y-20179180D01*
X49190476Y-20179180D02*
X49114286Y-20255371D01*
X49114286Y-20255371D02*
X49038095Y-20293466D01*
D11*
X53101666Y-46889819D02*
X53101666Y-47604104D01*
X53101666Y-47604104D02*
X53054047Y-47746961D01*
X53054047Y-47746961D02*
X52958809Y-47842200D01*
X52958809Y-47842200D02*
X52815952Y-47889819D01*
X52815952Y-47889819D02*
X52720714Y-47889819D01*
X53530238Y-46985057D02*
X53577857Y-46937438D01*
X53577857Y-46937438D02*
X53673095Y-46889819D01*
X53673095Y-46889819D02*
X53911190Y-46889819D01*
X53911190Y-46889819D02*
X54006428Y-46937438D01*
X54006428Y-46937438D02*
X54054047Y-46985057D01*
X54054047Y-46985057D02*
X54101666Y-47080295D01*
X54101666Y-47080295D02*
X54101666Y-47175533D01*
X54101666Y-47175533D02*
X54054047Y-47318390D01*
X54054047Y-47318390D02*
X53482619Y-47889819D01*
X53482619Y-47889819D02*
X54101666Y-47889819D01*
D10*
X23103333Y-23554895D02*
X23103333Y-23021561D01*
X23103333Y-23173942D02*
X23141428Y-23097752D01*
X23141428Y-23097752D02*
X23179523Y-23059657D01*
X23179523Y-23059657D02*
X23255714Y-23021561D01*
X23255714Y-23021561D02*
X23331904Y-23021561D01*
X23903333Y-23516800D02*
X23827142Y-23554895D01*
X23827142Y-23554895D02*
X23674761Y-23554895D01*
X23674761Y-23554895D02*
X23598571Y-23516800D01*
X23598571Y-23516800D02*
X23560475Y-23440609D01*
X23560475Y-23440609D02*
X23560475Y-23135847D01*
X23560475Y-23135847D02*
X23598571Y-23059657D01*
X23598571Y-23059657D02*
X23674761Y-23021561D01*
X23674761Y-23021561D02*
X23827142Y-23021561D01*
X23827142Y-23021561D02*
X23903333Y-23059657D01*
X23903333Y-23059657D02*
X23941428Y-23135847D01*
X23941428Y-23135847D02*
X23941428Y-23212038D01*
X23941428Y-23212038D02*
X23560475Y-23288228D01*
X24398570Y-23554895D02*
X24322380Y-23516800D01*
X24322380Y-23516800D02*
X24284285Y-23440609D01*
X24284285Y-23440609D02*
X24284285Y-22754895D01*
X25046190Y-23554895D02*
X25046190Y-23135847D01*
X25046190Y-23135847D02*
X25008095Y-23059657D01*
X25008095Y-23059657D02*
X24931904Y-23021561D01*
X24931904Y-23021561D02*
X24779523Y-23021561D01*
X24779523Y-23021561D02*
X24703333Y-23059657D01*
X25046190Y-23516800D02*
X24969999Y-23554895D01*
X24969999Y-23554895D02*
X24779523Y-23554895D01*
X24779523Y-23554895D02*
X24703333Y-23516800D01*
X24703333Y-23516800D02*
X24665237Y-23440609D01*
X24665237Y-23440609D02*
X24665237Y-23364419D01*
X24665237Y-23364419D02*
X24703333Y-23288228D01*
X24703333Y-23288228D02*
X24779523Y-23250133D01*
X24779523Y-23250133D02*
X24969999Y-23250133D01*
X24969999Y-23250133D02*
X25046190Y-23212038D01*
X25350952Y-23021561D02*
X25541428Y-23554895D01*
X25731905Y-23021561D02*
X25541428Y-23554895D01*
X25541428Y-23554895D02*
X25465238Y-23745371D01*
X25465238Y-23745371D02*
X25427143Y-23783466D01*
X25427143Y-23783466D02*
X25350952Y-23821561D01*
X25998571Y-22831085D02*
X26036667Y-22792990D01*
X26036667Y-22792990D02*
X26112857Y-22754895D01*
X26112857Y-22754895D02*
X26303333Y-22754895D01*
X26303333Y-22754895D02*
X26379524Y-22792990D01*
X26379524Y-22792990D02*
X26417619Y-22831085D01*
X26417619Y-22831085D02*
X26455714Y-22907276D01*
X26455714Y-22907276D02*
X26455714Y-22983466D01*
X26455714Y-22983466D02*
X26417619Y-23097752D01*
X26417619Y-23097752D02*
X25960476Y-23554895D01*
X25960476Y-23554895D02*
X26455714Y-23554895D01*
X26608096Y-23631085D02*
X27217619Y-23631085D01*
X27750953Y-23516800D02*
X27674762Y-23554895D01*
X27674762Y-23554895D02*
X27522381Y-23554895D01*
X27522381Y-23554895D02*
X27446191Y-23516800D01*
X27446191Y-23516800D02*
X27408096Y-23478704D01*
X27408096Y-23478704D02*
X27370000Y-23402514D01*
X27370000Y-23402514D02*
X27370000Y-23173942D01*
X27370000Y-23173942D02*
X27408096Y-23097752D01*
X27408096Y-23097752D02*
X27446191Y-23059657D01*
X27446191Y-23059657D02*
X27522381Y-23021561D01*
X27522381Y-23021561D02*
X27674762Y-23021561D01*
X27674762Y-23021561D02*
X27750953Y-23059657D01*
X28208095Y-23554895D02*
X28131905Y-23516800D01*
X28131905Y-23516800D02*
X28093810Y-23478704D01*
X28093810Y-23478704D02*
X28055714Y-23402514D01*
X28055714Y-23402514D02*
X28055714Y-23173942D01*
X28055714Y-23173942D02*
X28093810Y-23097752D01*
X28093810Y-23097752D02*
X28131905Y-23059657D01*
X28131905Y-23059657D02*
X28208095Y-23021561D01*
X28208095Y-23021561D02*
X28322381Y-23021561D01*
X28322381Y-23021561D02*
X28398572Y-23059657D01*
X28398572Y-23059657D02*
X28436667Y-23097752D01*
X28436667Y-23097752D02*
X28474762Y-23173942D01*
X28474762Y-23173942D02*
X28474762Y-23402514D01*
X28474762Y-23402514D02*
X28436667Y-23478704D01*
X28436667Y-23478704D02*
X28398572Y-23516800D01*
X28398572Y-23516800D02*
X28322381Y-23554895D01*
X28322381Y-23554895D02*
X28208095Y-23554895D01*
X28817620Y-23554895D02*
X28817620Y-23021561D01*
X28817620Y-22754895D02*
X28779524Y-22792990D01*
X28779524Y-22792990D02*
X28817620Y-22831085D01*
X28817620Y-22831085D02*
X28855715Y-22792990D01*
X28855715Y-22792990D02*
X28817620Y-22754895D01*
X28817620Y-22754895D02*
X28817620Y-22831085D01*
X29312857Y-23554895D02*
X29236667Y-23516800D01*
X29236667Y-23516800D02*
X29198572Y-23440609D01*
X29198572Y-23440609D02*
X29198572Y-22754895D01*
X37504761Y-20826800D02*
X37580952Y-20864895D01*
X37580952Y-20864895D02*
X37733333Y-20864895D01*
X37733333Y-20864895D02*
X37809523Y-20826800D01*
X37809523Y-20826800D02*
X37847619Y-20750609D01*
X37847619Y-20750609D02*
X37847619Y-20712514D01*
X37847619Y-20712514D02*
X37809523Y-20636323D01*
X37809523Y-20636323D02*
X37733333Y-20598228D01*
X37733333Y-20598228D02*
X37619047Y-20598228D01*
X37619047Y-20598228D02*
X37542857Y-20560133D01*
X37542857Y-20560133D02*
X37504761Y-20483942D01*
X37504761Y-20483942D02*
X37504761Y-20445847D01*
X37504761Y-20445847D02*
X37542857Y-20369657D01*
X37542857Y-20369657D02*
X37619047Y-20331561D01*
X37619047Y-20331561D02*
X37733333Y-20331561D01*
X37733333Y-20331561D02*
X37809523Y-20369657D01*
X38495238Y-20826800D02*
X38419047Y-20864895D01*
X38419047Y-20864895D02*
X38266666Y-20864895D01*
X38266666Y-20864895D02*
X38190476Y-20826800D01*
X38190476Y-20826800D02*
X38152380Y-20750609D01*
X38152380Y-20750609D02*
X38152380Y-20445847D01*
X38152380Y-20445847D02*
X38190476Y-20369657D01*
X38190476Y-20369657D02*
X38266666Y-20331561D01*
X38266666Y-20331561D02*
X38419047Y-20331561D01*
X38419047Y-20331561D02*
X38495238Y-20369657D01*
X38495238Y-20369657D02*
X38533333Y-20445847D01*
X38533333Y-20445847D02*
X38533333Y-20522038D01*
X38533333Y-20522038D02*
X38152380Y-20598228D01*
X38876190Y-20331561D02*
X38876190Y-20864895D01*
X38876190Y-20407752D02*
X38914285Y-20369657D01*
X38914285Y-20369657D02*
X38990475Y-20331561D01*
X38990475Y-20331561D02*
X39104761Y-20331561D01*
X39104761Y-20331561D02*
X39180952Y-20369657D01*
X39180952Y-20369657D02*
X39219047Y-20445847D01*
X39219047Y-20445847D02*
X39219047Y-20864895D01*
X39561904Y-20826800D02*
X39638095Y-20864895D01*
X39638095Y-20864895D02*
X39790476Y-20864895D01*
X39790476Y-20864895D02*
X39866666Y-20826800D01*
X39866666Y-20826800D02*
X39904762Y-20750609D01*
X39904762Y-20750609D02*
X39904762Y-20712514D01*
X39904762Y-20712514D02*
X39866666Y-20636323D01*
X39866666Y-20636323D02*
X39790476Y-20598228D01*
X39790476Y-20598228D02*
X39676190Y-20598228D01*
X39676190Y-20598228D02*
X39600000Y-20560133D01*
X39600000Y-20560133D02*
X39561904Y-20483942D01*
X39561904Y-20483942D02*
X39561904Y-20445847D01*
X39561904Y-20445847D02*
X39600000Y-20369657D01*
X39600000Y-20369657D02*
X39676190Y-20331561D01*
X39676190Y-20331561D02*
X39790476Y-20331561D01*
X39790476Y-20331561D02*
X39866666Y-20369657D01*
X40361904Y-20864895D02*
X40285714Y-20826800D01*
X40285714Y-20826800D02*
X40247619Y-20788704D01*
X40247619Y-20788704D02*
X40209523Y-20712514D01*
X40209523Y-20712514D02*
X40209523Y-20483942D01*
X40209523Y-20483942D02*
X40247619Y-20407752D01*
X40247619Y-20407752D02*
X40285714Y-20369657D01*
X40285714Y-20369657D02*
X40361904Y-20331561D01*
X40361904Y-20331561D02*
X40476190Y-20331561D01*
X40476190Y-20331561D02*
X40552381Y-20369657D01*
X40552381Y-20369657D02*
X40590476Y-20407752D01*
X40590476Y-20407752D02*
X40628571Y-20483942D01*
X40628571Y-20483942D02*
X40628571Y-20712514D01*
X40628571Y-20712514D02*
X40590476Y-20788704D01*
X40590476Y-20788704D02*
X40552381Y-20826800D01*
X40552381Y-20826800D02*
X40476190Y-20864895D01*
X40476190Y-20864895D02*
X40361904Y-20864895D01*
X40971429Y-20864895D02*
X40971429Y-20331561D01*
X40971429Y-20483942D02*
X41009524Y-20407752D01*
X41009524Y-20407752D02*
X41047619Y-20369657D01*
X41047619Y-20369657D02*
X41123810Y-20331561D01*
X41123810Y-20331561D02*
X41200000Y-20331561D01*
X42038095Y-20141085D02*
X42076191Y-20102990D01*
X42076191Y-20102990D02*
X42152381Y-20064895D01*
X42152381Y-20064895D02*
X42342857Y-20064895D01*
X42342857Y-20064895D02*
X42419048Y-20102990D01*
X42419048Y-20102990D02*
X42457143Y-20141085D01*
X42457143Y-20141085D02*
X42495238Y-20217276D01*
X42495238Y-20217276D02*
X42495238Y-20293466D01*
X42495238Y-20293466D02*
X42457143Y-20407752D01*
X42457143Y-20407752D02*
X42000000Y-20864895D01*
X42000000Y-20864895D02*
X42495238Y-20864895D01*
X39116667Y-45238704D02*
X39078571Y-45276800D01*
X39078571Y-45276800D02*
X38964286Y-45314895D01*
X38964286Y-45314895D02*
X38888095Y-45314895D01*
X38888095Y-45314895D02*
X38773809Y-45276800D01*
X38773809Y-45276800D02*
X38697619Y-45200609D01*
X38697619Y-45200609D02*
X38659524Y-45124419D01*
X38659524Y-45124419D02*
X38621428Y-44972038D01*
X38621428Y-44972038D02*
X38621428Y-44857752D01*
X38621428Y-44857752D02*
X38659524Y-44705371D01*
X38659524Y-44705371D02*
X38697619Y-44629180D01*
X38697619Y-44629180D02*
X38773809Y-44552990D01*
X38773809Y-44552990D02*
X38888095Y-44514895D01*
X38888095Y-44514895D02*
X38964286Y-44514895D01*
X38964286Y-44514895D02*
X39078571Y-44552990D01*
X39078571Y-44552990D02*
X39116667Y-44591085D01*
X39383333Y-44514895D02*
X39916667Y-44514895D01*
X39916667Y-44514895D02*
X39573809Y-45314895D01*
D11*
X30350057Y-34595238D02*
X30302438Y-34690476D01*
X30302438Y-34690476D02*
X30207200Y-34785714D01*
X30207200Y-34785714D02*
X30064342Y-34928571D01*
X30064342Y-34928571D02*
X30016723Y-35023809D01*
X30016723Y-35023809D02*
X30016723Y-35119047D01*
X30254819Y-35071428D02*
X30207200Y-35166666D01*
X30207200Y-35166666D02*
X30111961Y-35261904D01*
X30111961Y-35261904D02*
X29921485Y-35309523D01*
X29921485Y-35309523D02*
X29588152Y-35309523D01*
X29588152Y-35309523D02*
X29397676Y-35261904D01*
X29397676Y-35261904D02*
X29302438Y-35166666D01*
X29302438Y-35166666D02*
X29254819Y-35071428D01*
X29254819Y-35071428D02*
X29254819Y-34880952D01*
X29254819Y-34880952D02*
X29302438Y-34785714D01*
X29302438Y-34785714D02*
X29397676Y-34690476D01*
X29397676Y-34690476D02*
X29588152Y-34642857D01*
X29588152Y-34642857D02*
X29921485Y-34642857D01*
X29921485Y-34642857D02*
X30111961Y-34690476D01*
X30111961Y-34690476D02*
X30207200Y-34785714D01*
X30207200Y-34785714D02*
X30254819Y-34880952D01*
X30254819Y-34880952D02*
X30254819Y-35071428D01*
X30254819Y-33690476D02*
X30254819Y-34261904D01*
X30254819Y-33976190D02*
X29254819Y-33976190D01*
X29254819Y-33976190D02*
X29397676Y-34071428D01*
X29397676Y-34071428D02*
X29492914Y-34166666D01*
X29492914Y-34166666D02*
X29540533Y-34261904D01*
X50209580Y-49466666D02*
X50257200Y-49514285D01*
X50257200Y-49514285D02*
X50304819Y-49657142D01*
X50304819Y-49657142D02*
X50304819Y-49752380D01*
X50304819Y-49752380D02*
X50257200Y-49895237D01*
X50257200Y-49895237D02*
X50161961Y-49990475D01*
X50161961Y-49990475D02*
X50066723Y-50038094D01*
X50066723Y-50038094D02*
X49876247Y-50085713D01*
X49876247Y-50085713D02*
X49733390Y-50085713D01*
X49733390Y-50085713D02*
X49542914Y-50038094D01*
X49542914Y-50038094D02*
X49447676Y-49990475D01*
X49447676Y-49990475D02*
X49352438Y-49895237D01*
X49352438Y-49895237D02*
X49304819Y-49752380D01*
X49304819Y-49752380D02*
X49304819Y-49657142D01*
X49304819Y-49657142D02*
X49352438Y-49514285D01*
X49352438Y-49514285D02*
X49400057Y-49466666D01*
X49733390Y-48895237D02*
X49685771Y-48990475D01*
X49685771Y-48990475D02*
X49638152Y-49038094D01*
X49638152Y-49038094D02*
X49542914Y-49085713D01*
X49542914Y-49085713D02*
X49495295Y-49085713D01*
X49495295Y-49085713D02*
X49400057Y-49038094D01*
X49400057Y-49038094D02*
X49352438Y-48990475D01*
X49352438Y-48990475D02*
X49304819Y-48895237D01*
X49304819Y-48895237D02*
X49304819Y-48704761D01*
X49304819Y-48704761D02*
X49352438Y-48609523D01*
X49352438Y-48609523D02*
X49400057Y-48561904D01*
X49400057Y-48561904D02*
X49495295Y-48514285D01*
X49495295Y-48514285D02*
X49542914Y-48514285D01*
X49542914Y-48514285D02*
X49638152Y-48561904D01*
X49638152Y-48561904D02*
X49685771Y-48609523D01*
X49685771Y-48609523D02*
X49733390Y-48704761D01*
X49733390Y-48704761D02*
X49733390Y-48895237D01*
X49733390Y-48895237D02*
X49781009Y-48990475D01*
X49781009Y-48990475D02*
X49828628Y-49038094D01*
X49828628Y-49038094D02*
X49923866Y-49085713D01*
X49923866Y-49085713D02*
X50114342Y-49085713D01*
X50114342Y-49085713D02*
X50209580Y-49038094D01*
X50209580Y-49038094D02*
X50257200Y-48990475D01*
X50257200Y-48990475D02*
X50304819Y-48895237D01*
X50304819Y-48895237D02*
X50304819Y-48704761D01*
X50304819Y-48704761D02*
X50257200Y-48609523D01*
X50257200Y-48609523D02*
X50209580Y-48561904D01*
X50209580Y-48561904D02*
X50114342Y-48514285D01*
X50114342Y-48514285D02*
X49923866Y-48514285D01*
X49923866Y-48514285D02*
X49828628Y-48561904D01*
X49828628Y-48561904D02*
X49781009Y-48609523D01*
X49781009Y-48609523D02*
X49733390Y-48704761D01*
D10*
X26615847Y-50074166D02*
X26615847Y-50340832D01*
X27034895Y-50340832D02*
X26234895Y-50340832D01*
X26234895Y-50340832D02*
X26234895Y-49959880D01*
X26615847Y-49388452D02*
X26653942Y-49274166D01*
X26653942Y-49274166D02*
X26692038Y-49236071D01*
X26692038Y-49236071D02*
X26768228Y-49197975D01*
X26768228Y-49197975D02*
X26882514Y-49197975D01*
X26882514Y-49197975D02*
X26958704Y-49236071D01*
X26958704Y-49236071D02*
X26996800Y-49274166D01*
X26996800Y-49274166D02*
X27034895Y-49350356D01*
X27034895Y-49350356D02*
X27034895Y-49655118D01*
X27034895Y-49655118D02*
X26234895Y-49655118D01*
X26234895Y-49655118D02*
X26234895Y-49388452D01*
X26234895Y-49388452D02*
X26272990Y-49312261D01*
X26272990Y-49312261D02*
X26311085Y-49274166D01*
X26311085Y-49274166D02*
X26387276Y-49236071D01*
X26387276Y-49236071D02*
X26463466Y-49236071D01*
X26463466Y-49236071D02*
X26539657Y-49274166D01*
X26539657Y-49274166D02*
X26577752Y-49312261D01*
X26577752Y-49312261D02*
X26615847Y-49388452D01*
X26615847Y-49388452D02*
X26615847Y-49655118D01*
X27034895Y-48436071D02*
X27034895Y-48893214D01*
X27034895Y-48664642D02*
X26234895Y-48664642D01*
X26234895Y-48664642D02*
X26349180Y-48740833D01*
X26349180Y-48740833D02*
X26425371Y-48817023D01*
X26425371Y-48817023D02*
X26463466Y-48893214D01*
X41404167Y-45788704D02*
X41366071Y-45826800D01*
X41366071Y-45826800D02*
X41251786Y-45864895D01*
X41251786Y-45864895D02*
X41175595Y-45864895D01*
X41175595Y-45864895D02*
X41061309Y-45826800D01*
X41061309Y-45826800D02*
X40985119Y-45750609D01*
X40985119Y-45750609D02*
X40947024Y-45674419D01*
X40947024Y-45674419D02*
X40908928Y-45522038D01*
X40908928Y-45522038D02*
X40908928Y-45407752D01*
X40908928Y-45407752D02*
X40947024Y-45255371D01*
X40947024Y-45255371D02*
X40985119Y-45179180D01*
X40985119Y-45179180D02*
X41061309Y-45102990D01*
X41061309Y-45102990D02*
X41175595Y-45064895D01*
X41175595Y-45064895D02*
X41251786Y-45064895D01*
X41251786Y-45064895D02*
X41366071Y-45102990D01*
X41366071Y-45102990D02*
X41404167Y-45141085D01*
X42166071Y-45864895D02*
X41708928Y-45864895D01*
X41937500Y-45864895D02*
X41937500Y-45064895D01*
X41937500Y-45064895D02*
X41861309Y-45179180D01*
X41861309Y-45179180D02*
X41785119Y-45255371D01*
X41785119Y-45255371D02*
X41708928Y-45293466D01*
X56826800Y-38071429D02*
X56864895Y-37995238D01*
X56864895Y-37995238D02*
X56864895Y-37842857D01*
X56864895Y-37842857D02*
X56826800Y-37766667D01*
X56826800Y-37766667D02*
X56750609Y-37728571D01*
X56750609Y-37728571D02*
X56712514Y-37728571D01*
X56712514Y-37728571D02*
X56636323Y-37766667D01*
X56636323Y-37766667D02*
X56598228Y-37842857D01*
X56598228Y-37842857D02*
X56598228Y-37957143D01*
X56598228Y-37957143D02*
X56560133Y-38033333D01*
X56560133Y-38033333D02*
X56483942Y-38071429D01*
X56483942Y-38071429D02*
X56445847Y-38071429D01*
X56445847Y-38071429D02*
X56369657Y-38033333D01*
X56369657Y-38033333D02*
X56331561Y-37957143D01*
X56331561Y-37957143D02*
X56331561Y-37842857D01*
X56331561Y-37842857D02*
X56369657Y-37766667D01*
X56331561Y-37042857D02*
X56864895Y-37042857D01*
X56331561Y-37385714D02*
X56750609Y-37385714D01*
X56750609Y-37385714D02*
X56826800Y-37347619D01*
X56826800Y-37347619D02*
X56864895Y-37271429D01*
X56864895Y-37271429D02*
X56864895Y-37157143D01*
X56864895Y-37157143D02*
X56826800Y-37080952D01*
X56826800Y-37080952D02*
X56788704Y-37042857D01*
X56331561Y-36661904D02*
X57131561Y-36661904D01*
X56369657Y-36661904D02*
X56331561Y-36585714D01*
X56331561Y-36585714D02*
X56331561Y-36433333D01*
X56331561Y-36433333D02*
X56369657Y-36357142D01*
X56369657Y-36357142D02*
X56407752Y-36319047D01*
X56407752Y-36319047D02*
X56483942Y-36280952D01*
X56483942Y-36280952D02*
X56712514Y-36280952D01*
X56712514Y-36280952D02*
X56788704Y-36319047D01*
X56788704Y-36319047D02*
X56826800Y-36357142D01*
X56826800Y-36357142D02*
X56864895Y-36433333D01*
X56864895Y-36433333D02*
X56864895Y-36585714D01*
X56864895Y-36585714D02*
X56826800Y-36661904D01*
X56331561Y-35938094D02*
X57131561Y-35938094D01*
X56369657Y-35938094D02*
X56331561Y-35861904D01*
X56331561Y-35861904D02*
X56331561Y-35709523D01*
X56331561Y-35709523D02*
X56369657Y-35633332D01*
X56369657Y-35633332D02*
X56407752Y-35595237D01*
X56407752Y-35595237D02*
X56483942Y-35557142D01*
X56483942Y-35557142D02*
X56712514Y-35557142D01*
X56712514Y-35557142D02*
X56788704Y-35595237D01*
X56788704Y-35595237D02*
X56826800Y-35633332D01*
X56826800Y-35633332D02*
X56864895Y-35709523D01*
X56864895Y-35709523D02*
X56864895Y-35861904D01*
X56864895Y-35861904D02*
X56826800Y-35938094D01*
X56864895Y-35099999D02*
X56826800Y-35176189D01*
X56826800Y-35176189D02*
X56750609Y-35214284D01*
X56750609Y-35214284D02*
X56064895Y-35214284D01*
X56331561Y-34871427D02*
X56864895Y-34680951D01*
X56331561Y-34490474D02*
X56864895Y-34680951D01*
X56864895Y-34680951D02*
X57055371Y-34757141D01*
X57055371Y-34757141D02*
X57093466Y-34795236D01*
X57093466Y-34795236D02*
X57131561Y-34871427D01*
X56331561Y-33576188D02*
X56560133Y-32966665D01*
X56560133Y-32966665D02*
X56788704Y-33576188D01*
X38339895Y-49409523D02*
X38987514Y-49409523D01*
X38987514Y-49409523D02*
X39063704Y-49371428D01*
X39063704Y-49371428D02*
X39101800Y-49333333D01*
X39101800Y-49333333D02*
X39139895Y-49257142D01*
X39139895Y-49257142D02*
X39139895Y-49104761D01*
X39139895Y-49104761D02*
X39101800Y-49028571D01*
X39101800Y-49028571D02*
X39063704Y-48990476D01*
X39063704Y-48990476D02*
X38987514Y-48952380D01*
X38987514Y-48952380D02*
X38339895Y-48952380D01*
X39139895Y-48152381D02*
X39139895Y-48609524D01*
X39139895Y-48380952D02*
X38339895Y-48380952D01*
X38339895Y-48380952D02*
X38454180Y-48457143D01*
X38454180Y-48457143D02*
X38530371Y-48533333D01*
X38530371Y-48533333D02*
X38568466Y-48609524D01*
D12*
%TO.C,D1*%
X31980000Y-42712500D02*
X31650000Y-42952500D01*
X31650000Y-42472500D01*
X31980000Y-42712500D01*
G36*
X31980000Y-42712500D02*
G01*
X31650000Y-42952500D01*
X31650000Y-42472500D01*
X31980000Y-42712500D01*
G37*
X33160000Y-44772500D02*
X32160000Y-44772500D01*
X33160000Y-43252500D02*
X33160000Y-44772500D01*
X33110000Y-43252500D02*
X33160000Y-43252500D01*
X31210000Y-43252500D02*
X31990000Y-43252500D01*
X31040000Y-44772500D02*
X30040000Y-44772500D01*
X30040000Y-44772500D02*
X30040000Y-43252500D01*
X30040000Y-43252500D02*
X30090000Y-43252500D01*
%TO.C,D2*%
X29780000Y-46160000D02*
X29780000Y-51970000D01*
X34080000Y-46160000D02*
X29780000Y-46160000D01*
X34080000Y-46160000D02*
X34080000Y-51970000D01*
%TO.C,D4*%
X41260000Y-50800000D02*
X35750000Y-50800000D01*
X41260000Y-54100000D02*
X35750000Y-54100000D01*
X41260000Y-54100000D02*
X41260000Y-50800000D01*
%TO.C,C6*%
X36777064Y-42215000D02*
X36322936Y-42215000D01*
X36777064Y-43685000D02*
X36322936Y-43685000D01*
%TO.C,C9*%
X46540000Y-46611252D02*
X46540000Y-45188748D01*
X48360000Y-46611252D02*
X48360000Y-45188748D01*
%TO.C,J3*%
X29850000Y-30950000D02*
X29850000Y-32200000D01*
X29850000Y-32200000D02*
X31100000Y-32200000D01*
X32400000Y-24300000D02*
X32400000Y-25050000D01*
X32400000Y-25050000D02*
X35350000Y-25050000D01*
X32400000Y-31150000D02*
X35350000Y-31150000D01*
X32400000Y-31900000D02*
X32400000Y-31150000D01*
X35350000Y-25050000D02*
X35350000Y-28100000D01*
X35350000Y-31150000D02*
X35350000Y-28100000D01*
X30140000Y-24290000D02*
X36110000Y-24290000D01*
X36110000Y-31910000D01*
X30140000Y-31910000D01*
X30140000Y-24290000D01*
X30150000Y-24300000D02*
X30900000Y-24300000D01*
X30900000Y-26100000D01*
X30150000Y-26100000D01*
X30150000Y-24300000D01*
X30150000Y-27600000D02*
X30900000Y-27600000D01*
X30900000Y-28600000D01*
X30150000Y-28600000D01*
X30150000Y-27600000D01*
X30150000Y-30100000D02*
X30900000Y-30100000D01*
X30900000Y-31900000D01*
X30150000Y-31900000D01*
X30150000Y-30100000D01*
%TO.C,L1*%
X43950000Y-36600000D02*
X43950000Y-37050000D01*
X43950000Y-36600000D02*
X50150000Y-36600000D01*
X43950000Y-42800000D02*
X43950000Y-42350000D01*
X50150000Y-36600000D02*
X50150000Y-37050000D01*
X50150000Y-42800000D02*
X43950000Y-42800000D01*
X50150000Y-42800000D02*
X50150000Y-42350000D01*
%TO.C,J7*%
X43675000Y-30950000D02*
X43675000Y-32200000D01*
X43675000Y-32200000D02*
X44925000Y-32200000D01*
X46225000Y-21800000D02*
X46225000Y-22550000D01*
X46225000Y-22550000D02*
X49175000Y-22550000D01*
X46225000Y-31150000D02*
X49175000Y-31150000D01*
X46225000Y-31900000D02*
X46225000Y-31150000D01*
X49175000Y-22550000D02*
X49175000Y-26850000D01*
X49175000Y-31150000D02*
X49175000Y-26850000D01*
X43965000Y-21790000D02*
X49935000Y-21790000D01*
X49935000Y-31910000D01*
X43965000Y-31910000D01*
X43965000Y-21790000D01*
X43975000Y-21800000D02*
X44725000Y-21800000D01*
X44725000Y-23600000D01*
X43975000Y-23600000D01*
X43975000Y-21800000D01*
X43975000Y-25100000D02*
X44725000Y-25100000D01*
X44725000Y-28600000D01*
X43975000Y-28600000D01*
X43975000Y-25100000D01*
X43975000Y-30100000D02*
X44725000Y-30100000D01*
X44725000Y-31900000D01*
X43975000Y-31900000D01*
X43975000Y-30100000D01*
%TO.C,J2*%
X51620000Y-46435000D02*
X51620000Y-33515000D01*
X52482077Y-33515000D02*
X51620000Y-33515000D01*
X52482077Y-46435000D02*
X51620000Y-46435000D01*
X53752077Y-33515000D02*
X53117923Y-33515000D01*
X55250000Y-33515000D02*
X54387923Y-33515000D01*
X55250000Y-44880000D02*
X54736708Y-44880000D01*
X55250000Y-44880000D02*
X55250000Y-33515000D01*
X55250000Y-45690000D02*
X55250000Y-46500000D01*
X55250000Y-46500000D02*
X54070000Y-46500000D01*
%TO.C,J1*%
X24750000Y-33430000D02*
X25930000Y-33430000D01*
X24750000Y-34240000D02*
X24750000Y-33430000D01*
X24750000Y-35050000D02*
X24750000Y-46415000D01*
X24750000Y-35050000D02*
X25263292Y-35050000D01*
X24750000Y-46415000D02*
X25612077Y-46415000D01*
X26247923Y-46415000D02*
X26882077Y-46415000D01*
X27517923Y-33495000D02*
X28380000Y-33495000D01*
X27517923Y-46415000D02*
X28380000Y-46415000D01*
X28380000Y-33495000D02*
X28380000Y-46415000D01*
%TO.C,J4*%
X22945000Y-30960000D02*
X22945000Y-32210000D01*
X22945000Y-32210000D02*
X24195000Y-32210000D01*
X25495000Y-24310000D02*
X25495000Y-25060000D01*
X25495000Y-25060000D02*
X28445000Y-25060000D01*
X25495000Y-31160000D02*
X28445000Y-31160000D01*
X25495000Y-31910000D02*
X25495000Y-31160000D01*
X28445000Y-25060000D02*
X28445000Y-28110000D01*
X28445000Y-31160000D02*
X28445000Y-28110000D01*
X23235000Y-24300000D02*
X29205000Y-24300000D01*
X29205000Y-31920000D01*
X23235000Y-31920000D01*
X23235000Y-24300000D01*
X23245000Y-24310000D02*
X23995000Y-24310000D01*
X23995000Y-26110000D01*
X23245000Y-26110000D01*
X23245000Y-24310000D01*
X23245000Y-27610000D02*
X23995000Y-27610000D01*
X23995000Y-28610000D01*
X23245000Y-28610000D01*
X23245000Y-27610000D01*
X23245000Y-30110000D02*
X23995000Y-30110000D01*
X23995000Y-31910000D01*
X23245000Y-31910000D01*
X23245000Y-30110000D01*
%TO.C,J8*%
X36820000Y-30940000D02*
X36820000Y-32190000D01*
X36820000Y-32190000D02*
X38070000Y-32190000D01*
X39370000Y-21790000D02*
X39370000Y-22540000D01*
X39370000Y-22540000D02*
X42320000Y-22540000D01*
X39370000Y-31140000D02*
X42320000Y-31140000D01*
X39370000Y-31890000D02*
X39370000Y-31140000D01*
X42320000Y-22540000D02*
X42320000Y-26840000D01*
X42320000Y-31140000D02*
X42320000Y-26840000D01*
X37110000Y-21780000D02*
X43080000Y-21780000D01*
X43080000Y-31900000D01*
X37110000Y-31900000D01*
X37110000Y-21780000D01*
X37120000Y-21790000D02*
X37870000Y-21790000D01*
X37870000Y-23590000D01*
X37120000Y-23590000D01*
X37120000Y-21790000D01*
X37120000Y-25090000D02*
X37870000Y-25090000D01*
X37870000Y-28590000D01*
X37120000Y-28590000D01*
X37120000Y-25090000D01*
X37120000Y-30090000D02*
X37870000Y-30090000D01*
X37870000Y-31890000D01*
X37120000Y-31890000D01*
X37120000Y-30090000D01*
%TO.C,C7*%
X36322936Y-44165000D02*
X36777064Y-44165000D01*
X36322936Y-45635000D02*
X36777064Y-45635000D01*
%TO.C,Q1*%
X29240000Y-35590000D02*
X30500000Y-35590000D01*
X29240000Y-39350000D02*
X29240000Y-35590000D01*
X36060000Y-35590000D02*
X34800000Y-35590000D01*
X36060000Y-39350000D02*
X36060000Y-35590000D01*
X29340000Y-40630000D02*
X29010000Y-40870000D01*
X29010000Y-40390000D01*
X29340000Y-40630000D01*
G36*
X29340000Y-40630000D02*
G01*
X29010000Y-40870000D01*
X29010000Y-40390000D01*
X29340000Y-40630000D01*
G37*
%TO.C,C8*%
X48940000Y-45176248D02*
X48940000Y-46598752D01*
X50760000Y-45176248D02*
X50760000Y-46598752D01*
%TO.C,FB1*%
X27510000Y-48572258D02*
X27510000Y-50242742D01*
X29330000Y-48572258D02*
X29330000Y-50242742D01*
%TO.C,C1*%
X40826248Y-46190000D02*
X42248752Y-46190000D01*
X40826248Y-48010000D02*
X42248752Y-48010000D01*
%TO.C,J5*%
X50540000Y-31370000D02*
X50540000Y-32620000D01*
X50540000Y-32620000D02*
X51790000Y-32620000D01*
X53090000Y-19720000D02*
X53090000Y-20470000D01*
X53090000Y-20470000D02*
X56040000Y-20470000D01*
X53090000Y-31570000D02*
X56040000Y-31570000D01*
X53090000Y-32320000D02*
X53090000Y-31570000D01*
X56040000Y-20470000D02*
X56040000Y-26020000D01*
X56040000Y-31570000D02*
X56040000Y-26020000D01*
X50830000Y-19710000D02*
X56800000Y-19710000D01*
X56800000Y-32330000D01*
X50830000Y-32330000D01*
X50830000Y-19710000D01*
X50840000Y-19720000D02*
X51590000Y-19720000D01*
X51590000Y-21520000D01*
X50840000Y-21520000D01*
X50840000Y-19720000D01*
X50840000Y-23020000D02*
X51590000Y-23020000D01*
X51590000Y-29020000D01*
X50840000Y-29020000D01*
X50840000Y-23020000D01*
X50840000Y-30520000D02*
X51590000Y-30520000D01*
X51590000Y-32320000D01*
X50840000Y-32320000D01*
X50840000Y-30520000D01*
%TO.C,U1*%
X35527500Y-46090000D02*
X37347500Y-46090000D01*
X35527500Y-46140000D02*
X35527500Y-46090000D01*
X35527500Y-49210000D02*
X35527500Y-49160000D01*
X37347500Y-46090000D02*
X37347500Y-46140000D01*
X37347500Y-49160000D02*
X37347500Y-49210000D01*
X37347500Y-49210000D02*
X35527500Y-49210000D01*
X34987500Y-46140000D02*
X34747500Y-45810000D01*
X35227500Y-45810000D01*
X34987500Y-46140000D01*
G36*
X34987500Y-46140000D02*
G01*
X34747500Y-45810000D01*
X35227500Y-45810000D01*
X34987500Y-46140000D01*
G37*
%TD*%
M02*
