%TF.GenerationSoftware,KiCad,Pcbnew,10.0.5*%
%TF.CreationDate,2026-09-04T17:47:13+02:00*%
%TF.ProjectId,Untitled,556e7469-746c-4656-942e-6b696361645f,rev?*%
%TF.SameCoordinates,Original*%
%TF.FileFunction,Copper,L2,Bot*%
%TF.FilePolarity,Positive*%
%FSLAX46Y46*%
G04 Gerber Fmt 4.6, Leading zero omitted, Abs format (unit mm)*
G04 Created by KiCad (PCBNEW 10.0.5) date 2026-09-04 17:47:13*
%MOMM*%
%LPD*%
G01*
G04 APERTURE LIST*
G04 Aperture macros list*
%AMRoundRect*
0 Rectangle with rounded corners*
0 $1 Rounding radius*
0 $2 $3 $4 $5 $6 $7 $8 $9 X,Y pos of 4 corners*
0 Add a 4 corners polygon primitive as box body*
4,1,4,$2,$3,$4,$5,$6,$7,$8,$9,$2,$3,0*
0 Add four circle primitives for the rounded corners*
1,1,$1+$1,$2,$3*
1,1,$1+$1,$4,$5*
1,1,$1+$1,$6,$7*
1,1,$1+$1,$8,$9*
0 Add four rect primitives between the rounded corners*
20,1,$1+$1,$2,$3,$4,$5,0*
20,1,$1+$1,$4,$5,$6,$7,0*
20,1,$1+$1,$6,$7,$8,$9,0*
20,1,$1+$1,$8,$9,$2,$3,0*%
G04 Aperture macros list end*
%TA.AperFunction,SMDPad,CuDef*%
%ADD10RoundRect,0.250000X-0.650000X1.000000X-0.650000X-1.000000X0.650000X-1.000000X0.650000X1.000000X0*%
%TD*%
%TA.AperFunction,ComponentPad*%
%ADD11RoundRect,0.250000X0.750000X-0.600000X0.750000X0.600000X-0.750000X0.600000X-0.750000X-0.600000X0*%
%TD*%
%TA.AperFunction,ComponentPad*%
%ADD12O,2.000000X1.700000*%
%TD*%
%TA.AperFunction,ComponentPad*%
%ADD13RoundRect,0.250000X0.725000X-0.600000X0.725000X0.600000X-0.725000X0.600000X-0.725000X-0.600000X0*%
%TD*%
%TA.AperFunction,ComponentPad*%
%ADD14O,1.950000X1.700000*%
%TD*%
%TA.AperFunction,ComponentPad*%
%ADD15R,1.000000X1.000000*%
%TD*%
%TA.AperFunction,ComponentPad*%
%ADD16C,1.000000*%
%TD*%
%TA.AperFunction,SMDPad,CuDef*%
%ADD17RoundRect,0.150000X0.150000X-0.587500X0.150000X0.587500X-0.150000X0.587500X-0.150000X-0.587500X0*%
%TD*%
%TA.AperFunction,SMDPad,CuDef*%
%ADD18RoundRect,0.250000X0.450000X-0.350000X0.450000X0.350000X-0.450000X0.350000X-0.450000X-0.350000X0*%
%TD*%
%TA.AperFunction,SMDPad,CuDef*%
%ADD19RoundRect,0.250000X0.350000X0.450000X-0.350000X0.450000X-0.350000X-0.450000X0.350000X-0.450000X0*%
%TD*%
%TA.AperFunction,SMDPad,CuDef*%
%ADD20RoundRect,0.250000X-0.450000X0.350000X-0.450000X-0.350000X0.450000X-0.350000X0.450000X0.350000X0*%
%TD*%
%TA.AperFunction,SMDPad,CuDef*%
%ADD21R,0.800000X0.800000*%
%TD*%
%TA.AperFunction,SMDPad,CuDef*%
%ADD22RoundRect,0.250000X-0.350000X-0.450000X0.350000X-0.450000X0.350000X0.450000X-0.350000X0.450000X0*%
%TD*%
%TA.AperFunction,SMDPad,CuDef*%
%ADD23RoundRect,0.150000X-0.587500X-0.150000X0.587500X-0.150000X0.587500X0.150000X-0.587500X0.150000X0*%
%TD*%
%TA.AperFunction,SMDPad,CuDef*%
%ADD24R,1.800000X1.100000*%
%TD*%
%TA.AperFunction,SMDPad,CuDef*%
%ADD25RoundRect,0.150000X0.587500X0.150000X-0.587500X0.150000X-0.587500X-0.150000X0.587500X-0.150000X0*%
%TD*%
%TA.AperFunction,SMDPad,CuDef*%
%ADD26RoundRect,0.250000X-0.625000X0.375000X-0.625000X-0.375000X0.625000X-0.375000X0.625000X0.375000X0*%
%TD*%
%TA.AperFunction,ViaPad*%
%ADD27C,0.600000*%
%TD*%
%TA.AperFunction,Conductor*%
%ADD28C,1.700000*%
%TD*%
%TA.AperFunction,Conductor*%
%ADD29C,0.500000*%
%TD*%
%TA.AperFunction,Conductor*%
%ADD30C,0.200000*%
%TD*%
%TA.AperFunction,Conductor*%
%ADD31C,0.800000*%
%TD*%
%TA.AperFunction,Conductor*%
%ADD32C,0.250000*%
%TD*%
%TA.AperFunction,Conductor*%
%ADD33C,1.250000*%
%TD*%
G04 APERTURE END LIST*
D10*
%TO.P,D3,2,A2_2*%
%TO.N,GND*%
X36610000Y-24840000D03*
%TO.P,D3,1,A1_1*%
%TO.N,/din_1/DIGITAL_IN1*%
X36610000Y-20840000D03*
%TD*%
D11*
%TO.P,J3,1,Pin_1_1*%
%TO.N,+12V*%
X32600000Y-29350000D03*
D12*
%TO.P,J3,2,Pin_2_2*%
%TO.N,Net-(J3-Pin_2)*%
X32600000Y-26850000D03*
%TD*%
D13*
%TO.P,J7,1,Pin_1_1*%
%TO.N,/ain_1/SENSOR1_RAW*%
X46425000Y-29350000D03*
D14*
%TO.P,J7,2,Pin_2_2*%
%TO.N,GND*%
X46425000Y-26850000D03*
%TO.P,J7,3,Pin_3_3*%
%TO.N,+5V*%
X46425000Y-24350000D03*
%TD*%
D15*
%TO.P,J2,1,Pin_1_1*%
%TO.N,unconnected-(J2-Pin_1-Pad1)*%
X54070000Y-45690000D03*
D16*
%TO.P,J2,2,Pin_2_2*%
%TO.N,GP16*%
X52800000Y-45690000D03*
%TO.P,J2,3,Pin_3_3*%
%TO.N,unconnected-(J2-Pin_3-Pad3)*%
X54070000Y-44420000D03*
%TO.P,J2,4,Pin_4_4*%
%TO.N,GP17*%
X52800000Y-44420000D03*
%TO.P,J2,5,Pin_5_5*%
%TO.N,GP26*%
X54070000Y-43150000D03*
%TO.P,J2,6,Pin_6_6*%
%TO.N,GP18*%
X52800000Y-43150000D03*
%TO.P,J2,7,Pin_7_7*%
%TO.N,GP27*%
X54070000Y-41880000D03*
%TO.P,J2,8,Pin_8_8*%
%TO.N,GP19*%
X52800000Y-41880000D03*
%TO.P,J2,9,Pin_9_9*%
%TO.N,GP28*%
X54070000Y-40610000D03*
%TO.P,J2,10,Pin_10_10*%
%TO.N,GP20*%
X52800000Y-40610000D03*
%TO.P,J2,11,Pin_11_11*%
%TO.N,unconnected-(J2-Pin_11-Pad11)*%
X54070000Y-39340000D03*
%TO.P,J2,12,Pin_12_12*%
%TO.N,GP21*%
X52800000Y-39340000D03*
%TO.P,J2,13,Pin_13_13*%
%TO.N,unconnected-(J2-Pin_13-Pad13)*%
X54070000Y-38070000D03*
%TO.P,J2,14,Pin_14_14*%
%TO.N,GP22*%
X52800000Y-38070000D03*
%TO.P,J2,15,Pin_15_15*%
%TO.N,unconnected-(J2-Pin_15-Pad15)*%
X54070000Y-36800000D03*
%TO.P,J2,16,Pin_16_16*%
%TO.N,unconnected-(J2-Pin_16-Pad16)*%
X52800000Y-36800000D03*
%TO.P,J2,17,Pin_17_17*%
%TO.N,+3.3VADC*%
X54070000Y-35530000D03*
%TO.P,J2,18,Pin_18_18*%
%TO.N,+5V*%
X52800000Y-35530000D03*
%TO.P,J2,19,Pin_19_19*%
%TO.N,GND*%
X54070000Y-34260000D03*
%TO.P,J2,20,Pin_20_20*%
X52800000Y-34260000D03*
%TD*%
D15*
%TO.P,J1,1,Pin_1_1*%
%TO.N,unconnected-(J1-Pin_1-Pad1)*%
X25930000Y-34240000D03*
D16*
%TO.P,J1,2,Pin_2_2*%
%TO.N,unconnected-(J1-Pin_2-Pad2)*%
X27200000Y-34240000D03*
%TO.P,J1,3,Pin_3_3*%
%TO.N,unconnected-(J1-Pin_3-Pad3)*%
X25930000Y-35510000D03*
%TO.P,J1,4,Pin_4_4*%
%TO.N,unconnected-(J1-Pin_4-Pad4)*%
X27200000Y-35510000D03*
%TO.P,J1,5,Pin_5_5*%
%TO.N,unconnected-(J1-Pin_5-Pad5)*%
X25930000Y-36780000D03*
%TO.P,J1,6,Pin_6_6*%
%TO.N,unconnected-(J1-Pin_6-Pad6)*%
X27200000Y-36780000D03*
%TO.P,J1,7,Pin_7_7*%
%TO.N,unconnected-(J1-Pin_7-Pad7)*%
X25930000Y-38050000D03*
%TO.P,J1,8,Pin_8_8*%
%TO.N,unconnected-(J1-Pin_8-Pad8)*%
X27200000Y-38050000D03*
%TO.P,J1,9,Pin_9_9*%
%TO.N,unconnected-(J1-Pin_9-Pad9)*%
X25930000Y-39320000D03*
%TO.P,J1,10,Pin_10_10*%
%TO.N,unconnected-(J1-Pin_10-Pad10)*%
X27200000Y-39320000D03*
%TO.P,J1,11,Pin_11_11*%
%TO.N,unconnected-(J1-Pin_11-Pad11)*%
X25930000Y-40590000D03*
%TO.P,J1,12,Pin_12_12*%
%TO.N,unconnected-(J1-Pin_12-Pad12)*%
X27200000Y-40590000D03*
%TO.P,J1,13,Pin_13_13*%
%TO.N,unconnected-(J1-Pin_13-Pad13)*%
X25930000Y-41860000D03*
%TO.P,J1,14,Pin_14_14*%
%TO.N,unconnected-(J1-Pin_14-Pad14)*%
X27200000Y-41860000D03*
%TO.P,J1,15,Pin_15_15*%
%TO.N,unconnected-(J1-Pin_15-Pad15)*%
X25930000Y-43130000D03*
%TO.P,J1,16,Pin_16_16*%
%TO.N,unconnected-(J1-Pin_16-Pad16)*%
X27200000Y-43130000D03*
%TO.P,J1,17,Pin_17_17*%
%TO.N,unconnected-(J1-Pin_17-Pad17)*%
X25930000Y-44400000D03*
%TO.P,J1,18,Pin_18_18*%
%TO.N,unconnected-(J1-Pin_18-Pad18)*%
X27200000Y-44400000D03*
%TO.P,J1,19,Pin_19_19*%
%TO.N,unconnected-(J1-Pin_19-Pad19)*%
X25930000Y-45670000D03*
%TO.P,J1,20,Pin_20_20*%
%TO.N,unconnected-(J1-Pin_20-Pad20)*%
X27200000Y-45670000D03*
%TD*%
D11*
%TO.P,J4,1,Pin_1_1*%
%TO.N,+12V*%
X25695000Y-29360000D03*
D12*
%TO.P,J4,2,Pin_2_2*%
%TO.N,Net-(J4-Pin_2)*%
X25695000Y-26860000D03*
%TD*%
D13*
%TO.P,J8,1,Pin_1_1*%
%TO.N,/ain_2/SENSOR2_RAW*%
X39570000Y-29340000D03*
D14*
%TO.P,J8,2,Pin_2_2*%
%TO.N,GND*%
X39570000Y-26840000D03*
%TO.P,J8,3,Pin_3_3*%
%TO.N,+5V*%
X39570000Y-24340000D03*
%TD*%
D13*
%TO.P,J5,1,Pin_1_1*%
%TO.N,GND*%
X53290000Y-29770000D03*
D14*
%TO.P,J5,2,Pin_2_2*%
%TO.N,/din_1/DIGITAL_IN1*%
X53290000Y-27270000D03*
%TO.P,J5,3,Pin_3_3*%
%TO.N,/din_2/DIGITAL_IN2*%
X53290000Y-24770000D03*
%TO.P,J5,4,Pin_4_4*%
%TO.N,VCC*%
X53290000Y-22270000D03*
%TD*%
D17*
%TO.P,Q3,1,G_1*%
%TO.N,Net-(D6-K)*%
X43050000Y-39925000D03*
%TO.P,Q3,2,S_2*%
%TO.N,GND*%
X41150000Y-39925000D03*
%TO.P,Q3,3,D_3*%
%TO.N,GP17*%
X42100000Y-38050000D03*
%TD*%
D18*
%TO.P,R16,1*%
%TO.N,GP28*%
X48500000Y-31300000D03*
%TO.P,R16,2*%
%TO.N,GND*%
X48500000Y-29300000D03*
%TD*%
D19*
%TO.P,R12,1*%
%TO.N,/din_2/DIGITAL_IN2*%
X50450000Y-37700000D03*
%TO.P,R12,2*%
%TO.N,Net-(D6-K)*%
X48450000Y-37700000D03*
%TD*%
D10*
%TO.P,D5,1,A1_1*%
%TO.N,/din_2/DIGITAL_IN2*%
X42500000Y-20750000D03*
%TO.P,D5,2,A2_2*%
%TO.N,GND*%
X42500000Y-24750000D03*
%TD*%
D20*
%TO.P,R15,1*%
%TO.N,/ain_1/SENSOR1_RAW*%
X44030000Y-29020000D03*
%TO.P,R15,2*%
%TO.N,GP28*%
X44030000Y-31020000D03*
%TD*%
D19*
%TO.P,R4,1*%
%TO.N,/din_1/DIGITAL_IN1*%
X51500000Y-51350000D03*
%TO.P,R4,2*%
%TO.N,Net-(D4-K)*%
X49500000Y-51350000D03*
%TD*%
D20*
%TO.P,C3,1*%
%TO.N,GP17*%
X39350000Y-37950000D03*
%TO.P,C3,2*%
%TO.N,GND*%
X39350000Y-39950000D03*
%TD*%
D21*
%TO.P,U3,1,GND_1*%
%TO.N,GND*%
X55070000Y-19950000D03*
%TO.P,U3,2,GND_2*%
X56370000Y-19950000D03*
%TO.P,U3,3,VCC_3*%
%TO.N,+3.3VADC*%
X56370000Y-23050000D03*
%TO.P,U3,4,IOUT_4*%
%TO.N,GP26*%
X55070000Y-23050000D03*
%TD*%
D18*
%TO.P,R5,1*%
%TO.N,Net-(D4-K)*%
X44700000Y-50850000D03*
%TO.P,R5,2*%
%TO.N,GND*%
X44700000Y-48850000D03*
%TD*%
D20*
%TO.P,C5,1*%
%TO.N,GP26*%
X56300000Y-32000000D03*
%TO.P,C5,2*%
%TO.N,GND*%
X56300000Y-34000000D03*
%TD*%
D19*
%TO.P,R6,1*%
%TO.N,GP19*%
X51300000Y-46400000D03*
%TO.P,R6,2*%
%TO.N,Net-(Q4-G)*%
X49300000Y-46400000D03*
%TD*%
D18*
%TO.P,R13,1*%
%TO.N,Net-(D6-K)*%
X43700000Y-37100000D03*
%TO.P,R13,2*%
%TO.N,GND*%
X43700000Y-35100000D03*
%TD*%
%TO.P,R18,1*%
%TO.N,GP27*%
X41760000Y-31020000D03*
%TO.P,R18,2*%
%TO.N,GND*%
X41760000Y-29020000D03*
%TD*%
D19*
%TO.P,R8,1*%
%TO.N,GP20*%
X51300000Y-40400000D03*
%TO.P,R8,2*%
%TO.N,Net-(Q5-G)*%
X49300000Y-40400000D03*
%TD*%
%TO.P,R10,1*%
%TO.N,+3V3*%
X42300000Y-49400000D03*
%TO.P,R10,2*%
%TO.N,GP16*%
X40300000Y-49400000D03*
%TD*%
D22*
%TO.P,R7,1*%
%TO.N,GND*%
X49300000Y-44400000D03*
%TO.P,R7,2*%
%TO.N,Net-(Q4-G)*%
X51300000Y-44400000D03*
%TD*%
D18*
%TO.P,R1,1*%
%TO.N,Net-(D1-A)*%
X30300000Y-40250000D03*
%TO.P,R1,2*%
%TO.N,GND*%
X30300000Y-38250000D03*
%TD*%
%TO.P,R11,1*%
%TO.N,GP26*%
X56300000Y-30200000D03*
%TO.P,R11,2*%
%TO.N,GND*%
X56300000Y-28200000D03*
%TD*%
D22*
%TO.P,R3,1*%
%TO.N,Net-(U1-FB)*%
X35350000Y-50750000D03*
%TO.P,R3,2*%
%TO.N,GND*%
X37350000Y-50750000D03*
%TD*%
%TO.P,R9,1*%
%TO.N,GND*%
X49300000Y-42400000D03*
%TO.P,R9,2*%
%TO.N,Net-(Q5-G)*%
X51300000Y-42400000D03*
%TD*%
D23*
%TO.P,D4,1,K_1*%
%TO.N,Net-(D4-K)*%
X46700000Y-50750000D03*
%TO.P,D4,2,A_2*%
%TO.N,GND*%
X46700000Y-48850000D03*
%TO.P,D4,3*%
%TO.N,N/C*%
X48575000Y-49800000D03*
%TD*%
D22*
%TO.P,R2,1*%
%TO.N,Net-(U1-FB)*%
X35350000Y-48850000D03*
%TO.P,R2,2*%
%TO.N,+5V*%
X37350000Y-48850000D03*
%TD*%
D24*
%TO.P,SW,1,1_1*%
%TO.N,GP18*%
X30200000Y-20360000D03*
X24000000Y-20360000D03*
%TO.P,SW,2,2_2*%
%TO.N,GND*%
X30200000Y-24060000D03*
X24000000Y-24060000D03*
%TD*%
D25*
%TO.P,Q4,1,G_1*%
%TO.N,Net-(Q4-G)*%
X47300000Y-44100000D03*
%TO.P,Q4,2,S_2*%
%TO.N,GND*%
X47300000Y-46000000D03*
%TO.P,Q4,3,D_3*%
%TO.N,Net-(J3-Pin_2)*%
X45425000Y-45050000D03*
%TD*%
D20*
%TO.P,C2,1*%
%TO.N,GP16*%
X40350000Y-51750000D03*
%TO.P,C2,2*%
%TO.N,GND*%
X40350000Y-53750000D03*
%TD*%
D26*
%TO.P,F1,1*%
%TO.N,VCC*%
X50050000Y-22200000D03*
%TO.P,F1,2*%
%TO.N,Net-(Q1-D)*%
X50050000Y-25000000D03*
%TD*%
D23*
%TO.P,D6,1,K_1*%
%TO.N,Net-(D6-K)*%
X45725000Y-37100000D03*
%TO.P,D6,2,A_2*%
%TO.N,GND*%
X45725000Y-35200000D03*
%TO.P,D6,3*%
%TO.N,N/C*%
X47600000Y-36150000D03*
%TD*%
D20*
%TO.P,R17,1*%
%TO.N,/ain_2/SENSOR2_RAW*%
X37150000Y-29300000D03*
%TO.P,R17,2*%
%TO.N,GP27*%
X37150000Y-31300000D03*
%TD*%
D25*
%TO.P,Q5,1,G_1*%
%TO.N,Net-(Q5-G)*%
X47375000Y-40450000D03*
%TO.P,Q5,2,S_2*%
%TO.N,GND*%
X47375000Y-42350000D03*
%TO.P,Q5,3,D_3*%
%TO.N,Net-(J4-Pin_2)*%
X45500000Y-41400000D03*
%TD*%
D17*
%TO.P,Q2,1,G_1*%
%TO.N,Net-(D4-K)*%
X44050000Y-53625000D03*
%TO.P,Q2,2,S_2*%
%TO.N,GND*%
X42150000Y-53625000D03*
%TO.P,Q2,3,D_3*%
%TO.N,GP16*%
X43100000Y-51750000D03*
%TD*%
D20*
%TO.P,C4,1*%
%TO.N,+3.3VADC*%
X56300000Y-24400000D03*
%TO.P,C4,2*%
%TO.N,GND*%
X56300000Y-26400000D03*
%TD*%
D19*
%TO.P,R14,1*%
%TO.N,+3V3*%
X41250000Y-36100000D03*
%TO.P,R14,2*%
%TO.N,GP17*%
X39250000Y-36100000D03*
%TD*%
D27*
%TO.N,GND*%
X37100000Y-34000000D03*
X38400000Y-33000000D03*
X39800000Y-32950000D03*
X47600000Y-54500000D03*
X44900000Y-55900000D03*
X34300000Y-55500000D03*
X37700000Y-56000000D03*
X35950000Y-52500000D03*
X31930000Y-51970000D03*
X33250000Y-50650000D03*
X30800000Y-50000000D03*
X28350000Y-49200000D03*
X25850000Y-48650000D03*
X24150000Y-40650000D03*
X24150000Y-37200000D03*
X24250000Y-32250000D03*
X29000000Y-35200000D03*
X30622703Y-37927297D03*
X29000000Y-36950000D03*
X56300000Y-42350000D03*
X56200000Y-43400000D03*
X47325000Y-27175000D03*
X48050000Y-27900000D03*
X48500000Y-29300000D03*
X51000000Y-31300000D03*
X52900000Y-32250000D03*
X47300000Y-45350000D03*
X47050000Y-43050000D03*
X47375000Y-42350000D03*
X37900000Y-52450000D03*
X33850000Y-52400000D03*
X39375000Y-39925000D03*
X34050000Y-47900000D03*
X37400000Y-51950000D03*
X37350000Y-50750000D03*
X41350000Y-55600000D03*
X40550000Y-56550000D03*
X44750000Y-48950000D03*
X35550000Y-42950000D03*
X42125000Y-33525000D03*
X41750000Y-33000000D03*
X42650000Y-34050000D03*
X36257220Y-24487220D03*
X48500000Y-21100000D03*
X55671661Y-28671661D03*
X55742157Y-28100000D03*
X55742157Y-27400000D03*
X55742157Y-26800000D03*
X55742157Y-26250000D03*
X41750000Y-29200000D03*
X43350000Y-26850000D03*
%TO.N,Net-(U1-FB)*%
X35350000Y-48850000D03*
%TO.N,+3V3*%
X41200000Y-46700000D03*
X38800000Y-42800000D03*
%TO.N,+5V*%
X47700000Y-48000000D03*
X48200000Y-48400000D03*
%TO.N,GP17*%
X47400000Y-36950000D03*
X51000000Y-39000000D03*
%TO.N,/din_1/DIGITAL_IN1*%
X44700000Y-25450000D03*
X50800000Y-32450000D03*
%TO.N,GP19*%
X44100000Y-43000000D03*
X50750000Y-35200000D03*
X51750000Y-37300000D03*
%TO.N,GP28*%
X51050000Y-30200000D03*
X48550000Y-31450000D03*
%TO.N,Net-(D6-K)*%
X45450000Y-36100000D03*
X47650000Y-35150000D03*
%TO.N,GP27*%
X34250000Y-31350000D03*
%TO.N,Net-(J4-Pin_2)*%
X45450000Y-42900000D03*
X36000000Y-32850000D03*
X33750000Y-32150000D03*
%TO.N,Net-(Q1-D)*%
X50000000Y-24850000D03*
%TO.N,/din_2/DIGITAL_IN2*%
X51200000Y-28600000D03*
%TO.N,GP26*%
X55100000Y-23050000D03*
X56300000Y-30200000D03*
%TO.N,Net-(D1-A)*%
X30350000Y-40650000D03*
%TO.N,Net-(D7-K)*%
X43050000Y-41850000D03*
X38100000Y-44800000D03*
%TO.N,+3.3VADC*%
X53900000Y-31700000D03*
%TO.N,GP17*%
X42050000Y-37950000D03*
%TO.N,GP28*%
X53349002Y-31120000D03*
%TD*%
%TO.N,GND*%
D28*
X35950000Y-52500000D02*
X37850000Y-52500000D01*
X29000000Y-35200000D02*
X29000000Y-36950000D01*
X30622703Y-37927297D02*
X34597703Y-41902297D01*
X39500000Y-26840000D02*
X36895000Y-26840000D01*
%TO.N,+3.3VADC*%
D29*
X56300000Y-24400000D02*
X55600000Y-24400000D01*
X55600000Y-24400000D02*
X54715000Y-25285000D01*
X54715000Y-25285000D02*
X54715000Y-25308478D01*
X54715000Y-25308478D02*
X54350000Y-25673478D01*
X54350000Y-25673478D02*
X54350000Y-26366522D01*
X54350000Y-26366522D02*
X54715000Y-26731522D01*
X54715000Y-26731522D02*
X54715000Y-27808478D01*
X54715000Y-27808478D02*
X54350000Y-28173478D01*
X54350000Y-28173478D02*
X54350000Y-28508122D01*
X54350000Y-28508122D02*
X54715000Y-28873122D01*
X54715000Y-28873122D02*
X54773122Y-28873122D01*
X54773122Y-28873122D02*
X55300000Y-29400000D01*
X55300000Y-29400000D02*
X55300000Y-29403122D01*
X55300000Y-29403122D02*
X55150000Y-29553122D01*
X55150000Y-29553122D02*
X54715000Y-29553122D01*
X54715000Y-29553122D02*
X54715000Y-30666878D01*
X54715000Y-30666878D02*
X54311878Y-31070000D01*
X54311878Y-31070000D02*
X54099002Y-31070000D01*
X54099002Y-31070000D02*
X54099002Y-31430661D01*
X54099002Y-31430661D02*
X54050000Y-31479663D01*
X54050000Y-31479663D02*
X54050000Y-31750000D01*
X54050000Y-31750000D02*
X54000000Y-31700000D01*
X54000000Y-31700000D02*
X53900000Y-31700000D01*
%TO.N,GP28*%
D30*
X53349002Y-31120000D02*
X52781297Y-31120000D01*
X52781297Y-31120000D02*
X52751297Y-31150000D01*
X52751297Y-31150000D02*
X52150000Y-31150000D01*
X52150000Y-31150000D02*
X51200000Y-30200000D01*
X51200000Y-30200000D02*
X51050000Y-30200000D01*
%TO.N,GND*%
D29*
X56300000Y-34000000D02*
X54750000Y-32450000D01*
X54750000Y-32450000D02*
X53100000Y-32450000D01*
X53100000Y-32450000D02*
X52900000Y-32250000D01*
D31*
X56300000Y-34000000D02*
X56300000Y-42350000D01*
X56300000Y-43300000D02*
X56200000Y-43400000D01*
X56300000Y-42350000D02*
X56300000Y-43300000D01*
X51950000Y-32250000D02*
X51000000Y-31300000D01*
X50900000Y-31300000D02*
X51000000Y-31300000D01*
X52900000Y-32250000D02*
X51950000Y-32250000D01*
%TO.N,/din_1/DIGITAL_IN1*%
D29*
X55020000Y-47830000D02*
X55020000Y-33866497D01*
X55020000Y-33866497D02*
X54463503Y-33310000D01*
X51500000Y-51350000D02*
X55020000Y-47830000D01*
X54463503Y-33310000D02*
X53676497Y-33310000D01*
X53193503Y-33310000D02*
X52406497Y-33310000D01*
X53676497Y-33310000D02*
X53636497Y-33350000D01*
X53636497Y-33350000D02*
X53233503Y-33350000D01*
X52406497Y-33310000D02*
X52366497Y-33350000D01*
X53233503Y-33350000D02*
X53193503Y-33310000D01*
X52366497Y-33350000D02*
X51700000Y-33350000D01*
X51700000Y-33350000D02*
X50800000Y-32450000D01*
%TO.N,GND*%
D31*
X54070000Y-34260000D02*
X52800000Y-34260000D01*
%TO.N,Net-(Q4-G)*%
D29*
X47300000Y-44400000D02*
X47410661Y-44400000D01*
X47410661Y-44400000D02*
X49300000Y-46289339D01*
X49300000Y-46289339D02*
X49300000Y-46400000D01*
%TO.N,GND*%
X47300000Y-46000000D02*
X47300000Y-45350000D01*
D31*
X48900000Y-44400000D02*
X49300000Y-44400000D01*
%TO.N,Net-(Q4-G)*%
D29*
X47300000Y-44100000D02*
X47300000Y-44400000D01*
%TO.N,GND*%
D31*
X49300000Y-42400000D02*
X49300000Y-44400000D01*
X47375000Y-42725000D02*
X47050000Y-43050000D01*
X47375000Y-42350000D02*
X47375000Y-42725000D01*
%TO.N,GP18*%
D30*
X48200000Y-41150000D02*
X46696948Y-41150000D01*
X46696948Y-41150000D02*
X46337500Y-40790552D01*
X46337500Y-40790552D02*
X46337500Y-40109448D01*
X48450000Y-41400000D02*
X48200000Y-41150000D01*
X49884744Y-41400000D02*
X48450000Y-41400000D01*
X50250000Y-42934744D02*
X50250000Y-41765256D01*
X50715256Y-43400000D02*
X50250000Y-42934744D01*
X52550000Y-43400000D02*
X50715256Y-43400000D01*
X50250000Y-41765256D02*
X49884744Y-41400000D01*
X52800000Y-43150000D02*
X52550000Y-43400000D01*
%TO.N,Net-(Q5-G)*%
D32*
X50375000Y-41095100D02*
X50375000Y-40700000D01*
X50779900Y-41500000D02*
X50375000Y-41095100D01*
X50800000Y-41500000D02*
X50779900Y-41500000D01*
X51300000Y-42000000D02*
X50800000Y-41500000D01*
X51300000Y-42400000D02*
X51300000Y-42000000D01*
X50375000Y-40700000D02*
X50075000Y-40400000D01*
X50075000Y-40400000D02*
X49300000Y-40400000D01*
X47375000Y-40450000D02*
X49250000Y-40450000D01*
X49250000Y-40450000D02*
X49300000Y-40400000D01*
%TO.N,GP18*%
D30*
X46337500Y-40109448D02*
X46762500Y-39684448D01*
X46762500Y-39684448D02*
X46762500Y-36759448D01*
X46762500Y-36759448D02*
X46503052Y-36500000D01*
X46503052Y-36500000D02*
X46503052Y-35868896D01*
X46503052Y-35868896D02*
X46762500Y-35609448D01*
X46762500Y-35609448D02*
X46762500Y-34362500D01*
X46762500Y-34362500D02*
X45500000Y-33100000D01*
X45500000Y-33100000D02*
X44525256Y-33100000D01*
X44525256Y-33100000D02*
X43030000Y-31604744D01*
X43030000Y-31604744D02*
X43030000Y-28548654D01*
X43030000Y-28548654D02*
X40171346Y-25690000D01*
X40171346Y-25690000D02*
X39040000Y-25690000D01*
X39040000Y-25690000D02*
X38295000Y-24945000D01*
X38295000Y-24945000D02*
X38295000Y-24045000D01*
X38295000Y-24045000D02*
X37540000Y-23290000D01*
X37540000Y-23290000D02*
X36625256Y-23290000D01*
X36625256Y-23290000D02*
X33695256Y-20360000D01*
X33695256Y-20360000D02*
X30200000Y-20360000D01*
%TO.N,GND*%
D31*
X47300000Y-42350000D02*
X47050000Y-42600000D01*
X47300000Y-42350000D02*
X47375000Y-42350000D01*
D33*
X37400000Y-51950000D02*
X37900000Y-52450000D01*
D28*
X33850000Y-52400000D02*
X33950000Y-52500000D01*
X37850000Y-52500000D02*
X37900000Y-52450000D01*
X33950000Y-52500000D02*
X35950000Y-52500000D01*
X33700000Y-52250000D02*
X33850000Y-52400000D01*
X33700000Y-42800000D02*
X33700000Y-52250000D01*
X29645406Y-36950000D02*
X30622703Y-37927297D01*
X34597703Y-41902297D02*
X33700000Y-42800000D01*
X31151522Y-24360000D02*
X29000000Y-26511522D01*
X34597703Y-41902297D02*
X35450000Y-42754594D01*
X31600000Y-24360000D02*
X31151522Y-24360000D01*
X34660000Y-24360000D02*
X31600000Y-24360000D01*
X29000000Y-26511522D02*
X29000000Y-35200000D01*
X29000000Y-36950000D02*
X29645406Y-36950000D01*
X35450000Y-42754594D02*
X35450000Y-42950000D01*
X36610000Y-26555000D02*
X36610000Y-26310000D01*
X31600000Y-24360000D02*
X30200000Y-24360000D01*
X36610000Y-26310000D02*
X34660000Y-24360000D01*
D33*
X39350000Y-39950000D02*
X39375000Y-39925000D01*
X41150000Y-39925000D02*
X39375000Y-39925000D01*
X37900000Y-52450000D02*
X40350000Y-54900000D01*
X40350000Y-53750000D02*
X40350000Y-54900000D01*
X37350000Y-50750000D02*
X37350000Y-51900000D01*
X37350000Y-51900000D02*
X37400000Y-51950000D01*
X41350000Y-54425000D02*
X41350000Y-55600000D01*
X42150000Y-53625000D02*
X41350000Y-54425000D01*
X42150000Y-53625000D02*
X40475000Y-53625000D01*
X40475000Y-53625000D02*
X40350000Y-53750000D01*
X40350000Y-54900000D02*
X40350000Y-56350000D01*
X40350000Y-56350000D02*
X40550000Y-56550000D01*
%TO.N,Net-(Q4-G)*%
D29*
X51300000Y-44400000D02*
X51300000Y-44850000D01*
X51300000Y-44850000D02*
X50900000Y-45250000D01*
X50900000Y-45250000D02*
X50653122Y-45250000D01*
X50653122Y-45250000D02*
X50250000Y-45653122D01*
X50250000Y-45653122D02*
X50250000Y-45900000D01*
X50250000Y-45900000D02*
X49750000Y-46400000D01*
X49750000Y-46400000D02*
X49300000Y-46400000D01*
%TO.N,GND*%
D31*
X49300000Y-42400000D02*
X47425000Y-42400000D01*
X47425000Y-42400000D02*
X47375000Y-42350000D01*
X46700000Y-48850000D02*
X44700000Y-48850000D01*
X30300000Y-38250000D02*
X30850000Y-38250000D01*
X30850000Y-38250000D02*
X35550000Y-42950000D01*
X41700000Y-33100000D02*
X41700000Y-32900000D01*
X43700000Y-35100000D02*
X41700000Y-33100000D01*
X41700000Y-32900000D02*
X41700000Y-32850000D01*
X45725000Y-35200000D02*
X43800000Y-35200000D01*
X43800000Y-35200000D02*
X43700000Y-35100000D01*
X49650000Y-19950000D02*
X48500000Y-21100000D01*
X55070000Y-19950000D02*
X49650000Y-19950000D01*
X56370000Y-19950000D02*
X55070000Y-19950000D01*
D33*
X55875000Y-26475000D02*
X55875000Y-28200000D01*
X55950000Y-26400000D02*
X55875000Y-26475000D01*
X55875000Y-28200000D02*
X56300000Y-28200000D01*
X56300000Y-26400000D02*
X55950000Y-26400000D01*
D28*
X48500000Y-29300000D02*
X48500000Y-28254594D01*
X48500000Y-28254594D02*
X47095406Y-26850000D01*
X47095406Y-26850000D02*
X46425000Y-26850000D01*
X42500000Y-24750000D02*
X42500000Y-26000000D01*
X43350000Y-26850000D02*
X46425000Y-26850000D01*
X42500000Y-26000000D02*
X43350000Y-26850000D01*
X39570000Y-26840000D02*
X39500000Y-26840000D01*
X36895000Y-26840000D02*
X36610000Y-26555000D01*
X36610000Y-26555000D02*
X36610000Y-24840000D01*
D29*
X30200000Y-24060000D02*
X35830000Y-24060000D01*
X35830000Y-24060000D02*
X36610000Y-24840000D01*
X24000000Y-24060000D02*
X30200000Y-24060000D01*
%TO.N,+3V3*%
X41200000Y-47100000D02*
X41200000Y-46700000D01*
X41150000Y-47150000D02*
X41200000Y-47100000D01*
X42300000Y-49400000D02*
X42300000Y-48300000D01*
X42300000Y-48300000D02*
X41150000Y-47150000D01*
X37550000Y-41550000D02*
X38800000Y-42800000D01*
X37550000Y-36000000D02*
X37550000Y-41550000D01*
X39800000Y-34650000D02*
X39800000Y-34400000D01*
X39800000Y-34400000D02*
X39150000Y-34400000D01*
X41250000Y-36100000D02*
X39800000Y-34650000D01*
X39150000Y-34400000D02*
X37550000Y-36000000D01*
%TO.N,+5V*%
X47700000Y-48000000D02*
X47900000Y-48000000D01*
X39900000Y-45850000D02*
X45700000Y-45850000D01*
X47900000Y-48000000D02*
X47900000Y-48100000D01*
X37350000Y-48850000D02*
X37350000Y-48300000D01*
X45700000Y-46555869D02*
X47144131Y-48000000D01*
X37350000Y-48300000D02*
X39850000Y-45800000D01*
X39850000Y-45800000D02*
X39900000Y-45850000D01*
X45700000Y-45850000D02*
X45700000Y-46555869D01*
X47900000Y-48100000D02*
X48200000Y-48400000D01*
X47144131Y-48000000D02*
X47700000Y-48000000D01*
%TO.N,GP17*%
D30*
X47800000Y-38700000D02*
X47400000Y-38300000D01*
X47400000Y-38300000D02*
X47400000Y-36950000D01*
X50850000Y-38700000D02*
X47800000Y-38700000D01*
X51000000Y-38850000D02*
X50850000Y-38700000D01*
X51000000Y-39000000D02*
X51000000Y-38850000D01*
%TO.N,Net-(U1-FB)*%
D29*
X35350000Y-48850000D02*
X35350000Y-50750000D01*
%TO.N,/din_1/DIGITAL_IN1*%
X44850000Y-22650000D02*
X46800000Y-22650000D01*
X44850000Y-22650000D02*
X44850000Y-25300000D01*
X44850000Y-25300000D02*
X44700000Y-25450000D01*
%TO.N,GP19*%
D30*
X44100000Y-43000000D02*
X45550000Y-44450000D01*
X45550000Y-44450000D02*
X46250000Y-44450000D01*
X46250000Y-44450000D02*
X46521948Y-44721948D01*
X46521948Y-44721948D02*
X46521948Y-45400000D01*
X46521948Y-45400000D02*
X46262500Y-45659448D01*
X46262500Y-45659448D02*
X46262500Y-46340552D01*
X46262500Y-46340552D02*
X47321948Y-47400000D01*
X50300000Y-47400000D02*
X51300000Y-46400000D01*
X47321948Y-47400000D02*
X50300000Y-47400000D01*
X50750000Y-36350000D02*
X50750000Y-35200000D01*
X51700000Y-37300000D02*
X50750000Y-36350000D01*
X51750000Y-37300000D02*
X51700000Y-37300000D01*
%TO.N,GP20*%
D29*
X52800000Y-40610000D02*
X51510000Y-40610000D01*
X51510000Y-40610000D02*
X51300000Y-40400000D01*
%TO.N,/din_2/DIGITAL_IN2*%
X50450000Y-37700000D02*
X49750000Y-37000000D01*
X49750000Y-37000000D02*
X49750000Y-30050000D01*
X49750000Y-30050000D02*
X51200000Y-28600000D01*
%TO.N,Net-(D6-K)*%
X45725000Y-37100000D02*
X45725000Y-36375000D01*
X45725000Y-36375000D02*
X45450000Y-36100000D01*
X48190184Y-35150000D02*
X47650000Y-35150000D01*
X48787500Y-35747316D02*
X48190184Y-35150000D01*
X48787500Y-37362500D02*
X48787500Y-35747316D01*
X48450000Y-37700000D02*
X48787500Y-37362500D01*
X43700000Y-37100000D02*
X45725000Y-37100000D01*
X43050000Y-39925000D02*
X43050000Y-37750000D01*
X43050000Y-37750000D02*
X43700000Y-37100000D01*
%TO.N,GP17*%
X39350000Y-37950000D02*
X42000000Y-37950000D01*
X42000000Y-37950000D02*
X42100000Y-38050000D01*
X39250000Y-36100000D02*
X39250000Y-37850000D01*
X39250000Y-37850000D02*
X39350000Y-37950000D01*
%TO.N,GP27*%
D30*
X34300000Y-31300000D02*
X34250000Y-31350000D01*
X37150000Y-31300000D02*
X34300000Y-31300000D01*
%TO.N,GP18*%
D29*
X24000000Y-20360000D02*
X30200000Y-20360000D01*
%TO.N,GP28*%
X44030000Y-31020000D02*
X48220000Y-31020000D01*
X48220000Y-31020000D02*
X48500000Y-31300000D01*
%TO.N,GP27*%
X37150000Y-31300000D02*
X41480000Y-31300000D01*
X41480000Y-31300000D02*
X41760000Y-31020000D01*
%TO.N,/ain_1/SENSOR1_RAW*%
X44030000Y-29020000D02*
X46095000Y-29020000D01*
X46095000Y-29020000D02*
X46425000Y-29350000D01*
%TO.N,/ain_2/SENSOR2_RAW*%
X37150000Y-29300000D02*
X39530000Y-29300000D01*
X39530000Y-29300000D02*
X39570000Y-29340000D01*
%TO.N,Net-(D4-K)*%
X47600000Y-51650000D02*
X47900000Y-51650000D01*
X46700000Y-50750000D02*
X47600000Y-51650000D01*
X47900000Y-51650000D02*
X48200000Y-51350000D01*
X48200000Y-51350000D02*
X49500000Y-51350000D01*
X46700000Y-50750000D02*
X44800000Y-50750000D01*
X44800000Y-50750000D02*
X44700000Y-50850000D01*
X44050000Y-53625000D02*
X44050000Y-51500000D01*
X44050000Y-51500000D02*
X44700000Y-50850000D01*
%TO.N,GP16*%
D30*
X44750000Y-54750000D02*
X42700000Y-54750000D01*
X52800000Y-45690000D02*
X52800000Y-48465256D01*
X50400000Y-52034744D02*
X49684744Y-52750000D01*
X52800000Y-48465256D02*
X50400000Y-50865256D01*
X46750000Y-52750000D02*
X44750000Y-54750000D01*
X50400000Y-50865256D02*
X50400000Y-52034744D01*
X42700000Y-54750000D02*
X43100000Y-54350000D01*
X49684744Y-52750000D02*
X46750000Y-52750000D01*
X43100000Y-54350000D02*
X43100000Y-51750000D01*
D29*
X40350000Y-51750000D02*
X43100000Y-51750000D01*
X40300000Y-49400000D02*
X40300000Y-51700000D01*
X40300000Y-51700000D02*
X40350000Y-51750000D01*
%TO.N,Net-(J3-Pin_2)*%
X30350000Y-33300000D02*
X30350000Y-27000000D01*
X36750000Y-39700000D02*
X30350000Y-33300000D01*
X39550000Y-45050000D02*
X38700000Y-45900000D01*
X38700000Y-45900000D02*
X36750000Y-45900000D01*
X36750000Y-45900000D02*
X36750000Y-39700000D01*
X45425000Y-45050000D02*
X39550000Y-45050000D01*
X30350000Y-27000000D02*
X30650000Y-27000000D01*
X30650000Y-27000000D02*
X30800000Y-26850000D01*
X30800000Y-26850000D02*
X32600000Y-26850000D01*
%TO.N,Net-(J4-Pin_2)*%
X45450000Y-42900000D02*
X45450000Y-41450000D01*
X45450000Y-41450000D02*
X45500000Y-41400000D01*
X35300000Y-32150000D02*
X36000000Y-32850000D01*
X33750000Y-32150000D02*
X35300000Y-32150000D01*
%TO.N,Net-(Q1-D)*%
X50050000Y-24900000D02*
X50000000Y-24850000D01*
X50050000Y-25000000D02*
X50050000Y-24900000D01*
%TO.N,/din_1/DIGITAL_IN1*%
X38420000Y-22650000D02*
X44850000Y-22650000D01*
X36610000Y-20840000D02*
X38420000Y-22650000D01*
X46800000Y-22650000D02*
X47950000Y-23800000D01*
X47950000Y-23800000D02*
X47950000Y-24896878D01*
X47950000Y-24896878D02*
X50323122Y-27270000D01*
X50323122Y-27270000D02*
X53290000Y-27270000D01*
%TO.N,/din_2/DIGITAL_IN2*%
X42500000Y-20750000D02*
X46350000Y-20750000D01*
X46350000Y-20750000D02*
X49250000Y-23650000D01*
X49250000Y-23650000D02*
X52170000Y-23650000D01*
X52170000Y-23650000D02*
X53290000Y-24770000D01*
%TO.N,VCC*%
D33*
X53290000Y-22270000D02*
X50120000Y-22270000D01*
X50120000Y-22270000D02*
X50050000Y-22200000D01*
%TO.N,GP26*%
D30*
X55070000Y-23050000D02*
X55100000Y-23050000D01*
D29*
X56300000Y-30200000D02*
X56300000Y-32000000D01*
%TO.N,Net-(D7-K)*%
X43050000Y-41850000D02*
X41050000Y-41850000D01*
X41050000Y-41850000D02*
X38100000Y-44800000D01*
%TO.N,+3.3VADC*%
X56370000Y-23050000D02*
X56370000Y-24330000D01*
X56370000Y-24330000D02*
X56300000Y-24400000D01*
%TD*%
%TA.AperFunction,Conductor*%
%TO.N,GND*%
G36*
X33462198Y-20980185D02*
G01*
X33482839Y-20996818D01*
X36256540Y-23770520D01*
X36256542Y-23770521D01*
X36256546Y-23770524D01*
X36344988Y-23821585D01*
X36393472Y-23849577D01*
X36546199Y-23890501D01*
X36546201Y-23890501D01*
X36711910Y-23890501D01*
X36711926Y-23890500D01*
X37239903Y-23890500D01*
X37306942Y-23910185D01*
X37327584Y-23926819D01*
X37658181Y-24257416D01*
X37691666Y-24318739D01*
X37694500Y-24345097D01*
X37694500Y-24858330D01*
X37694499Y-24858348D01*
X37694499Y-25024054D01*
X37694498Y-25024054D01*
X37735423Y-25176785D01*
X37758358Y-25216510D01*
X37759746Y-25218913D01*
X37785675Y-25263823D01*
X37814479Y-25313714D01*
X37814481Y-25313717D01*
X37933349Y-25432585D01*
X37933355Y-25432590D01*
X38555139Y-26054374D01*
X38555149Y-26054385D01*
X38559479Y-26058715D01*
X38559480Y-26058716D01*
X38671284Y-26170520D01*
X38671286Y-26170521D01*
X38671290Y-26170524D01*
X38743503Y-26212216D01*
X38743507Y-26212217D01*
X38743508Y-26212218D01*
X38775861Y-26230897D01*
X38808212Y-26249576D01*
X38808214Y-26249576D01*
X38808215Y-26249577D01*
X38960943Y-26290500D01*
X39119057Y-26290500D01*
X39871249Y-26290500D01*
X39938288Y-26310185D01*
X39958930Y-26326819D01*
X42393181Y-28761070D01*
X42426666Y-28822393D01*
X42429500Y-28848751D01*
X42429500Y-29799501D01*
X42409815Y-29866540D01*
X42357011Y-29912295D01*
X42292900Y-29922859D01*
X42260023Y-29919501D01*
X42260014Y-29919500D01*
X42260009Y-29919500D01*
X42260003Y-29919500D01*
X41259998Y-29919500D01*
X41259978Y-29919502D01*
X41182099Y-29927457D01*
X41113407Y-29914687D01*
X41062523Y-29866806D01*
X41045499Y-29804099D01*
X41045499Y-28689998D01*
X41045498Y-28689981D01*
X41034999Y-28587203D01*
X41034998Y-28587200D01*
X41013112Y-28521153D01*
X40979814Y-28420666D01*
X40887712Y-28271344D01*
X40763656Y-28147288D01*
X40650167Y-28077288D01*
X40614336Y-28055187D01*
X40614331Y-28055185D01*
X40569064Y-28040185D01*
X40447797Y-28000001D01*
X40447795Y-28000000D01*
X40345010Y-27989500D01*
X38794998Y-27989500D01*
X38794981Y-27989501D01*
X38692203Y-28000000D01*
X38692200Y-28000001D01*
X38525668Y-28055185D01*
X38525663Y-28055187D01*
X38376342Y-28147289D01*
X38252287Y-28271344D01*
X38228374Y-28310114D01*
X38176426Y-28356838D01*
X38107463Y-28368059D01*
X38057741Y-28350555D01*
X37957233Y-28288562D01*
X37919336Y-28265187D01*
X37919331Y-28265185D01*
X37917862Y-28264698D01*
X37752797Y-28210001D01*
X37752795Y-28210000D01*
X37650010Y-28199500D01*
X36649998Y-28199500D01*
X36649980Y-28199501D01*
X36547203Y-28210000D01*
X36547200Y-28210001D01*
X36380668Y-28265185D01*
X36380663Y-28265187D01*
X36231342Y-28357289D01*
X36107289Y-28481342D01*
X36015187Y-28630663D01*
X36015185Y-28630668D01*
X35999222Y-28678842D01*
X35960001Y-28797203D01*
X35960001Y-28797204D01*
X35960000Y-28797204D01*
X35949500Y-28899983D01*
X35949500Y-29700001D01*
X35949501Y-29700019D01*
X35960000Y-29802796D01*
X35960001Y-29802799D01*
X36012712Y-29961867D01*
X36015186Y-29969334D01*
X36103675Y-30112799D01*
X36107289Y-30118657D01*
X36200951Y-30212319D01*
X36234436Y-30273642D01*
X36229452Y-30343334D01*
X36200951Y-30387681D01*
X36107289Y-30481342D01*
X36011395Y-30636813D01*
X36009600Y-30635706D01*
X35970313Y-30680337D01*
X35904092Y-30699500D01*
X34754935Y-30699500D01*
X34687896Y-30679815D01*
X34686090Y-30678633D01*
X34629179Y-30640606D01*
X34629172Y-30640602D01*
X34483501Y-30580264D01*
X34483489Y-30580261D01*
X34328845Y-30549500D01*
X34328842Y-30549500D01*
X34171158Y-30549500D01*
X34171153Y-30549500D01*
X34097916Y-30564068D01*
X34028325Y-30557841D01*
X33973147Y-30514978D01*
X33949903Y-30449088D01*
X33965971Y-30381091D01*
X33968158Y-30377400D01*
X34034814Y-30269334D01*
X34089999Y-30102797D01*
X34100500Y-30000009D01*
X34100499Y-28699992D01*
X34099477Y-28689992D01*
X34089999Y-28597203D01*
X34089998Y-28597200D01*
X34064932Y-28521557D01*
X34034814Y-28430666D01*
X33942712Y-28281344D01*
X33818656Y-28157288D01*
X33669334Y-28065186D01*
X33669333Y-28065185D01*
X33663878Y-28061821D01*
X33617154Y-28009873D01*
X33605931Y-27940910D01*
X33633775Y-27876828D01*
X33641272Y-27868623D01*
X33780104Y-27729792D01*
X33905051Y-27557816D01*
X34001557Y-27368412D01*
X34067246Y-27166243D01*
X34100500Y-26956287D01*
X34100500Y-26743713D01*
X34067246Y-26533757D01*
X34001557Y-26331588D01*
X33905051Y-26142184D01*
X33905049Y-26142181D01*
X33905048Y-26142179D01*
X33780109Y-25970213D01*
X33629786Y-25819890D01*
X33457820Y-25694951D01*
X33268414Y-25598444D01*
X33268413Y-25598443D01*
X33268412Y-25598443D01*
X33066243Y-25532754D01*
X33066241Y-25532753D01*
X33066240Y-25532753D01*
X32891328Y-25505050D01*
X32856287Y-25499500D01*
X32343713Y-25499500D01*
X32308672Y-25505050D01*
X32133760Y-25532753D01*
X31931585Y-25598444D01*
X31742179Y-25694951D01*
X31570213Y-25819890D01*
X31419892Y-25970211D01*
X31363097Y-26048385D01*
X31307767Y-26091051D01*
X31262779Y-26099500D01*
X30726080Y-26099500D01*
X30581092Y-26128340D01*
X30581082Y-26128343D01*
X30444511Y-26184912D01*
X30444504Y-26184916D01*
X30428992Y-26195281D01*
X30421182Y-26200500D01*
X30379122Y-26228603D01*
X30312444Y-26249480D01*
X30310232Y-26249500D01*
X30276080Y-26249500D01*
X30131092Y-26278340D01*
X30131082Y-26278343D01*
X29994511Y-26334912D01*
X29994498Y-26334919D01*
X29871584Y-26417048D01*
X29871580Y-26417051D01*
X29767051Y-26521580D01*
X29767048Y-26521584D01*
X29684919Y-26644498D01*
X29684912Y-26644511D01*
X29628343Y-26781082D01*
X29628340Y-26781092D01*
X29599500Y-26926079D01*
X29599500Y-26926082D01*
X29599500Y-33373918D01*
X29599500Y-33373920D01*
X29599499Y-33373920D01*
X29628340Y-33518907D01*
X29628343Y-33518917D01*
X29684914Y-33655491D01*
X29684916Y-33655495D01*
X29705052Y-33685631D01*
X29714986Y-33700499D01*
X29767049Y-33778418D01*
X29767052Y-33778421D01*
X35963181Y-39974549D01*
X35996666Y-40035872D01*
X35999500Y-40062230D01*
X35999500Y-45973918D01*
X35999500Y-45973920D01*
X35999499Y-45973920D01*
X36028340Y-46118907D01*
X36028343Y-46118917D01*
X36084912Y-46255488D01*
X36084919Y-46255501D01*
X36167048Y-46378415D01*
X36167051Y-46378419D01*
X36271580Y-46482948D01*
X36271584Y-46482951D01*
X36394498Y-46565080D01*
X36394511Y-46565087D01*
X36527531Y-46620185D01*
X36531087Y-46621658D01*
X36531091Y-46621658D01*
X36531092Y-46621659D01*
X36676079Y-46650500D01*
X36676082Y-46650500D01*
X36823918Y-46650500D01*
X37638770Y-46650500D01*
X37705809Y-46670185D01*
X37751564Y-46722989D01*
X37761508Y-46792147D01*
X37732483Y-46855703D01*
X37726451Y-46862181D01*
X36969088Y-47619542D01*
X36907765Y-47653027D01*
X36894010Y-47655219D01*
X36847209Y-47660000D01*
X36847202Y-47660001D01*
X36680668Y-47715185D01*
X36680663Y-47715187D01*
X36531342Y-47807289D01*
X36437681Y-47900951D01*
X36376358Y-47934436D01*
X36306666Y-47929452D01*
X36262319Y-47900951D01*
X36168657Y-47807289D01*
X36168656Y-47807288D01*
X36019334Y-47715186D01*
X35852797Y-47660001D01*
X35852795Y-47660000D01*
X35750010Y-47649500D01*
X34949998Y-47649500D01*
X34949980Y-47649501D01*
X34847203Y-47660000D01*
X34847200Y-47660001D01*
X34680668Y-47715185D01*
X34680663Y-47715187D01*
X34531342Y-47807289D01*
X34407289Y-47931342D01*
X34315187Y-48080663D01*
X34315185Y-48080668D01*
X34309569Y-48097616D01*
X34260001Y-48247203D01*
X34260001Y-48247204D01*
X34260000Y-48247204D01*
X34249500Y-48349983D01*
X34249500Y-49350001D01*
X34249501Y-49350019D01*
X34260000Y-49452796D01*
X34260001Y-49452799D01*
X34315185Y-49619331D01*
X34315189Y-49619340D01*
X34386469Y-49734904D01*
X34404909Y-49802296D01*
X34386469Y-49865096D01*
X34315189Y-49980659D01*
X34315185Y-49980668D01*
X34298393Y-50031344D01*
X34260001Y-50147203D01*
X34260001Y-50147204D01*
X34260000Y-50147204D01*
X34249500Y-50249983D01*
X34249500Y-51250001D01*
X34249501Y-51250019D01*
X34260000Y-51352796D01*
X34260001Y-51352799D01*
X34308945Y-51500500D01*
X34315186Y-51519334D01*
X34407288Y-51668656D01*
X34531344Y-51792712D01*
X34680666Y-51884814D01*
X34847203Y-51939999D01*
X34949991Y-51950500D01*
X35750008Y-51950499D01*
X35750016Y-51950498D01*
X35750019Y-51950498D01*
X35806302Y-51944748D01*
X35852797Y-51939999D01*
X36019334Y-51884814D01*
X36168656Y-51792712D01*
X36292712Y-51668656D01*
X36384814Y-51519334D01*
X36439999Y-51352797D01*
X36450500Y-51250009D01*
X36450499Y-50249992D01*
X36439999Y-50147203D01*
X36417701Y-50079912D01*
X36415299Y-50010084D01*
X36451031Y-49950042D01*
X36513551Y-49918849D01*
X36583010Y-49926409D01*
X36600494Y-49935364D01*
X36680666Y-49984814D01*
X36847203Y-50039999D01*
X36949991Y-50050500D01*
X37750008Y-50050499D01*
X37750016Y-50050498D01*
X37750019Y-50050498D01*
X37806302Y-50044748D01*
X37852797Y-50039999D01*
X38019334Y-49984814D01*
X38168656Y-49892712D01*
X38292712Y-49768656D01*
X38384814Y-49619334D01*
X38439999Y-49452797D01*
X38450500Y-49350009D01*
X38450499Y-48349992D01*
X38448226Y-48327746D01*
X38460994Y-48259056D01*
X38483900Y-48227466D01*
X40074549Y-46636819D01*
X40092184Y-46627189D01*
X40106916Y-46613521D01*
X40125021Y-46609259D01*
X40135872Y-46603334D01*
X40146854Y-46604119D01*
X40162230Y-46600500D01*
X40275500Y-46600500D01*
X40342539Y-46620185D01*
X40388294Y-46672989D01*
X40399500Y-46724500D01*
X40399500Y-46778846D01*
X40424250Y-46903272D01*
X40424250Y-46916266D01*
X40426561Y-46923250D01*
X40424250Y-46932240D01*
X40424250Y-46951654D01*
X40399500Y-47076078D01*
X40399500Y-47076083D01*
X40399500Y-47223917D01*
X40399500Y-47223919D01*
X40399499Y-47223919D01*
X40428340Y-47368906D01*
X40428342Y-47368912D01*
X40478929Y-47491042D01*
X40484916Y-47505494D01*
X40567048Y-47628416D01*
X40567051Y-47628419D01*
X40567052Y-47628420D01*
X40567052Y-47628421D01*
X40950067Y-48011435D01*
X40983552Y-48072758D01*
X40978568Y-48142449D01*
X40936697Y-48198383D01*
X40871232Y-48222800D01*
X40823384Y-48216823D01*
X40802794Y-48210000D01*
X40802795Y-48210000D01*
X40700010Y-48199500D01*
X39899998Y-48199500D01*
X39899980Y-48199501D01*
X39797203Y-48210000D01*
X39797200Y-48210001D01*
X39630668Y-48265185D01*
X39630663Y-48265187D01*
X39481342Y-48357289D01*
X39357289Y-48481342D01*
X39265187Y-48630663D01*
X39265185Y-48630668D01*
X39249388Y-48678340D01*
X39210001Y-48797203D01*
X39210001Y-48797204D01*
X39210000Y-48797204D01*
X39199500Y-48899983D01*
X39199500Y-49900001D01*
X39199501Y-49900019D01*
X39210000Y-50002796D01*
X39210001Y-50002799D01*
X39265185Y-50169331D01*
X39265187Y-50169336D01*
X39283464Y-50198968D01*
X39357288Y-50318656D01*
X39481344Y-50442712D01*
X39490591Y-50448416D01*
X39537318Y-50500360D01*
X39549500Y-50553957D01*
X39549500Y-50665201D01*
X39529815Y-50732240D01*
X39490598Y-50770739D01*
X39431344Y-50807287D01*
X39307289Y-50931342D01*
X39215187Y-51080663D01*
X39215186Y-51080666D01*
X39160001Y-51247203D01*
X39160001Y-51247204D01*
X39160000Y-51247204D01*
X39149500Y-51349983D01*
X39149500Y-52150001D01*
X39149501Y-52150019D01*
X39160000Y-52252796D01*
X39160001Y-52252799D01*
X39202577Y-52381284D01*
X39215186Y-52419334D01*
X39307288Y-52568656D01*
X39431344Y-52692712D01*
X39580666Y-52784814D01*
X39747203Y-52839999D01*
X39849991Y-52850500D01*
X40850008Y-52850499D01*
X40850016Y-52850498D01*
X40850019Y-52850498D01*
X40906302Y-52844748D01*
X40952797Y-52839999D01*
X41119334Y-52784814D01*
X41268656Y-52692712D01*
X41392712Y-52568656D01*
X41398420Y-52559402D01*
X41450368Y-52512678D01*
X41503958Y-52500500D01*
X42226857Y-52500500D01*
X42293896Y-52520185D01*
X42339651Y-52572989D01*
X42345933Y-52589904D01*
X42348254Y-52597894D01*
X42348255Y-52597896D01*
X42431917Y-52739362D01*
X42431923Y-52739370D01*
X42463180Y-52770626D01*
X42496666Y-52831948D01*
X42499500Y-52858308D01*
X42499500Y-54049902D01*
X42479815Y-54116941D01*
X42463181Y-54137583D01*
X42219481Y-54381282D01*
X42219480Y-54381284D01*
X42180113Y-54449471D01*
X42169361Y-54468094D01*
X42169359Y-54468096D01*
X42140425Y-54518209D01*
X42140424Y-54518210D01*
X42140423Y-54518215D01*
X42099499Y-54670943D01*
X42099499Y-54670945D01*
X42099499Y-54829054D01*
X42099498Y-54829054D01*
X42140423Y-54981785D01*
X42169358Y-55031900D01*
X42169359Y-55031904D01*
X42169360Y-55031904D01*
X42213582Y-55108501D01*
X42219479Y-55118714D01*
X42219481Y-55118717D01*
X42331284Y-55230520D01*
X42418095Y-55280639D01*
X42418097Y-55280641D01*
X42456151Y-55302611D01*
X42468215Y-55309577D01*
X42620943Y-55350501D01*
X42620946Y-55350501D01*
X42786653Y-55350501D01*
X42786669Y-55350500D01*
X44663331Y-55350500D01*
X44663347Y-55350501D01*
X44670943Y-55350501D01*
X44829054Y-55350501D01*
X44829057Y-55350501D01*
X44981785Y-55309577D01*
X45031904Y-55280639D01*
X45118716Y-55230520D01*
X45230520Y-55118716D01*
X45230520Y-55118714D01*
X45240728Y-55108507D01*
X45240729Y-55108504D01*
X46962416Y-53386819D01*
X47023739Y-53353334D01*
X47050097Y-53350500D01*
X49598075Y-53350500D01*
X49598091Y-53350501D01*
X49605687Y-53350501D01*
X49763798Y-53350501D01*
X49763801Y-53350501D01*
X49916529Y-53309577D01*
X49966648Y-53280639D01*
X50053460Y-53230520D01*
X50165264Y-53118716D01*
X50165264Y-53118714D01*
X50175472Y-53108507D01*
X50175473Y-53108504D01*
X50752924Y-52531054D01*
X50814245Y-52497571D01*
X50879605Y-52501030D01*
X50997203Y-52539999D01*
X51099991Y-52550500D01*
X51423837Y-52550499D01*
X51490875Y-52570183D01*
X51536630Y-52622987D01*
X51546574Y-52692146D01*
X51517549Y-52755701D01*
X51507431Y-52766084D01*
X51285664Y-52968504D01*
X51281212Y-52972377D01*
X50825011Y-53350501D01*
X50654063Y-53492192D01*
X50649418Y-53495858D01*
X49998183Y-53985157D01*
X49993368Y-53988598D01*
X49319535Y-54446264D01*
X49314562Y-54449471D01*
X48619669Y-54874461D01*
X48614548Y-54877428D01*
X47900136Y-55268796D01*
X47894879Y-55271514D01*
X47162653Y-55628330D01*
X47157273Y-55630795D01*
X46408823Y-55952282D01*
X46403331Y-55954487D01*
X45640417Y-56239889D01*
X45634826Y-56241830D01*
X44859159Y-56490508D01*
X44853482Y-56492180D01*
X44066813Y-56703572D01*
X44061063Y-56704971D01*
X43265225Y-56878584D01*
X43259415Y-56879707D01*
X42456179Y-57015154D01*
X42450321Y-57015998D01*
X41641563Y-57112965D01*
X41635672Y-57113529D01*
X40823212Y-57171797D01*
X40817301Y-57172080D01*
X40002959Y-57191518D01*
X39997041Y-57191518D01*
X39182698Y-57172080D01*
X39176787Y-57171797D01*
X38364327Y-57113529D01*
X38358436Y-57112965D01*
X37549678Y-57015998D01*
X37543820Y-57015154D01*
X36740584Y-56879707D01*
X36734774Y-56878584D01*
X35938936Y-56704971D01*
X35933186Y-56703572D01*
X35146517Y-56492180D01*
X35140840Y-56490508D01*
X34365173Y-56241830D01*
X34359582Y-56239889D01*
X33596668Y-55954487D01*
X33591176Y-55952282D01*
X32842726Y-55630795D01*
X32837346Y-55628330D01*
X32105120Y-55271514D01*
X32099863Y-55268796D01*
X31575947Y-54981785D01*
X31385440Y-54877421D01*
X31380341Y-54874467D01*
X31047565Y-54670945D01*
X30685437Y-54449471D01*
X30680464Y-54446264D01*
X30006631Y-53988598D01*
X30001816Y-53985157D01*
X29350581Y-53495858D01*
X29345963Y-53492213D01*
X28718766Y-52972359D01*
X28714345Y-52968513D01*
X28112709Y-52419365D01*
X28108434Y-52415272D01*
X27533686Y-51838046D01*
X27529612Y-51833754D01*
X27380214Y-51668656D01*
X26983059Y-51229763D01*
X26979223Y-51225316D01*
X26575884Y-50734409D01*
X26462099Y-50595921D01*
X26458452Y-50591260D01*
X26168915Y-50202428D01*
X25971944Y-49937907D01*
X25968546Y-49933108D01*
X25513772Y-49257296D01*
X25510594Y-49252321D01*
X25434218Y-49126225D01*
X25088580Y-48555578D01*
X25085640Y-48550450D01*
X25046814Y-48478846D01*
X24697359Y-47834379D01*
X24694671Y-47829126D01*
X24691976Y-47823535D01*
X24341002Y-47095356D01*
X24338560Y-47089965D01*
X24272146Y-46933495D01*
X24020288Y-46340121D01*
X24018113Y-46334634D01*
X24009877Y-46312325D01*
X23735990Y-45570487D01*
X23734086Y-45564926D01*
X23488726Y-44788129D01*
X23487096Y-44782505D01*
X23279078Y-43994887D01*
X23277720Y-43989197D01*
X23107517Y-43192553D01*
X23106430Y-43186792D01*
X22974439Y-42382976D01*
X22973621Y-42377128D01*
X22880125Y-41567882D01*
X22879594Y-41562056D01*
X22824818Y-40749318D01*
X22824562Y-40743410D01*
X22823488Y-40688541D01*
X22808628Y-39929009D01*
X22808653Y-39923094D01*
X22809590Y-39889834D01*
X22831595Y-39108810D01*
X22831900Y-39102965D01*
X22893667Y-38290691D01*
X22894249Y-38284880D01*
X22991082Y-37505606D01*
X22994361Y-37488806D01*
X22995678Y-37483891D01*
X23000500Y-37465897D01*
X23000500Y-37446141D01*
X23001846Y-37427918D01*
X23004750Y-37408374D01*
X23001309Y-37378402D01*
X23000500Y-37364259D01*
X23000500Y-35608543D01*
X24929499Y-35608543D01*
X24967947Y-35801829D01*
X24967950Y-35801839D01*
X24994733Y-35866498D01*
X25043368Y-35983914D01*
X25053783Y-35999501D01*
X25104971Y-36076110D01*
X25125848Y-36142787D01*
X25107363Y-36210167D01*
X25104971Y-36213890D01*
X25043366Y-36306089D01*
X24967950Y-36488160D01*
X24967947Y-36488170D01*
X24929500Y-36681456D01*
X24929500Y-36681459D01*
X24929500Y-36878541D01*
X24929500Y-36878543D01*
X24929499Y-36878543D01*
X24967947Y-37071829D01*
X24967950Y-37071839D01*
X25020829Y-37199500D01*
X25043368Y-37253914D01*
X25087352Y-37319740D01*
X25104971Y-37346110D01*
X25125848Y-37412787D01*
X25107363Y-37480167D01*
X25104971Y-37483890D01*
X25043366Y-37576089D01*
X24967950Y-37758160D01*
X24967947Y-37758170D01*
X24929500Y-37951456D01*
X24929500Y-37951459D01*
X24929500Y-38148541D01*
X24929500Y-38148543D01*
X24929499Y-38148543D01*
X24967947Y-38341829D01*
X24967950Y-38341839D01*
X25034110Y-38501564D01*
X25043368Y-38523914D01*
X25056732Y-38543914D01*
X25104971Y-38616110D01*
X25125848Y-38682787D01*
X25107363Y-38750167D01*
X25104971Y-38753890D01*
X25043366Y-38846089D01*
X24967950Y-39028160D01*
X24967947Y-39028170D01*
X24929500Y-39221456D01*
X24929500Y-39221459D01*
X24929500Y-39418541D01*
X24929500Y-39418543D01*
X24929499Y-39418543D01*
X24967947Y-39611829D01*
X24967950Y-39611839D01*
X25043366Y-39793910D01*
X25043368Y-39793914D01*
X25056027Y-39812859D01*
X25104971Y-39886110D01*
X25125848Y-39952787D01*
X25107363Y-40020167D01*
X25104971Y-40023890D01*
X25043366Y-40116089D01*
X24967950Y-40298160D01*
X24967947Y-40298170D01*
X24929500Y-40491456D01*
X24929500Y-40491459D01*
X24929500Y-40688541D01*
X24929500Y-40688543D01*
X24929499Y-40688543D01*
X24967947Y-40881829D01*
X24967950Y-40881839D01*
X25029559Y-41030576D01*
X25043368Y-41063914D01*
X25079662Y-41118232D01*
X25104971Y-41156110D01*
X25125848Y-41222787D01*
X25107363Y-41290167D01*
X25104971Y-41293890D01*
X25043366Y-41386089D01*
X24967950Y-41568160D01*
X24967947Y-41568170D01*
X24929500Y-41761456D01*
X24929500Y-41761459D01*
X24929500Y-41958541D01*
X24929500Y-41958543D01*
X24929499Y-41958543D01*
X24967947Y-42151829D01*
X24967950Y-42151839D01*
X25025429Y-42290606D01*
X25043368Y-42333914D01*
X25072243Y-42377128D01*
X25104971Y-42426110D01*
X25125848Y-42492787D01*
X25107363Y-42560167D01*
X25104971Y-42563890D01*
X25043366Y-42656089D01*
X24967950Y-42838160D01*
X24967947Y-42838170D01*
X24929500Y-43031456D01*
X24929500Y-43031459D01*
X24929500Y-43228541D01*
X24929500Y-43228543D01*
X24929499Y-43228543D01*
X24967947Y-43421829D01*
X24967950Y-43421839D01*
X25030578Y-43573036D01*
X25043368Y-43603914D01*
X25087349Y-43669737D01*
X25104971Y-43696110D01*
X25125848Y-43762787D01*
X25107363Y-43830167D01*
X25104971Y-43833890D01*
X25043366Y-43926089D01*
X24967950Y-44108160D01*
X24967947Y-44108170D01*
X24929500Y-44301456D01*
X24929500Y-44301459D01*
X24929500Y-44498541D01*
X24929500Y-44498543D01*
X24929499Y-44498543D01*
X24967947Y-44691829D01*
X24967950Y-44691839D01*
X25007847Y-44788159D01*
X25043368Y-44873914D01*
X25087352Y-44939740D01*
X25104971Y-44966110D01*
X25125848Y-45032787D01*
X25107363Y-45100167D01*
X25104971Y-45103890D01*
X25043366Y-45196089D01*
X24967950Y-45378160D01*
X24967947Y-45378170D01*
X24929500Y-45571456D01*
X24929500Y-45571459D01*
X24929500Y-45768541D01*
X24929500Y-45768543D01*
X24929499Y-45768543D01*
X24967947Y-45961829D01*
X24967950Y-45961839D01*
X25043364Y-46143907D01*
X25043371Y-46143920D01*
X25152860Y-46307781D01*
X25152863Y-46307785D01*
X25292214Y-46447136D01*
X25292218Y-46447139D01*
X25456079Y-46556628D01*
X25456092Y-46556635D01*
X25613069Y-46621656D01*
X25638165Y-46632051D01*
X25638169Y-46632051D01*
X25638170Y-46632052D01*
X25831456Y-46670500D01*
X25831459Y-46670500D01*
X26028543Y-46670500D01*
X26158582Y-46644632D01*
X26221835Y-46632051D01*
X26403914Y-46556632D01*
X26496109Y-46495029D01*
X26562786Y-46474151D01*
X26630166Y-46492635D01*
X26633891Y-46495029D01*
X26726086Y-46556632D01*
X26726088Y-46556633D01*
X26726092Y-46556635D01*
X26883069Y-46621656D01*
X26908165Y-46632051D01*
X26908169Y-46632051D01*
X26908170Y-46632052D01*
X27101456Y-46670500D01*
X27101459Y-46670500D01*
X27298543Y-46670500D01*
X27428582Y-46644632D01*
X27491835Y-46632051D01*
X27673914Y-46556632D01*
X27837782Y-46447139D01*
X27977139Y-46307782D01*
X28086632Y-46143914D01*
X28162051Y-45961835D01*
X28200465Y-45768717D01*
X28200500Y-45768543D01*
X28200500Y-45571456D01*
X28162052Y-45378170D01*
X28162051Y-45378169D01*
X28162051Y-45378165D01*
X28138349Y-45320943D01*
X28086635Y-45196092D01*
X28086633Y-45196088D01*
X28086632Y-45196086D01*
X28025029Y-45103891D01*
X28004151Y-45037214D01*
X28022635Y-44969834D01*
X28025029Y-44966109D01*
X28037872Y-44946887D01*
X28086632Y-44873914D01*
X28162051Y-44691835D01*
X28200500Y-44498541D01*
X28200500Y-44301459D01*
X28200500Y-44301456D01*
X28162052Y-44108170D01*
X28162051Y-44108169D01*
X28162051Y-44108165D01*
X28154778Y-44090606D01*
X28086635Y-43926092D01*
X28086633Y-43926088D01*
X28086632Y-43926086D01*
X28025029Y-43833891D01*
X28004151Y-43767214D01*
X28022635Y-43699834D01*
X28025029Y-43696109D01*
X28042650Y-43669737D01*
X28086632Y-43603914D01*
X28162051Y-43421835D01*
X28189903Y-43281815D01*
X28200500Y-43228543D01*
X28200500Y-43031456D01*
X28162052Y-42838170D01*
X28162051Y-42838169D01*
X28162051Y-42838165D01*
X28155005Y-42821155D01*
X28086635Y-42656092D01*
X28086633Y-42656088D01*
X28086632Y-42656086D01*
X28025029Y-42563891D01*
X28004151Y-42497214D01*
X28022635Y-42429834D01*
X28025029Y-42426109D01*
X28037872Y-42406887D01*
X28086632Y-42333914D01*
X28162051Y-42151835D01*
X28194336Y-41989529D01*
X28200500Y-41958543D01*
X28200500Y-41761456D01*
X28162052Y-41568170D01*
X28162051Y-41568169D01*
X28162051Y-41568165D01*
X28121730Y-41470821D01*
X28086635Y-41386092D01*
X28086633Y-41386088D01*
X28086632Y-41386086D01*
X28062853Y-41350498D01*
X28025029Y-41293891D01*
X28004151Y-41227214D01*
X28022635Y-41159834D01*
X28025029Y-41156109D01*
X28043584Y-41128340D01*
X28086632Y-41063914D01*
X28162051Y-40881835D01*
X28188410Y-40749322D01*
X28200500Y-40688543D01*
X28200500Y-40491456D01*
X28162052Y-40298170D01*
X28162051Y-40298169D01*
X28162051Y-40298165D01*
X28120772Y-40198507D01*
X28086635Y-40116092D01*
X28086633Y-40116088D01*
X28086632Y-40116086D01*
X28033034Y-40035872D01*
X28025029Y-40023891D01*
X28019227Y-40005362D01*
X28008866Y-39988940D01*
X28009001Y-39972705D01*
X28004151Y-39957214D01*
X28009287Y-39938489D01*
X28009450Y-39919072D01*
X28021758Y-39893028D01*
X28022635Y-39889834D01*
X28024379Y-39887091D01*
X28024682Y-39886627D01*
X28049167Y-39849983D01*
X29099500Y-39849983D01*
X29099500Y-40650001D01*
X29099501Y-40650019D01*
X29110000Y-40752796D01*
X29110001Y-40752799D01*
X29152758Y-40881829D01*
X29165186Y-40919334D01*
X29257288Y-41068656D01*
X29381344Y-41192712D01*
X29530666Y-41284814D01*
X29697203Y-41339999D01*
X29799991Y-41350500D01*
X29924681Y-41350499D01*
X29972133Y-41359938D01*
X30116498Y-41419735D01*
X30116503Y-41419737D01*
X30271153Y-41450499D01*
X30271156Y-41450500D01*
X30271158Y-41450500D01*
X30428844Y-41450500D01*
X30428845Y-41450499D01*
X30583497Y-41419737D01*
X30664731Y-41386089D01*
X30727867Y-41359938D01*
X30775319Y-41350499D01*
X30800002Y-41350499D01*
X30800008Y-41350499D01*
X30902797Y-41339999D01*
X31069334Y-41284814D01*
X31218656Y-41192712D01*
X31342712Y-41068656D01*
X31434814Y-40919334D01*
X31489999Y-40752797D01*
X31500500Y-40650009D01*
X31500499Y-39849992D01*
X31489999Y-39747203D01*
X31434814Y-39580666D01*
X31342712Y-39431344D01*
X31218656Y-39307288D01*
X31108340Y-39239245D01*
X31069336Y-39215187D01*
X31069331Y-39215185D01*
X31045107Y-39207158D01*
X30902797Y-39160001D01*
X30902795Y-39160000D01*
X30800010Y-39149500D01*
X29799998Y-39149500D01*
X29799980Y-39149501D01*
X29697203Y-39160000D01*
X29697200Y-39160001D01*
X29530668Y-39215185D01*
X29530663Y-39215187D01*
X29381342Y-39307289D01*
X29257289Y-39431342D01*
X29165187Y-39580663D01*
X29165185Y-39580668D01*
X29146851Y-39635996D01*
X29110001Y-39747203D01*
X29110001Y-39747204D01*
X29110000Y-39747204D01*
X29099500Y-39849983D01*
X28049167Y-39849983D01*
X28086632Y-39793914D01*
X28162051Y-39611835D01*
X28188008Y-39481344D01*
X28200500Y-39418543D01*
X28200500Y-39221456D01*
X28162052Y-39028170D01*
X28162051Y-39028169D01*
X28162051Y-39028165D01*
X28120828Y-38928642D01*
X28086635Y-38846092D01*
X28086633Y-38846088D01*
X28086632Y-38846086D01*
X28025029Y-38753891D01*
X28004151Y-38687214D01*
X28022635Y-38619834D01*
X28025029Y-38616109D01*
X28037872Y-38596887D01*
X28086632Y-38523914D01*
X28162051Y-38341835D01*
X28190165Y-38200498D01*
X28200500Y-38148543D01*
X28200500Y-37951456D01*
X28162052Y-37758170D01*
X28162051Y-37758169D01*
X28162051Y-37758165D01*
X28156335Y-37744365D01*
X28086635Y-37576092D01*
X28086633Y-37576088D01*
X28086632Y-37576086D01*
X28086628Y-37576080D01*
X28025029Y-37483891D01*
X28004151Y-37417214D01*
X28022635Y-37349834D01*
X28025029Y-37346109D01*
X28037872Y-37326887D01*
X28086632Y-37253914D01*
X28162051Y-37071835D01*
X28181017Y-36976488D01*
X28200500Y-36878543D01*
X28200500Y-36681456D01*
X28162052Y-36488170D01*
X28162051Y-36488169D01*
X28162051Y-36488165D01*
X28147614Y-36453311D01*
X28086635Y-36306092D01*
X28086633Y-36306088D01*
X28086632Y-36306086D01*
X28025029Y-36213891D01*
X28004151Y-36147214D01*
X28022635Y-36079834D01*
X28025029Y-36076109D01*
X28069201Y-36010001D01*
X28086632Y-35983914D01*
X28162051Y-35801835D01*
X28179776Y-35712726D01*
X28200500Y-35608543D01*
X28200500Y-35411456D01*
X28162052Y-35218170D01*
X28162051Y-35218169D01*
X28162051Y-35218165D01*
X28162049Y-35218160D01*
X28086635Y-35036092D01*
X28086633Y-35036088D01*
X28086632Y-35036086D01*
X28058586Y-34994113D01*
X28025029Y-34943891D01*
X28004151Y-34877214D01*
X28022635Y-34809834D01*
X28025029Y-34806109D01*
X28061850Y-34751002D01*
X28086632Y-34713914D01*
X28089346Y-34707363D01*
X28115854Y-34643366D01*
X28162051Y-34531835D01*
X28187181Y-34405500D01*
X28200500Y-34338543D01*
X28200500Y-34141456D01*
X28162052Y-33948170D01*
X28162051Y-33948169D01*
X28162051Y-33948165D01*
X28151039Y-33921580D01*
X28086635Y-33766092D01*
X28086628Y-33766079D01*
X27977139Y-33602218D01*
X27977136Y-33602214D01*
X27837785Y-33462863D01*
X27837781Y-33462860D01*
X27673920Y-33353371D01*
X27673907Y-33353364D01*
X27491839Y-33277950D01*
X27491829Y-33277947D01*
X27298543Y-33239500D01*
X27298541Y-33239500D01*
X27101459Y-33239500D01*
X27101457Y-33239500D01*
X26908171Y-33277947D01*
X26908168Y-33277948D01*
X26908166Y-33277948D01*
X26908165Y-33277949D01*
X26908163Y-33277950D01*
X26805874Y-33320318D01*
X26736404Y-33327785D01*
X26684113Y-33305023D01*
X26672335Y-33296206D01*
X26672328Y-33296202D01*
X26537482Y-33245908D01*
X26537483Y-33245908D01*
X26477883Y-33239501D01*
X26477881Y-33239500D01*
X26477873Y-33239500D01*
X26477864Y-33239500D01*
X25382129Y-33239500D01*
X25382123Y-33239501D01*
X25322516Y-33245908D01*
X25187671Y-33296202D01*
X25187664Y-33296206D01*
X25072455Y-33382452D01*
X25072452Y-33382455D01*
X24986206Y-33497664D01*
X24986202Y-33497671D01*
X24935908Y-33632517D01*
X24929501Y-33692116D01*
X24929500Y-33692135D01*
X24929500Y-34787870D01*
X24929501Y-34787876D01*
X24935908Y-34847483D01*
X24986202Y-34982328D01*
X24986206Y-34982335D01*
X24995023Y-34994113D01*
X25019440Y-35059578D01*
X25010318Y-35115874D01*
X24967948Y-35218168D01*
X24967947Y-35218171D01*
X24929500Y-35411456D01*
X24929500Y-35411459D01*
X24929500Y-35608541D01*
X24929500Y-35608543D01*
X24929499Y-35608543D01*
X23000500Y-35608543D01*
X23000500Y-26753713D01*
X24194500Y-26753713D01*
X24194500Y-26966286D01*
X24226169Y-27166239D01*
X24227754Y-27176243D01*
X24290194Y-27368414D01*
X24293444Y-27378414D01*
X24389951Y-27567820D01*
X24514890Y-27739786D01*
X24653705Y-27878601D01*
X24687190Y-27939924D01*
X24682206Y-28009616D01*
X24640334Y-28065549D01*
X24631121Y-28071821D01*
X24476342Y-28167289D01*
X24352289Y-28291342D01*
X24260187Y-28440663D01*
X24260185Y-28440668D01*
X24233515Y-28521153D01*
X24205001Y-28607203D01*
X24205001Y-28607204D01*
X24205000Y-28607204D01*
X24194500Y-28709983D01*
X24194500Y-30010001D01*
X24194501Y-30010018D01*
X24205000Y-30112796D01*
X24205001Y-30112799D01*
X24260185Y-30279331D01*
X24260187Y-30279336D01*
X24295069Y-30335888D01*
X24352288Y-30428656D01*
X24476344Y-30552712D01*
X24625666Y-30644814D01*
X24792203Y-30699999D01*
X24894991Y-30710500D01*
X26495008Y-30710499D01*
X26597797Y-30699999D01*
X26764334Y-30644814D01*
X26913656Y-30552712D01*
X27037712Y-30428656D01*
X27129814Y-30279334D01*
X27184999Y-30112797D01*
X27195500Y-30010009D01*
X27195499Y-28709992D01*
X27194477Y-28699992D01*
X27184999Y-28607203D01*
X27184998Y-28607200D01*
X27178371Y-28587200D01*
X27129814Y-28440666D01*
X27037712Y-28291344D01*
X26913656Y-28167288D01*
X26764334Y-28075186D01*
X26764333Y-28075185D01*
X26758878Y-28071821D01*
X26712154Y-28019873D01*
X26700931Y-27950910D01*
X26728775Y-27886828D01*
X26736272Y-27878623D01*
X26875104Y-27739792D01*
X26882370Y-27729792D01*
X27000048Y-27567820D01*
X27000047Y-27567820D01*
X27000051Y-27567816D01*
X27096557Y-27378412D01*
X27162246Y-27176243D01*
X27195500Y-26966287D01*
X27195500Y-26753713D01*
X27162246Y-26543757D01*
X27096557Y-26341588D01*
X27000051Y-26152184D01*
X27000049Y-26152181D01*
X27000048Y-26152179D01*
X26875109Y-25980213D01*
X26724786Y-25829890D01*
X26552820Y-25704951D01*
X26363414Y-25608444D01*
X26363413Y-25608443D01*
X26363412Y-25608443D01*
X26161243Y-25542754D01*
X26161241Y-25542753D01*
X26161240Y-25542753D01*
X25971882Y-25512762D01*
X25951287Y-25509500D01*
X25438713Y-25509500D01*
X25418118Y-25512762D01*
X25228760Y-25542753D01*
X25026585Y-25608444D01*
X24837179Y-25704951D01*
X24665213Y-25829890D01*
X24514890Y-25980213D01*
X24389951Y-26152179D01*
X24293444Y-26341585D01*
X24227753Y-26543760D01*
X24194500Y-26753713D01*
X23000500Y-26753713D01*
X23000500Y-23634000D01*
X23020185Y-23566961D01*
X23072989Y-23521206D01*
X23124500Y-23510000D01*
X26100000Y-23510000D01*
X26100000Y-21234500D01*
X26119685Y-21167461D01*
X26172489Y-21121706D01*
X26224000Y-21110500D01*
X27976000Y-21110500D01*
X28043039Y-21130185D01*
X28088794Y-21182989D01*
X28100000Y-21234500D01*
X28100000Y-23510000D01*
X31100000Y-23510000D01*
X31100000Y-21527030D01*
X31119685Y-21459991D01*
X31172489Y-21414236D01*
X31200116Y-21406657D01*
X31199932Y-21405876D01*
X31207479Y-21404092D01*
X31207481Y-21404091D01*
X31207483Y-21404091D01*
X31342331Y-21353796D01*
X31457546Y-21267546D01*
X31543796Y-21152331D01*
X31559398Y-21110500D01*
X31585258Y-21041167D01*
X31627129Y-20985233D01*
X31692593Y-20960816D01*
X31701440Y-20960500D01*
X33395159Y-20960500D01*
X33462198Y-20980185D01*
G37*
%TD.AperFunction*%
%TA.AperFunction,Conductor*%
G36*
X44908949Y-46620185D02*
G01*
X44954704Y-46672989D01*
X44963527Y-46700307D01*
X44978341Y-46774777D01*
X44978343Y-46774786D01*
X45034913Y-46911359D01*
X45034914Y-46911360D01*
X45034916Y-46911364D01*
X45048865Y-46932240D01*
X45049704Y-46933495D01*
X45049705Y-46933497D01*
X45117051Y-47034289D01*
X45117052Y-47034290D01*
X46561180Y-48478416D01*
X46665715Y-48582951D01*
X46665718Y-48582953D01*
X46665719Y-48582954D01*
X46788625Y-48665077D01*
X46788627Y-48665078D01*
X46788636Y-48665084D01*
X46820642Y-48678341D01*
X46820643Y-48678342D01*
X46820644Y-48678342D01*
X46925219Y-48721659D01*
X47041372Y-48744763D01*
X47060599Y-48748587D01*
X47070212Y-48750500D01*
X47070213Y-48750500D01*
X47070214Y-48750500D01*
X47218049Y-48750500D01*
X47395396Y-48750500D01*
X47442841Y-48759936D01*
X47456351Y-48765532D01*
X47510754Y-48809370D01*
X47512002Y-48811202D01*
X47578210Y-48910288D01*
X47578213Y-48910292D01*
X47607198Y-48939277D01*
X47640683Y-49000600D01*
X47635699Y-49070292D01*
X47593827Y-49126225D01*
X47587736Y-49130289D01*
X47585629Y-49131923D01*
X47469423Y-49248129D01*
X47469417Y-49248137D01*
X47385755Y-49389603D01*
X47385754Y-49389606D01*
X47339902Y-49547426D01*
X47339901Y-49547432D01*
X47337000Y-49584298D01*
X47337000Y-49825500D01*
X47317315Y-49892539D01*
X47264511Y-49938294D01*
X47213000Y-49949500D01*
X46046798Y-49949500D01*
X46009932Y-49952401D01*
X46009926Y-49952402D01*
X45864767Y-49994576D01*
X45830172Y-49999500D01*
X45762230Y-49999500D01*
X45695191Y-49979815D01*
X45674549Y-49963181D01*
X45618657Y-49907289D01*
X45618656Y-49907288D01*
X45525888Y-49850069D01*
X45469336Y-49815187D01*
X45469331Y-49815185D01*
X45467862Y-49814698D01*
X45302797Y-49760001D01*
X45302795Y-49760000D01*
X45200010Y-49749500D01*
X44199998Y-49749500D01*
X44199980Y-49749501D01*
X44097203Y-49760000D01*
X44097200Y-49760001D01*
X43930668Y-49815185D01*
X43930663Y-49815187D01*
X43781342Y-49907289D01*
X43657289Y-50031342D01*
X43615757Y-50098677D01*
X43563809Y-50145401D01*
X43494846Y-50156623D01*
X43430764Y-50128780D01*
X43391908Y-50070711D01*
X43388967Y-50007616D01*
X43389999Y-50002796D01*
X43395147Y-49952402D01*
X43400500Y-49900009D01*
X43400499Y-48899992D01*
X43396194Y-48857853D01*
X43389999Y-48797203D01*
X43389998Y-48797200D01*
X43380898Y-48769737D01*
X43334814Y-48630666D01*
X43242712Y-48481344D01*
X43118656Y-48357288D01*
X43118655Y-48357287D01*
X43109402Y-48351580D01*
X43062678Y-48299632D01*
X43050500Y-48246042D01*
X43050500Y-48226081D01*
X43050499Y-48226080D01*
X43040124Y-48173918D01*
X43021659Y-48081088D01*
X42967408Y-47950117D01*
X42965764Y-47945522D01*
X42884255Y-47823534D01*
X42884255Y-47823535D01*
X42882952Y-47821585D01*
X42020772Y-46959405D01*
X41987287Y-46898082D01*
X41986836Y-46847531D01*
X41989723Y-46833021D01*
X41998620Y-46788294D01*
X42000500Y-46778843D01*
X42000500Y-46724500D01*
X42020185Y-46657461D01*
X42072989Y-46611706D01*
X42124500Y-46600500D01*
X44841910Y-46600500D01*
X44908949Y-46620185D01*
G37*
%TD.AperFunction*%
%TA.AperFunction,Conductor*%
G36*
X47279800Y-45356951D02*
G01*
X47296910Y-45359250D01*
X47310920Y-45371164D01*
X47327652Y-45378805D01*
X47334130Y-45384837D01*
X48163181Y-46213888D01*
X48196666Y-46275211D01*
X48199500Y-46301569D01*
X48199500Y-46495029D01*
X48199501Y-46675500D01*
X48179817Y-46742539D01*
X48127013Y-46788294D01*
X48075501Y-46799500D01*
X47622046Y-46799500D01*
X47555007Y-46779815D01*
X47534365Y-46763181D01*
X46899319Y-46128135D01*
X46865834Y-46066812D01*
X46863000Y-46040454D01*
X46863000Y-45959546D01*
X46882685Y-45892507D01*
X46899319Y-45871865D01*
X47002468Y-45768716D01*
X47071297Y-45649500D01*
X47081525Y-45631785D01*
X47122449Y-45479057D01*
X47122449Y-45455275D01*
X47127152Y-45438690D01*
X47136952Y-45423123D01*
X47142134Y-45405479D01*
X47155179Y-45394174D01*
X47164379Y-45379564D01*
X47181039Y-45371767D01*
X47194938Y-45359724D01*
X47212023Y-45357267D01*
X47227662Y-45349949D01*
X47245891Y-45352397D01*
X47264096Y-45349780D01*
X47279800Y-45356951D01*
G37*
%TD.AperFunction*%
%TA.AperFunction,Conductor*%
G36*
X55607072Y-33060132D02*
G01*
X55697203Y-33089999D01*
X55799991Y-33100500D01*
X56800008Y-33100499D01*
X56862899Y-33094074D01*
X56931590Y-33106843D01*
X56982475Y-33154723D01*
X56999500Y-33217432D01*
X56999500Y-37364259D01*
X56998691Y-37378402D01*
X56995250Y-37408374D01*
X56998154Y-37427918D01*
X56999500Y-37446141D01*
X56999500Y-37465895D01*
X56999501Y-37465904D01*
X57005638Y-37488812D01*
X57008916Y-37505609D01*
X57105746Y-38284842D01*
X57106335Y-38290731D01*
X57168097Y-39102933D01*
X57168405Y-39108843D01*
X57191346Y-39923094D01*
X57191371Y-39929012D01*
X57175437Y-40743410D01*
X57175180Y-40749322D01*
X57120408Y-41562022D01*
X57119870Y-41567916D01*
X57026378Y-42377128D01*
X57025558Y-42382988D01*
X56893574Y-43186764D01*
X56892476Y-43192580D01*
X56722287Y-43989164D01*
X56720913Y-43994920D01*
X56512911Y-44782475D01*
X56511264Y-44788159D01*
X56265919Y-45564906D01*
X56264002Y-45570505D01*
X56010825Y-46256252D01*
X55969140Y-46312325D01*
X55903757Y-46336959D01*
X55835435Y-46322334D01*
X55785866Y-46273093D01*
X55770500Y-46213305D01*
X55770500Y-33792578D01*
X55770499Y-33792577D01*
X55754825Y-33713775D01*
X55741659Y-33647585D01*
X55692503Y-33528913D01*
X55688361Y-33518913D01*
X55685087Y-33511008D01*
X55685085Y-33511004D01*
X55685084Y-33511002D01*
X55628598Y-33426465D01*
X55622619Y-33417516D01*
X55602954Y-33388084D01*
X55480390Y-33265520D01*
X55446905Y-33204197D01*
X55451889Y-33134505D01*
X55493761Y-33078572D01*
X55559225Y-33054155D01*
X55607072Y-33060132D01*
G37*
%TD.AperFunction*%
%TA.AperFunction,Conductor*%
G36*
X47966940Y-41770185D02*
G01*
X47987582Y-41786818D01*
X48081284Y-41880520D01*
X48081286Y-41880521D01*
X48081290Y-41880524D01*
X48216425Y-41958543D01*
X48218216Y-41959577D01*
X48330019Y-41989534D01*
X48370942Y-42000500D01*
X48370943Y-42000500D01*
X49525500Y-42000500D01*
X49592539Y-42020185D01*
X49638294Y-42072989D01*
X49649500Y-42124500D01*
X49649500Y-42848074D01*
X49649499Y-42848092D01*
X49649499Y-43013798D01*
X49649498Y-43013798D01*
X49661656Y-43059171D01*
X49681368Y-43132737D01*
X49690424Y-43166531D01*
X49709458Y-43199498D01*
X49709459Y-43199501D01*
X49769475Y-43303453D01*
X49769481Y-43303461D01*
X49888349Y-43422329D01*
X49888355Y-43422334D01*
X50173268Y-43707247D01*
X50206753Y-43768570D01*
X50208945Y-43807529D01*
X50199500Y-43899979D01*
X50199500Y-44590892D01*
X50179815Y-44657931D01*
X50163181Y-44678573D01*
X49678572Y-45163181D01*
X49617249Y-45196666D01*
X49590891Y-45199500D01*
X49322891Y-45199500D01*
X49255852Y-45179815D01*
X49235210Y-45163181D01*
X48562076Y-44490047D01*
X48528591Y-44428724D01*
X48530681Y-44367768D01*
X48535098Y-44352569D01*
X48538000Y-44315694D01*
X48538000Y-43884306D01*
X48535098Y-43847431D01*
X48531164Y-43833891D01*
X48489245Y-43689606D01*
X48489244Y-43689603D01*
X48489244Y-43689602D01*
X48405581Y-43548135D01*
X48405579Y-43548133D01*
X48405576Y-43548129D01*
X48289370Y-43431923D01*
X48289362Y-43431917D01*
X48200174Y-43379172D01*
X48147898Y-43348256D01*
X48147897Y-43348255D01*
X48147896Y-43348255D01*
X48147893Y-43348254D01*
X47990073Y-43302402D01*
X47990067Y-43302401D01*
X47953201Y-43299500D01*
X47953194Y-43299500D01*
X46646806Y-43299500D01*
X46646798Y-43299500D01*
X46609932Y-43302401D01*
X46609926Y-43302402D01*
X46452106Y-43348254D01*
X46452105Y-43348254D01*
X46346446Y-43410740D01*
X46278722Y-43427922D01*
X46212460Y-43405761D01*
X46168697Y-43351295D01*
X46161328Y-43281815D01*
X46168763Y-43256558D01*
X46219737Y-43133497D01*
X46250500Y-42978842D01*
X46250500Y-42821158D01*
X46250500Y-42821155D01*
X46250499Y-42821153D01*
X46219739Y-42666511D01*
X46219738Y-42666508D01*
X46219737Y-42666503D01*
X46209937Y-42642844D01*
X46200500Y-42595396D01*
X46200500Y-42287668D01*
X46220185Y-42220629D01*
X46272989Y-42174874D01*
X46289895Y-42168595D01*
X46347898Y-42151744D01*
X46489365Y-42068081D01*
X46605581Y-41951865D01*
X46688664Y-41811379D01*
X46739733Y-41763696D01*
X46795396Y-41750500D01*
X47899901Y-41750500D01*
X47966940Y-41770185D01*
G37*
%TD.AperFunction*%
%TA.AperFunction,Conductor*%
G36*
X41264843Y-38720185D02*
G01*
X41310598Y-38772989D01*
X41316880Y-38789905D01*
X41348253Y-38897893D01*
X41348255Y-38897896D01*
X41348256Y-38897898D01*
X41362012Y-38921158D01*
X41431917Y-39039362D01*
X41431923Y-39039370D01*
X41548129Y-39155576D01*
X41548133Y-39155579D01*
X41548135Y-39155581D01*
X41689602Y-39239244D01*
X41721403Y-39248483D01*
X41847426Y-39285097D01*
X41847429Y-39285097D01*
X41847431Y-39285098D01*
X41884306Y-39288000D01*
X42125500Y-39288000D01*
X42192539Y-39307685D01*
X42238294Y-39360489D01*
X42249500Y-39412000D01*
X42249500Y-40578201D01*
X42252401Y-40615067D01*
X42252402Y-40615073D01*
X42298254Y-40772893D01*
X42298255Y-40772896D01*
X42380744Y-40912379D01*
X42397927Y-40980103D01*
X42375767Y-41046366D01*
X42321300Y-41090129D01*
X42274012Y-41099500D01*
X40976080Y-41099500D01*
X40831092Y-41128340D01*
X40831082Y-41128343D01*
X40694509Y-41184913D01*
X40666372Y-41203714D01*
X40571582Y-41267049D01*
X39573036Y-42265595D01*
X39511713Y-42299080D01*
X39442021Y-42294096D01*
X39397674Y-42265595D01*
X39310292Y-42178213D01*
X39310288Y-42178210D01*
X39179185Y-42090609D01*
X39179175Y-42090604D01*
X39155523Y-42080807D01*
X39115295Y-42053927D01*
X38336819Y-41275451D01*
X38303334Y-41214128D01*
X38300500Y-41187770D01*
X38300500Y-39034181D01*
X38320185Y-38967142D01*
X38372989Y-38921387D01*
X38442147Y-38911443D01*
X38489594Y-38928641D01*
X38580666Y-38984814D01*
X38747203Y-39039999D01*
X38849991Y-39050500D01*
X39850008Y-39050499D01*
X39850016Y-39050498D01*
X39850019Y-39050498D01*
X39906302Y-39044748D01*
X39952797Y-39039999D01*
X40119334Y-38984814D01*
X40268656Y-38892712D01*
X40392712Y-38768656D01*
X40398420Y-38759402D01*
X40450368Y-38712678D01*
X40503958Y-38700500D01*
X41197804Y-38700500D01*
X41264843Y-38720185D01*
G37*
%TD.AperFunction*%
%TA.AperFunction,Conductor*%
G36*
X31305703Y-30467517D02*
G01*
X31312181Y-30473549D01*
X31381344Y-30542712D01*
X31530666Y-30634814D01*
X31697203Y-30689999D01*
X31799991Y-30700500D01*
X33400008Y-30700499D01*
X33482715Y-30692050D01*
X33551406Y-30704819D01*
X33602290Y-30752700D01*
X33619211Y-30820490D01*
X33598417Y-30884298D01*
X33540612Y-30970809D01*
X33540602Y-30970827D01*
X33480264Y-31116498D01*
X33480261Y-31116510D01*
X33449500Y-31271153D01*
X33449500Y-31325161D01*
X33429815Y-31392200D01*
X33377011Y-31437955D01*
X33372962Y-31439718D01*
X33370830Y-31440601D01*
X33370814Y-31440609D01*
X33239711Y-31528210D01*
X33239707Y-31528213D01*
X33128213Y-31639707D01*
X33128210Y-31639711D01*
X33040609Y-31770814D01*
X33040602Y-31770827D01*
X32980264Y-31916498D01*
X32980261Y-31916510D01*
X32949500Y-32071153D01*
X32949500Y-32228846D01*
X32980261Y-32383489D01*
X32980264Y-32383501D01*
X33040602Y-32529172D01*
X33040609Y-32529185D01*
X33128210Y-32660288D01*
X33128213Y-32660292D01*
X33239707Y-32771786D01*
X33239711Y-32771789D01*
X33370814Y-32859390D01*
X33370827Y-32859397D01*
X33470060Y-32900500D01*
X33516503Y-32919737D01*
X33671153Y-32950499D01*
X33671156Y-32950500D01*
X33671158Y-32950500D01*
X33828844Y-32950500D01*
X33828845Y-32950499D01*
X33905152Y-32935320D01*
X33983488Y-32919739D01*
X33983489Y-32919738D01*
X33983497Y-32919737D01*
X34007155Y-32909937D01*
X34054604Y-32900500D01*
X34937770Y-32900500D01*
X35004809Y-32920185D01*
X35025451Y-32936819D01*
X35253927Y-33165295D01*
X35280806Y-33205521D01*
X35290606Y-33229179D01*
X35290607Y-33229181D01*
X35378207Y-33360284D01*
X35378213Y-33360292D01*
X35489707Y-33471786D01*
X35489711Y-33471789D01*
X35620814Y-33559390D01*
X35620827Y-33559397D01*
X35724198Y-33602214D01*
X35766503Y-33619737D01*
X35916131Y-33649500D01*
X35921153Y-33650499D01*
X35921156Y-33650500D01*
X35921158Y-33650500D01*
X36078844Y-33650500D01*
X36078845Y-33650499D01*
X36233497Y-33619737D01*
X36379179Y-33559394D01*
X36510289Y-33471789D01*
X36621789Y-33360289D01*
X36709394Y-33229179D01*
X36769737Y-33083497D01*
X36800500Y-32928842D01*
X36800500Y-32771158D01*
X36800500Y-32771155D01*
X36800499Y-32771153D01*
X36792569Y-32731286D01*
X36769737Y-32616503D01*
X36751282Y-32571950D01*
X36743814Y-32502483D01*
X36775089Y-32440003D01*
X36835178Y-32404351D01*
X36865844Y-32400499D01*
X37650002Y-32400499D01*
X37650008Y-32400499D01*
X37752797Y-32389999D01*
X37919334Y-32334814D01*
X38068656Y-32242712D01*
X38192712Y-32118656D01*
X38198420Y-32109402D01*
X38250368Y-32062678D01*
X38303958Y-32050500D01*
X40957638Y-32050500D01*
X40996640Y-32056793D01*
X41157203Y-32109999D01*
X41259991Y-32120500D01*
X42260008Y-32120499D01*
X42260016Y-32120498D01*
X42260019Y-32120498D01*
X42316302Y-32114748D01*
X42362797Y-32109999D01*
X42529334Y-32054814D01*
X42529335Y-32054812D01*
X42532969Y-32053609D01*
X42602797Y-32051207D01*
X42648981Y-32077547D01*
X42649454Y-32076839D01*
X42649457Y-32076841D01*
X42653374Y-32080052D01*
X42659654Y-32083634D01*
X42668349Y-32092329D01*
X42668355Y-32092334D01*
X44040395Y-33464374D01*
X44040405Y-33464385D01*
X44044735Y-33468715D01*
X44044736Y-33468716D01*
X44156540Y-33580520D01*
X44243351Y-33630639D01*
X44243353Y-33630641D01*
X44285952Y-33655236D01*
X44293471Y-33659577D01*
X44446198Y-33700500D01*
X44446199Y-33700500D01*
X45199903Y-33700500D01*
X45266942Y-33720185D01*
X45287584Y-33736819D01*
X46125681Y-34574916D01*
X46159166Y-34636239D01*
X46162000Y-34662597D01*
X46162000Y-35309350D01*
X46142315Y-35376389D01*
X46125680Y-35397032D01*
X46082727Y-35439984D01*
X46021404Y-35473469D01*
X45951712Y-35468483D01*
X45926156Y-35455404D01*
X45829185Y-35390609D01*
X45829172Y-35390602D01*
X45683501Y-35330264D01*
X45683489Y-35330261D01*
X45528845Y-35299500D01*
X45528842Y-35299500D01*
X45371158Y-35299500D01*
X45371155Y-35299500D01*
X45216510Y-35330261D01*
X45216498Y-35330264D01*
X45070827Y-35390602D01*
X45070814Y-35390609D01*
X44939711Y-35478210D01*
X44939707Y-35478213D01*
X44828213Y-35589707D01*
X44828210Y-35589711D01*
X44740609Y-35720814D01*
X44740602Y-35720827D01*
X44680264Y-35866498D01*
X44680261Y-35866508D01*
X44656827Y-35984320D01*
X44624442Y-36046231D01*
X44563726Y-36080805D01*
X44493957Y-36077065D01*
X44470116Y-36065668D01*
X44469334Y-36065186D01*
X44302797Y-36010001D01*
X44302795Y-36010000D01*
X44200010Y-35999500D01*
X43199998Y-35999500D01*
X43199980Y-35999501D01*
X43097203Y-36010000D01*
X43097200Y-36010001D01*
X42930668Y-36065185D01*
X42930663Y-36065187D01*
X42781342Y-36157289D01*
X42657288Y-36281343D01*
X42657285Y-36281347D01*
X42580037Y-36406586D01*
X42528089Y-36453311D01*
X42459127Y-36464532D01*
X42395045Y-36436689D01*
X42356189Y-36378620D01*
X42350499Y-36341493D01*
X42350499Y-35599992D01*
X42349448Y-35589707D01*
X42339999Y-35497203D01*
X42339998Y-35497200D01*
X42318886Y-35433489D01*
X42284814Y-35330666D01*
X42192712Y-35181344D01*
X42068656Y-35057288D01*
X41921481Y-34966510D01*
X41919336Y-34965187D01*
X41919331Y-34965185D01*
X41917862Y-34964698D01*
X41752797Y-34910001D01*
X41752795Y-34910000D01*
X41650016Y-34899500D01*
X41650009Y-34899500D01*
X41162230Y-34899500D01*
X41095191Y-34879815D01*
X41074549Y-34863181D01*
X40580338Y-34368970D01*
X40546853Y-34307647D01*
X40546402Y-34305480D01*
X40525545Y-34200627D01*
X40521658Y-34181087D01*
X40505244Y-34141459D01*
X40465087Y-34044511D01*
X40465080Y-34044498D01*
X40382951Y-33921584D01*
X40382948Y-33921580D01*
X40278419Y-33817051D01*
X40278415Y-33817048D01*
X40155501Y-33734919D01*
X40155488Y-33734912D01*
X40018917Y-33678343D01*
X40018907Y-33678340D01*
X39873920Y-33649500D01*
X39873918Y-33649500D01*
X39076082Y-33649500D01*
X39076076Y-33649500D01*
X39047242Y-33655234D01*
X39047243Y-33655235D01*
X38931093Y-33678339D01*
X38931083Y-33678342D01*
X38851081Y-33711479D01*
X38851082Y-33711480D01*
X38794506Y-33734915D01*
X38753971Y-33762000D01*
X38671579Y-33817051D01*
X36967049Y-35521581D01*
X36928564Y-35579178D01*
X36928565Y-35579179D01*
X36884914Y-35644508D01*
X36828343Y-35781082D01*
X36828340Y-35781092D01*
X36799500Y-35926079D01*
X36799500Y-38388770D01*
X36779815Y-38455809D01*
X36727011Y-38501564D01*
X36657853Y-38511508D01*
X36594297Y-38482483D01*
X36587819Y-38476451D01*
X31136819Y-33025451D01*
X31103334Y-32964128D01*
X31100500Y-32937770D01*
X31100500Y-30561230D01*
X31120185Y-30494191D01*
X31172989Y-30448436D01*
X31242147Y-30438492D01*
X31305703Y-30467517D01*
G37*
%TD.AperFunction*%
%TA.AperFunction,Conductor*%
G36*
X50705703Y-33417516D02*
G01*
X50712181Y-33423548D01*
X51221580Y-33932948D01*
X51221584Y-33932951D01*
X51344498Y-34015080D01*
X51344511Y-34015087D01*
X51476937Y-34069939D01*
X51481087Y-34071658D01*
X51481091Y-34071658D01*
X51481092Y-34071659D01*
X51626079Y-34100500D01*
X51626082Y-34100500D01*
X52440417Y-34100500D01*
X52542543Y-34080185D01*
X52585410Y-34071658D01*
X52589558Y-34069939D01*
X52637012Y-34060500D01*
X52962986Y-34060500D01*
X53010438Y-34069938D01*
X53014591Y-34071659D01*
X53130744Y-34094763D01*
X53149971Y-34098587D01*
X53159584Y-34100500D01*
X53159585Y-34100500D01*
X53710417Y-34100500D01*
X53812543Y-34080185D01*
X53855410Y-34071658D01*
X53859557Y-34069939D01*
X53877576Y-34068002D01*
X53894357Y-34061147D01*
X53907012Y-34060500D01*
X54101272Y-34060500D01*
X54168311Y-34080185D01*
X54188952Y-34096818D01*
X54233180Y-34141045D01*
X54249042Y-34170093D01*
X54265796Y-34198646D01*
X54265715Y-34200627D01*
X54266666Y-34202368D01*
X54269500Y-34228727D01*
X54269500Y-34405500D01*
X54249815Y-34472539D01*
X54197011Y-34518294D01*
X54145500Y-34529500D01*
X53971457Y-34529500D01*
X53778170Y-34567947D01*
X53778160Y-34567950D01*
X53596089Y-34643366D01*
X53503890Y-34704971D01*
X53437213Y-34725848D01*
X53369833Y-34707363D01*
X53366110Y-34704971D01*
X53338116Y-34686266D01*
X53273914Y-34643368D01*
X53273911Y-34643366D01*
X53273910Y-34643366D01*
X53091839Y-34567950D01*
X53091829Y-34567947D01*
X52898543Y-34529500D01*
X52898541Y-34529500D01*
X52701459Y-34529500D01*
X52701457Y-34529500D01*
X52508170Y-34567947D01*
X52508160Y-34567950D01*
X52326092Y-34643364D01*
X52326079Y-34643371D01*
X52162218Y-34752860D01*
X52162214Y-34752863D01*
X52022863Y-34892214D01*
X52022860Y-34892218D01*
X51913371Y-35056079D01*
X51913364Y-35056092D01*
X51837950Y-35238160D01*
X51837947Y-35238170D01*
X51799500Y-35431456D01*
X51799500Y-35431459D01*
X51799500Y-35628541D01*
X51799500Y-35628543D01*
X51799499Y-35628543D01*
X51837947Y-35821829D01*
X51837950Y-35821839D01*
X51913366Y-36003911D01*
X51974970Y-36096108D01*
X51995848Y-36162786D01*
X51977363Y-36230166D01*
X51974971Y-36233889D01*
X51913370Y-36326081D01*
X51913366Y-36326088D01*
X51885374Y-36393669D01*
X51841533Y-36448072D01*
X51775239Y-36470137D01*
X51707540Y-36452858D01*
X51683132Y-36433897D01*
X51386819Y-36137584D01*
X51353334Y-36076261D01*
X51350500Y-36049903D01*
X51350500Y-35779765D01*
X51370185Y-35712726D01*
X51371398Y-35710874D01*
X51415743Y-35644508D01*
X51459394Y-35579179D01*
X51519737Y-35433497D01*
X51550500Y-35278842D01*
X51550500Y-35121158D01*
X51550500Y-35121155D01*
X51550499Y-35121153D01*
X51538251Y-35059578D01*
X51519737Y-34966503D01*
X51519192Y-34965187D01*
X51459397Y-34820827D01*
X51459390Y-34820814D01*
X51371789Y-34689711D01*
X51371786Y-34689707D01*
X51260292Y-34578213D01*
X51260288Y-34578210D01*
X51129185Y-34490609D01*
X51129172Y-34490602D01*
X50983501Y-34430264D01*
X50983489Y-34430261D01*
X50828845Y-34399500D01*
X50828842Y-34399500D01*
X50671158Y-34399500D01*
X50648690Y-34403969D01*
X50579099Y-34397740D01*
X50523922Y-34354877D01*
X50500678Y-34288987D01*
X50500500Y-34282351D01*
X50500500Y-33511229D01*
X50520185Y-33444190D01*
X50572989Y-33398435D01*
X50642147Y-33388491D01*
X50705703Y-33417516D01*
G37*
%TD.AperFunction*%
%TA.AperFunction,Conductor*%
G36*
X55018834Y-31526924D02*
G01*
X55074767Y-31568796D01*
X55099184Y-31634260D01*
X55099500Y-31643106D01*
X55099500Y-32400001D01*
X55099501Y-32400019D01*
X55110000Y-32502796D01*
X55110001Y-32502799D01*
X55140121Y-32593693D01*
X55142523Y-32663521D01*
X55106791Y-32723563D01*
X55044271Y-32754756D01*
X54974812Y-32747196D01*
X54943760Y-32728558D01*
X54941927Y-32727054D01*
X54941920Y-32727049D01*
X54941919Y-32727048D01*
X54855542Y-32669334D01*
X54855541Y-32669333D01*
X54819003Y-32644919D01*
X54818991Y-32644912D01*
X54682420Y-32588343D01*
X54682410Y-32588340D01*
X54562817Y-32564551D01*
X54500906Y-32532166D01*
X54466332Y-32471450D01*
X54470073Y-32401680D01*
X54510939Y-32345008D01*
X54518105Y-32339840D01*
X54528416Y-32332952D01*
X54632952Y-32228416D01*
X54715084Y-32105495D01*
X54771659Y-31968913D01*
X54800500Y-31823918D01*
X54800500Y-31722909D01*
X54809939Y-31675456D01*
X54812731Y-31668715D01*
X54820660Y-31649574D01*
X54820662Y-31649560D01*
X54822428Y-31643744D01*
X54824434Y-31644352D01*
X54852390Y-31590882D01*
X54853906Y-31589338D01*
X54887820Y-31555423D01*
X54949142Y-31521940D01*
X55018834Y-31526924D01*
G37*
%TD.AperFunction*%
%TA.AperFunction,Conductor*%
G36*
X50671952Y-30909863D02*
G01*
X50786682Y-30957385D01*
X50816503Y-30969737D01*
X50971153Y-31000499D01*
X50971156Y-31000500D01*
X51099903Y-31000500D01*
X51166942Y-31020185D01*
X51187584Y-31036819D01*
X51665139Y-31514374D01*
X51665149Y-31514385D01*
X51669479Y-31518715D01*
X51669480Y-31518716D01*
X51781284Y-31630520D01*
X51847442Y-31668716D01*
X51918215Y-31709577D01*
X52070943Y-31750501D01*
X52070946Y-31750501D01*
X52236653Y-31750501D01*
X52236669Y-31750500D01*
X52664628Y-31750500D01*
X52664644Y-31750501D01*
X52814136Y-31750501D01*
X52881175Y-31770186D01*
X52883027Y-31771399D01*
X52969816Y-31829390D01*
X52969820Y-31829392D01*
X52969823Y-31829394D01*
X53063989Y-31868398D01*
X53118389Y-31912237D01*
X53131095Y-31935506D01*
X53190602Y-32079172D01*
X53190609Y-32079185D01*
X53278210Y-32210288D01*
X53278213Y-32210292D01*
X53389707Y-32321786D01*
X53389715Y-32321792D01*
X53429774Y-32348559D01*
X53474580Y-32402171D01*
X53483287Y-32471496D01*
X53453133Y-32534523D01*
X53393690Y-32571243D01*
X53336693Y-32573278D01*
X53267425Y-32559500D01*
X53267421Y-32559500D01*
X52332579Y-32559500D01*
X52306593Y-32564669D01*
X52187591Y-32588339D01*
X52187584Y-32588341D01*
X52183433Y-32590061D01*
X52135980Y-32599500D01*
X52062229Y-32599500D01*
X51995190Y-32579815D01*
X51974548Y-32563181D01*
X51546072Y-32134705D01*
X51519191Y-32094473D01*
X51509397Y-32070828D01*
X51509396Y-32070826D01*
X51509394Y-32070821D01*
X51441584Y-31969336D01*
X51421789Y-31939710D01*
X51310292Y-31828213D01*
X51310288Y-31828210D01*
X51179185Y-31740609D01*
X51179172Y-31740602D01*
X51033501Y-31680264D01*
X51033489Y-31680261D01*
X50878845Y-31649500D01*
X50878842Y-31649500D01*
X50721158Y-31649500D01*
X50721155Y-31649500D01*
X50648691Y-31663914D01*
X50579100Y-31657687D01*
X50523922Y-31614824D01*
X50500678Y-31548934D01*
X50500500Y-31542297D01*
X50500500Y-31024424D01*
X50520185Y-30957385D01*
X50572989Y-30911630D01*
X50642147Y-30901686D01*
X50671952Y-30909863D01*
G37*
%TD.AperFunction*%
%TA.AperFunction,Conductor*%
G36*
X52091995Y-28125440D02*
G01*
X52140517Y-28155413D01*
X52285213Y-28300109D01*
X52457179Y-28425048D01*
X52457181Y-28425049D01*
X52457184Y-28425051D01*
X52646588Y-28521557D01*
X52848757Y-28587246D01*
X53058713Y-28620500D01*
X53058714Y-28620500D01*
X53505386Y-28620500D01*
X53572425Y-28640185D01*
X53618180Y-28692989D01*
X53627003Y-28720305D01*
X53628341Y-28727033D01*
X53628342Y-28727037D01*
X53678758Y-28848751D01*
X53684916Y-28863617D01*
X53701190Y-28887973D01*
X53709219Y-28899990D01*
X53767049Y-28986540D01*
X53970305Y-29189796D01*
X54003790Y-29251119D01*
X53998806Y-29320811D01*
X53997188Y-29324923D01*
X53993342Y-29334208D01*
X53993340Y-29334215D01*
X53964500Y-29479201D01*
X53964500Y-30230771D01*
X53944815Y-30297810D01*
X53892011Y-30343565D01*
X53885692Y-30345954D01*
X53885716Y-30346011D01*
X53776427Y-30391279D01*
X53706957Y-30398748D01*
X53681523Y-30391279D01*
X53582503Y-30350264D01*
X53582491Y-30350261D01*
X53427847Y-30319500D01*
X53427844Y-30319500D01*
X53270160Y-30319500D01*
X53270157Y-30319500D01*
X53115512Y-30350261D01*
X53115500Y-30350264D01*
X52969829Y-30410602D01*
X52969816Y-30410609D01*
X52838127Y-30498602D01*
X52771449Y-30519480D01*
X52769236Y-30519500D01*
X52702238Y-30519500D01*
X52668964Y-30528415D01*
X52668965Y-30528416D01*
X52606045Y-30545275D01*
X52573953Y-30549500D01*
X52450097Y-30549500D01*
X52383058Y-30529815D01*
X52362416Y-30513181D01*
X51840006Y-29990771D01*
X51813126Y-29950542D01*
X51759397Y-29820827D01*
X51759390Y-29820814D01*
X51671789Y-29689711D01*
X51671786Y-29689707D01*
X51560292Y-29578213D01*
X51560288Y-29578210D01*
X51519789Y-29551149D01*
X51474984Y-29497536D01*
X51466277Y-29428211D01*
X51496432Y-29365184D01*
X51500980Y-29360385D01*
X51515295Y-29346070D01*
X51555519Y-29319193D01*
X51579179Y-29309394D01*
X51710289Y-29221789D01*
X51821789Y-29110289D01*
X51909394Y-28979179D01*
X51969737Y-28833497D01*
X52000500Y-28678842D01*
X52000500Y-28521158D01*
X52000500Y-28521155D01*
X52000499Y-28521153D01*
X51974140Y-28388638D01*
X51969737Y-28366503D01*
X51938274Y-28290546D01*
X51930806Y-28221077D01*
X51962081Y-28158598D01*
X52022170Y-28122946D01*
X52091995Y-28125440D01*
G37*
%TD.AperFunction*%
%TA.AperFunction,Conductor*%
G36*
X44042539Y-23420185D02*
G01*
X44088294Y-23472989D01*
X44099500Y-23524500D01*
X44099500Y-24870234D01*
X44079815Y-24937273D01*
X44078602Y-24939125D01*
X43990609Y-25070814D01*
X43990602Y-25070827D01*
X43930264Y-25216498D01*
X43930261Y-25216510D01*
X43899500Y-25371153D01*
X43899500Y-25528846D01*
X43930261Y-25683489D01*
X43930264Y-25683501D01*
X43990602Y-25829172D01*
X43990609Y-25829185D01*
X44078210Y-25960288D01*
X44078213Y-25960292D01*
X44189707Y-26071786D01*
X44189711Y-26071789D01*
X44320814Y-26159390D01*
X44320827Y-26159397D01*
X44466498Y-26219735D01*
X44466503Y-26219737D01*
X44616030Y-26249480D01*
X44621153Y-26250499D01*
X44621156Y-26250500D01*
X44621158Y-26250500D01*
X44778844Y-26250500D01*
X44778845Y-26250499D01*
X44933497Y-26219737D01*
X45079179Y-26159394D01*
X45210289Y-26071789D01*
X45321789Y-25960289D01*
X45409394Y-25829179D01*
X45421617Y-25799667D01*
X45433074Y-25778233D01*
X45491694Y-25690500D01*
X45515084Y-25655495D01*
X45528642Y-25622762D01*
X45572482Y-25568360D01*
X45638775Y-25546294D01*
X45699497Y-25559729D01*
X45781588Y-25601557D01*
X45983757Y-25667246D01*
X46193713Y-25700500D01*
X46193714Y-25700500D01*
X46656286Y-25700500D01*
X46656287Y-25700500D01*
X46866243Y-25667246D01*
X47068412Y-25601557D01*
X47257816Y-25505051D01*
X47310556Y-25466732D01*
X47376361Y-25443252D01*
X47444415Y-25459077D01*
X47471123Y-25479369D01*
X49740170Y-27748415D01*
X49740171Y-27748416D01*
X49844706Y-27852951D01*
X49844707Y-27852952D01*
X49967620Y-27935080D01*
X49967633Y-27935087D01*
X50104204Y-27991656D01*
X50104209Y-27991658D01*
X50104213Y-27991658D01*
X50104214Y-27991659D01*
X50249201Y-28020500D01*
X50249204Y-28020500D01*
X50392469Y-28020500D01*
X50459508Y-28040185D01*
X50505263Y-28092989D01*
X50515207Y-28162147D01*
X50495571Y-28213391D01*
X50490604Y-28220823D01*
X50480805Y-28244480D01*
X50453927Y-28284704D01*
X49167052Y-29571578D01*
X49167049Y-29571581D01*
X49124980Y-29634542D01*
X49124981Y-29634543D01*
X49084914Y-29694508D01*
X49028343Y-29831082D01*
X49028340Y-29831092D01*
X48999500Y-29976079D01*
X48999500Y-30075500D01*
X48979815Y-30142539D01*
X48927011Y-30188294D01*
X48875500Y-30199500D01*
X48017433Y-30199500D01*
X47950394Y-30179815D01*
X47904639Y-30127011D01*
X47894075Y-30062897D01*
X47900500Y-30000009D01*
X47900499Y-28699992D01*
X47899477Y-28689992D01*
X47889999Y-28597203D01*
X47889998Y-28597200D01*
X47864932Y-28521557D01*
X47834814Y-28430666D01*
X47742712Y-28281344D01*
X47618656Y-28157288D01*
X47469334Y-28065186D01*
X47302797Y-28010001D01*
X47302795Y-28010000D01*
X47200010Y-27999500D01*
X45649998Y-27999500D01*
X45649981Y-27999501D01*
X45547203Y-28010000D01*
X45547200Y-28010001D01*
X45380668Y-28065185D01*
X45380663Y-28065187D01*
X45231342Y-28157289D01*
X45217681Y-28170951D01*
X45156358Y-28204436D01*
X45086666Y-28199452D01*
X45042319Y-28170951D01*
X44948657Y-28077289D01*
X44948656Y-28077288D01*
X44832019Y-28005346D01*
X44799336Y-27985187D01*
X44799331Y-27985185D01*
X44797862Y-27984698D01*
X44632797Y-27930001D01*
X44632795Y-27930000D01*
X44530010Y-27919500D01*
X43529998Y-27919500D01*
X43529980Y-27919501D01*
X43427203Y-27930000D01*
X43427196Y-27930002D01*
X43374653Y-27947413D01*
X43304824Y-27949814D01*
X43247969Y-27917388D01*
X40725419Y-25394838D01*
X40691934Y-25333515D01*
X40696918Y-25263823D01*
X40722526Y-25223983D01*
X40721947Y-25223488D01*
X40725109Y-25219786D01*
X40850048Y-25047820D01*
X40850047Y-25047820D01*
X40850051Y-25047816D01*
X40946557Y-24858412D01*
X41012246Y-24656243D01*
X41045500Y-24446287D01*
X41045500Y-24233713D01*
X41012246Y-24023757D01*
X40946557Y-23821588D01*
X40850051Y-23632184D01*
X40850049Y-23632181D01*
X40850048Y-23632179D01*
X40824769Y-23597385D01*
X40801289Y-23531578D01*
X40817115Y-23463525D01*
X40867221Y-23414830D01*
X40925087Y-23400500D01*
X43975500Y-23400500D01*
X44042539Y-23420185D01*
G37*
%TD.AperFunction*%
%TA.AperFunction,Conductor*%
G36*
X55675288Y-25482736D02*
G01*
X55697203Y-25489999D01*
X55799991Y-25500500D01*
X56800008Y-25500499D01*
X56862899Y-25494074D01*
X56931590Y-25506843D01*
X56982475Y-25554723D01*
X56999500Y-25617432D01*
X56999500Y-28982566D01*
X56979815Y-29049605D01*
X56927011Y-29095360D01*
X56862899Y-29105924D01*
X56800021Y-29099500D01*
X56800009Y-29099500D01*
X56068110Y-29099500D01*
X56001071Y-29079815D01*
X55965008Y-29044391D01*
X55905610Y-28955496D01*
X55905610Y-28955495D01*
X55901090Y-28948730D01*
X55882952Y-28921584D01*
X55350006Y-28388638D01*
X55316521Y-28327315D01*
X55321505Y-28257623D01*
X55334583Y-28232069D01*
X55350658Y-28208012D01*
X55380084Y-28163973D01*
X55436658Y-28027391D01*
X55447781Y-27971471D01*
X55465500Y-27882398D01*
X55465500Y-26657601D01*
X55436659Y-26512614D01*
X55436658Y-26512613D01*
X55436658Y-26512609D01*
X55380084Y-26376027D01*
X55325610Y-26294500D01*
X55325610Y-26294499D01*
X55297950Y-26253103D01*
X55152527Y-26107680D01*
X55119042Y-26046357D01*
X55124026Y-25976665D01*
X55152523Y-25932322D01*
X55297952Y-25786894D01*
X55338446Y-25726287D01*
X55353859Y-25707507D01*
X55548606Y-25512760D01*
X55609927Y-25479277D01*
X55675288Y-25482736D01*
G37*
%TD.AperFunction*%
%TA.AperFunction,Conductor*%
G36*
X56942539Y-19520185D02*
G01*
X56988294Y-19572989D01*
X56999500Y-19624500D01*
X56999500Y-22030981D01*
X56979815Y-22098020D01*
X56927011Y-22143775D01*
X56862246Y-22154270D01*
X56817873Y-22149500D01*
X56817865Y-22149500D01*
X55922129Y-22149500D01*
X55922123Y-22149501D01*
X55862515Y-22155909D01*
X55763332Y-22192901D01*
X55693640Y-22197885D01*
X55676668Y-22192901D01*
X55577485Y-22155909D01*
X55577483Y-22155908D01*
X55517883Y-22149501D01*
X55517881Y-22149500D01*
X55517873Y-22149500D01*
X55517865Y-22149500D01*
X54869154Y-22149500D01*
X54802115Y-22129815D01*
X54756360Y-22077011D01*
X54746681Y-22044897D01*
X54732246Y-21953757D01*
X54732246Y-21953756D01*
X54694083Y-21836304D01*
X54666557Y-21751588D01*
X54666555Y-21751585D01*
X54666555Y-21751583D01*
X54613705Y-21647861D01*
X54570051Y-21562184D01*
X54570049Y-21562181D01*
X54570048Y-21562179D01*
X54445109Y-21390213D01*
X54294786Y-21239890D01*
X54122820Y-21114951D01*
X53933414Y-21018444D01*
X53933413Y-21018443D01*
X53933412Y-21018443D01*
X53731243Y-20952754D01*
X53731241Y-20952753D01*
X53731240Y-20952753D01*
X53569957Y-20927208D01*
X53521287Y-20919500D01*
X53058713Y-20919500D01*
X53010042Y-20927208D01*
X52848760Y-20952753D01*
X52646585Y-21018444D01*
X52457185Y-21114948D01*
X52457181Y-21114950D01*
X52449106Y-21120818D01*
X52383300Y-21144298D01*
X52376221Y-21144500D01*
X51027362Y-21144500D01*
X50988359Y-21138206D01*
X50827797Y-21085001D01*
X50827795Y-21085000D01*
X50725016Y-21074500D01*
X50725009Y-21074500D01*
X50138581Y-21074500D01*
X50138579Y-21074500D01*
X49961421Y-21074500D01*
X49961417Y-21074500D01*
X49374998Y-21074500D01*
X49374980Y-21074501D01*
X49272203Y-21085000D01*
X49272200Y-21085001D01*
X49105668Y-21140185D01*
X49105663Y-21140187D01*
X48956342Y-21232289D01*
X48832289Y-21356342D01*
X48740187Y-21505663D01*
X48740185Y-21505668D01*
X48685001Y-21672204D01*
X48678946Y-21731463D01*
X48652549Y-21796154D01*
X48595367Y-21836304D01*
X48525556Y-21839166D01*
X48467907Y-21806539D01*
X46828421Y-20167052D01*
X46828420Y-20167051D01*
X46712355Y-20089500D01*
X46712354Y-20089499D01*
X46705491Y-20084913D01*
X46568917Y-20028343D01*
X46568907Y-20028340D01*
X46423920Y-19999500D01*
X46423918Y-19999500D01*
X44024499Y-19999500D01*
X43957460Y-19979815D01*
X43911705Y-19927011D01*
X43900499Y-19875500D01*
X43900499Y-19699998D01*
X43900498Y-19699980D01*
X43894075Y-19637101D01*
X43906845Y-19568408D01*
X43954726Y-19517524D01*
X44017433Y-19500500D01*
X56875500Y-19500500D01*
X56942539Y-19520185D01*
G37*
%TD.AperFunction*%
%TD*%
M02*
