M48
; DRILL file KiCad 10.0.5 date 2026-09-04T17:47:17
; FORMAT={-:-/ absolute / metric / decimal}
; #@! TF.CreationDate,2026-09-04T17:47:17+02:00
; #@! TF.GenerationSoftware,Kicad,Pcbnew,10.0.5
; #@! TF.FileFunction,Plated,1,2,PTH
FMAT,2
METRIC
; #@! TA.AperFunction,Plated,PTH,ViaDrill
T1C0.300
; #@! TA.AperFunction,Plated,PTH,ComponentDrill
T2C0.650
; #@! TA.AperFunction,Plated,PTH,ComponentDrill
T3C0.950
; #@! TA.AperFunction,Plated,PTH,ComponentDrill
T4C1.000
%
G90
G05
T1
X24.15Y-37.2
X24.15Y-40.65
X24.25Y-32.25
X25.85Y-48.65
X28.35Y-49.2
X29.0Y-35.2
X29.0Y-36.95
X30.35Y-40.65
X30.623Y-37.927
X30.8Y-50.0
X31.93Y-51.97
X33.25Y-50.65
X33.75Y-32.15
X33.85Y-52.4
X34.05Y-47.9
X34.25Y-31.35
X34.3Y-55.5
X35.35Y-48.85
X35.55Y-42.95
X35.95Y-52.5
X36.0Y-32.85
X36.257Y-24.487
X37.1Y-34.0
X37.35Y-50.75
X37.4Y-51.95
X37.7Y-56.0
X37.9Y-52.45
X38.1Y-44.8
X38.4Y-33.0
X38.8Y-42.8
X39.375Y-39.925
X39.8Y-32.95
X40.55Y-56.55
X41.2Y-46.7
X41.35Y-55.6
X41.75Y-29.2
X41.75Y-33.0
X42.05Y-37.95
X42.125Y-33.525
X42.65Y-34.05
X43.05Y-41.85
X43.35Y-26.85
X44.1Y-43.0
X44.7Y-25.45
X44.75Y-48.95
X44.9Y-55.9
X45.45Y-36.1
X45.45Y-42.9
X47.05Y-43.05
X47.3Y-45.35
X47.325Y-27.175
X47.375Y-42.35
X47.4Y-36.95
X47.6Y-54.5
X47.65Y-35.15
X47.7Y-48.0
X48.05Y-27.9
X48.2Y-48.4
X48.5Y-21.1
X48.5Y-29.3
X48.55Y-31.45
X50.0Y-24.85
X50.75Y-35.2
X50.8Y-32.45
X51.0Y-31.3
X51.0Y-39.0
X51.05Y-30.2
X51.2Y-28.6
X51.75Y-37.3
X52.9Y-32.25
X53.349Y-31.12
X53.9Y-31.7
X55.1Y-23.05
X55.672Y-28.672
X55.742Y-26.25
X55.742Y-26.8
X55.742Y-27.4
X55.742Y-28.1
X56.2Y-43.4
X56.3Y-30.2
X56.3Y-42.35
T2
X25.93Y-34.24
X25.93Y-35.51
X25.93Y-36.78
X25.93Y-38.05
X25.93Y-39.32
X25.93Y-40.59
X25.93Y-41.86
X25.93Y-43.13
X25.93Y-44.4
X25.93Y-45.67
X27.2Y-34.24
X27.2Y-35.51
X27.2Y-36.78
X27.2Y-38.05
X27.2Y-39.32
X27.2Y-40.59
X27.2Y-41.86
X27.2Y-43.13
X27.2Y-44.4
X27.2Y-45.67
X52.8Y-34.26
X52.8Y-35.53
X52.8Y-36.8
X52.8Y-38.07
X52.8Y-39.34
X52.8Y-40.61
X52.8Y-41.88
X52.8Y-43.15
X52.8Y-44.42
X52.8Y-45.69
X54.07Y-34.26
X54.07Y-35.53
X54.07Y-36.8
X54.07Y-38.07
X54.07Y-39.34
X54.07Y-40.61
X54.07Y-41.88
X54.07Y-43.15
X54.07Y-44.42
X54.07Y-45.69
T3
X39.57Y-24.34
X39.57Y-26.84
X39.57Y-29.34
X46.425Y-24.35
X46.425Y-26.85
X46.425Y-29.35
X53.29Y-22.27
X53.29Y-24.77
X53.29Y-27.27
X53.29Y-29.77
T4
X25.695Y-26.86
X25.695Y-29.36
X32.6Y-26.85
X32.6Y-29.35
M30
